<?xml version="1.0" standalone="no"?>
<!DOCTYPE svg PUBLIC "-//W3C//DTD SVG 1.1//EN" "http://www.w3.org/Graphics/SVG/1.1/DTD/svg11.dtd" >
<svg xmlns="http://www.w3.org/2000/svg" xmlns:xlink="http://www.w3.org/1999/xlink" version="1.1">
<metadata>
Created by FontForge 20170731 at Sat Jan 29 10:08:13 2022
 By Aleksey,,,
Copyright (c) 2016 by Mattox Shuler. All rights reserved.
</metadata>
<defs>
<font id="RiftSoft-Demi" horiz-adv-x="917" >
  <font-face 
    font-family="Rift Soft Demi"
    font-weight="600"
    font-stretch="normal"
    units-per-em="2048"
    panose-1="0 0 7 0 0 0 0 0 0 0"
    ascent="1597"
    descent="-451"
    x-height="1434"
    cap-height="1434"
    bbox="-424 -615.714 1630 2173"
    underline-thickness="102"
    underline-position="-307"
    unicode-range="U+0020-2260"
  />
<missing-glyph horiz-adv-x="1024" 
d="M840 1597v-2048h-650v2048h650zM682 1460h-338v-67h133v-76h-135v-68h340v68h-135v76h135v67zM547 1196h-205v-213h340v70h-135v143zM477 1126v-73h-67v73h67zM682 928h-340v-68h135v-76h-135v-67h205v143h135v68zM682 805h-68v-135h-272v-70h340v205zM682 555h-205v-115
h70v47h67v-96h-204v164h-68v-231h340v231zM682 201h-340v-232h340v232zM614 133v-96h-204v96h204zM682 -78h-340v-67h143l-143 -97v-67h340v67h-209l143 97h66v67z" />
    <glyph glyph-name=".notdef" horiz-adv-x="1024" 
d="M840 1597v-2048h-650v2048h650zM682 1460h-338v-67h133v-76h-135v-68h340v68h-135v76h135v67zM547 1196h-205v-213h340v70h-135v143zM477 1126v-73h-67v73h67zM682 928h-340v-68h135v-76h-135v-67h205v143h135v68zM682 805h-68v-135h-272v-70h340v205zM682 555h-205v-115
h70v47h67v-96h-204v164h-68v-231h340v231zM682 201h-340v-232h340v232zM614 133v-96h-204v96h204zM682 -78h-340v-67h143l-143 -97v-67h340v67h-209l143 97h66v67z" />
    <glyph glyph-name=".null" horiz-adv-x="0" 
 />
    <glyph glyph-name="nonmarkingreturn" horiz-adv-x="682" 
 />
    <glyph glyph-name="space" unicode=" " horiz-adv-x="327" 
 />
    <glyph glyph-name="exclam" unicode="!" horiz-adv-x="380" 
d="M219 1434q68 0 68 -68v-152l-23 -790q-3 -68 -67 -68h-13q-32 0 -49.5 18t-17.5 50l-23 788v154q0 68 68 68h57zM219 225q68 0 68 -67v-90q0 -68 -68 -68h-57q-32 0 -50 18t-18 50v90q0 32 18 49.5t50 17.5h57z" />
    <glyph glyph-name="quotedbl" unicode="&#x22;" horiz-adv-x="667" 
d="M248 1434q37 0 53 -22t4 -56l-131 -414q-17 -47 -68 -47q-58 0 -49 61l68 416q9 62 74 62h49zM559 1434q37 0 53 -22t4 -56l-131 -414q-17 -47 -67 -47q-58 0 -49 61l67 416q9 62 74 62h49z" />
    <glyph glyph-name="numbersign" unicode="#" horiz-adv-x="1224" 
d="M1130 1020q32 0 50 -18t18 -50v-16q0 -32 -18 -50t-50 -18h-184l-69 -303h172q67 0 67 -67v-17q0 -67 -67 -67h-207l-80 -355q-12 -59 -74 -59h-31q-35 0 -50 20t-7 54l78 340h-268l-80 -355q-12 -59 -74 -59h-29q-35 0 -51 20t-8 54l78 340h-152q-67 0 -67 67v17
q0 67 67 67h185l69 303h-172q-32 0 -49.5 18t-17.5 50v16q0 32 17.5 50t49.5 18h207l80 354q12 60 74 60h30q35 0 50.5 -20t7.5 -54l-78 -340h268l80 354q12 60 74 60h28q35 0 51.5 -20t8.5 -54l-78 -340h151zM711 565l69 303h-266l-70 -303h267z" />
    <glyph glyph-name="dollar" unicode="$" horiz-adv-x="856" 
d="M573 758q102 -58 151.5 -119.5t49.5 -157.5v-198q0 -135 -65 -206t-191 -89v-80q0 -32 -17.5 -50t-49.5 -18h-39q-32 0 -50 18t-18 50v80q-258 31 -258 295v176q0 67 68 67h53q67 0 67 -67v-144q0 -163 156 -163t156 163v113q0 63 -25 98.5t-90 71.5l-184 102
q-108 62 -154.5 120.5t-46.5 154.5v180q0 127 68.5 199t189.5 90v82q0 32 18 49.5t50 17.5h39q67 0 67 -67v-82q118 -20 185 -91.5t67 -197.5v-160q0 -67 -68 -67h-53q-67 0 -67 67v127q0 84 -39 122t-115 38t-115 -38t-39 -122v-98q0 -62 24 -94.5t89 -69.5z" />
    <glyph glyph-name="percent" unicode="%" horiz-adv-x="1046" 
d="M272 1442q73 0 121.5 -42.5t48.5 -129.5v-266q0 -87 -49 -130t-121 -43h-32q-75 0 -123.5 43t-48.5 130v266q0 87 48.5 129.5t123.5 42.5h32zM860 1434q26 0 34.5 -17t-3.5 -43l-627 -1337q-19 -37 -59 -37h-10q-29 0 -40 16.5t1 42.5l628 1338q16 37 58 37h18zM330 1247
q0 86 -66 86h-18q-64 0 -64 -86v-221q0 -86 64 -86h18q66 0 66 86v221zM809 602q73 0 121.5 -42.5t48.5 -129.5v-266q0 -87 -48.5 -129.5t-121.5 -42.5h-33q-75 0 -123.5 42.5t-48.5 129.5v266q0 87 48.5 129.5t123.5 42.5h33zM866 408q0 86 -65 86h-19q-63 0 -63 -86v-222
q0 -86 63 -86h19q65 0 65 86v222z" />
    <glyph glyph-name="ampersand" unicode="&#x26;" horiz-adv-x="948" 
d="M903 82q23 -35 10 -58.5t-53 -23.5h-43q-50 0 -80 43l-51 76q-84 -135 -285 -135h-14q-155 0 -228 77t-73 209v320q0 78 27.5 139t74.5 92q-41 64 -60 120t-19 126v88q0 152 85.5 223.5t251.5 71.5h5q340 0 337 -295v-125q0 -67 -67 -67h-47q-70 0 -70 67v96
q0 87 -40 122.5t-113 35.5t-113.5 -35.5t-40.5 -122.5v-55q0 -58 16.5 -97t83.5 -138l228 -338l57 227q15 57 76 57h41q35 0 50.5 -20.5t6.5 -54.5l-102 -404zM414 145q67 0 100.5 32.5t56.5 109.5l-282 413q-15 -43 -15 -82v-294q0 -94 32.5 -136.5t107.5 -42.5z" />
    <glyph glyph-name="quotesingle" unicode="'" horiz-adv-x="356" 
d="M248 1434q37 0 53 -22t4 -56l-131 -414q-17 -47 -68 -47q-58 0 -49 61l68 416q9 62 74 62h49z" />
    <glyph glyph-name="parenleft" unicode="(" horiz-adv-x="565" 
d="M463 1364q-81 0 -122.5 -39t-41.5 -133v-950q0 -92 41 -132t123 -40q57 0 57 -68v-33q0 -67 -57 -67q-168 0 -258 74.5t-90 228.5v1024q0 303 348 303q57 0 57 -68v-32q0 -68 -57 -68z" />
    <glyph glyph-name="parenright" unicode=")" horiz-adv-x="565" 
d="M102 1364q-57 0 -57 68v32q0 68 57 68q349 0 349 -303v-1024q0 -154 -90.5 -228.5t-258.5 -74.5q-57 0 -57 67v33q0 68 57 68q82 0 123 40t41 132v950q0 94 -41.5 133t-122.5 39z" />
    <glyph glyph-name="asterisk" unicode="*" horiz-adv-x="688" 
d="M414 1128l116 -122q42 -45 -6 -84l-16 -13q-25 -19 -47 -14t-35 33l-82 149l-84 -147q-28 -58 -82 -19l-12 11q-50 40 -6 84l116 124l-170 35q-62 9 -43 70l5 14q9 28 30 36.5t47 -3.5l156 -72l-20 168q-6 30 8.5 47t44.5 17h22q30 0 44 -17t10 -47l-23 -168l158 72
q58 26 76 -33l4 -14q18 -60 -41 -72z" />
    <glyph glyph-name="plus" unicode="+" horiz-adv-x="860" 
d="M696 807q68 0 68 -68v-10q0 -67 -68 -67h-194v-193q0 -68 -68 -68h-10q-68 0 -68 68v193h-192q-68 0 -68 67v10q0 68 68 68h192v194q0 68 68 68h10q68 0 68 -68v-194h194z" />
    <glyph glyph-name="comma" unicode="," horiz-adv-x="368" 
d="M213 225q68 0 68 -67v-103q0 -139 -74 -266q-36 -51 -74 -31q-35 14 -2 78q41 83 47 164h-22q-32 0 -50 18t-18 50v90q0 32 18 49.5t50 17.5h57z" />
    <glyph glyph-name="hyphen" unicode="-" horiz-adv-x="565" 
d="M451 813q32 0 49.5 -18t17.5 -50v-24q0 -32 -17.5 -50t-49.5 -18h-336q-32 0 -50 18t-18 50v24q0 32 18 50t50 18h336z" />
    <glyph glyph-name="period" unicode="." horiz-adv-x="368" 
d="M213 225q68 0 68 -67v-90q0 -68 -68 -68h-57q-32 0 -50 18t-18 50v90q0 32 18 49.5t50 17.5h57z" />
    <glyph glyph-name="slash" unicode="/" horiz-adv-x="653" 
d="M563 1532q35 0 51 -21t7 -55l-422 -1497q-18 -57 -76 -57h-33q-35 0 -50.5 20.5t-6.5 54.5l422 1498q18 57 75 57h33z" />
    <glyph glyph-name="zero" unicode="0" horiz-adv-x="892" 
d="M455 1450q331 0 331 -303v-860q0 -303 -331 -303h-17q-332 0 -332 303v860q0 303 332 303h17zM600 1110q0 92 -38 131t-116 39t-115.5 -39t-37.5 -131v-786q0 -92 37.5 -131t115.5 -39t116 39t38 131v786z" />
    <glyph glyph-name="one" unicode="1" horiz-adv-x="464" 
d="M322 68q0 -32 -18 -50t-50 -18h-51q-68 0 -68 68v1196q0 23 17 43q36 45 51 84q18 47 59 47h6q25 0 39.5 -15t14.5 -41v-1314z" />
    <glyph glyph-name="two" unicode="2" horiz-adv-x="808" 
d="M154 934q-68 0 -68 67v154q0 152 81.5 223.5t242.5 71.5h4q161 0 242 -71t81 -224v-186q0 -30 -6 -58.5t-14.5 -51t-26 -48t-31 -42.5t-40 -43t-43.5 -41t-50 -44t-51 -45q-112 -98 -159.5 -159t-47.5 -128v-147h402q67 0 67 -68v-26q0 -68 -67 -68h-520q-68 0 -68 68
v245q0 62 18.5 116t66.5 111t79 86.5t106 95.5q13 11 19 17q47 40 66.5 57.5t47.5 46t38.5 46t19 41.5t8.5 49v151q0 85 -36 121.5t-107 36.5q-70 0 -104 -36.5t-34 -121.5v-129q0 -67 -69 -67h-47z" />
    <glyph glyph-name="three" unicode="3" horiz-adv-x="821" 
d="M735 971q0 -205 -145 -226q47 -9 77.5 -31t44.5 -53.5t18.5 -59t4.5 -62.5v-252q0 -148 -76 -225.5t-227 -77.5h-55q-151 0 -227 77.5t-76 225.5v119q0 67 67 67h52q67 0 67 -67v-95q0 -166 137 -166h15q137 0 137 166v224q0 127 -129 127h-96q-68 0 -68 67v25
q0 67 68 67h75q76 0 113 34.5t37 113.5v153q0 166 -137 166h-19q-137 0 -137 -166v-61q0 -32 -18 -50t-50 -18h-47q-67 0 -67 68v86q0 303 323 303h15q323 0 323 -303v-176z" />
    <glyph glyph-name="four" unicode="4" horiz-adv-x="774" 
d="M575 1434q32 0 50 -18t18 -50v-854h41q68 0 68 -68v-28q0 -68 -68 -68h-41v-280q0 -32 -18 -50t-50 -18h-51q-69 0 -69 68v280h-365q-67 0 -67 68v61q0 36 16 82l342 821q22 54 78 54h116zM455 1221l-281 -709h281v709z" />
    <glyph glyph-name="five" unicode="5" horiz-adv-x="837" 
d="M741 1335q0 -67 -67 -67h-381v-400q65 80 190 80q59 0 107 -15t86.5 -46.5t60 -87t21.5 -129.5v-391q0 -152 -83 -223.5t-245 -71.5h-4q-162 0 -245 71.5t-83 223.5v153q0 68 68 68h47q70 0 70 -68v-129q0 -85 35.5 -121.5t107.5 -36.5q73 0 109 36.5t36 121.5v340
q0 80 -33.5 110.5t-88.5 30.5q-80 0 -132 -59q-30 -38 -69 -27l-84 23q-58 15 -58 74v571q0 68 68 68h500q67 0 67 -68v-31z" />
    <glyph glyph-name="six" unicode="6" horiz-adv-x="860" 
d="M750 1077q0 -57 -68 -57h-51q-32 0 -50 17.5t-18 49.5v43q0 90 -31 124t-104 34t-104 -34t-31 -124v-319q57 74 186 74q130 0 206.5 -69.5t76.5 -213.5v-323q0 -153 -80.5 -224t-245.5 -71h-4q-165 0 -245.5 71t-80.5 224v876q0 154 78 224.5t242 70.5h4q164 0 242 -70.5
t78 -224.5v-78zM434 721q-141 0 -141 -146v-272q0 -89 33.5 -123.5t107.5 -34.5t107.5 34.5t33.5 123.5v272q0 80 -35.5 113t-105.5 33z" />
    <glyph glyph-name="seven" unicode="7" horiz-adv-x="700" 
d="M641 1337q0 -46 -10 -82l-295 -1196q-12 -59 -74 -59h-47q-35 0 -51 20t-8 54l295 1194h-365q-32 0 -50 17.5t-18 49.5v31q0 32 18 50t50 18h487q32 0 50 -18t18 -50v-29z" />
    <glyph glyph-name="eight" unicode="8" horiz-adv-x="841" 
d="M453 1450q151 0 227 -77.5t76 -225.5v-176q0 -207 -146 -226q146 -26 146 -247v-211q0 -148 -76 -225.5t-227 -77.5h-64q-151 0 -227 77.5t-76 225.5v211q0 222 145 247q-145 19 -145 226v176q0 148 76 225.5t227 77.5h64zM569 969v153q0 86 -35.5 126t-93.5 40h-39
q-58 0 -93.5 -40t-35.5 -126v-153q0 -77 35 -112.5t94 -35.5h39q59 0 94 35.5t35 112.5zM569 311v203q0 77 -35 112.5t-94 35.5h-39q-59 0 -94 -35.5t-35 -112.5v-203q0 -86 35.5 -126t93.5 -40h39q58 0 93.5 40t35.5 126z" />
    <glyph glyph-name="nine" unicode="9" horiz-adv-x="860" 
d="M111 356q0 58 67 58h51q32 0 50 -18t18 -50v-43q0 -90 31 -124t104 -34t104 34t31 124v320q-57 -74 -186 -74q-130 0 -206.5 69t-76.5 213v324q0 153 80.5 224t245.5 71h4q165 0 245.5 -71t80.5 -224v-876q0 -154 -78 -224.5t-242 -70.5h-4q-164 0 -241.5 70.5
t-77.5 224.5v77zM426 713q141 0 141 145v272q0 89 -33.5 123.5t-107.5 34.5t-107.5 -34.5t-33.5 -123.5v-272q0 -80 35.5 -112.5t105.5 -32.5z" />
    <glyph glyph-name="colon" unicode=":" horiz-adv-x="368" 
d="M213 977q68 0 68 -68v-90q0 -67 -68 -67h-57q-32 0 -50 17.5t-18 49.5v90q0 32 18 50t50 18h57zM213 225q68 0 68 -67v-90q0 -68 -68 -68h-57q-32 0 -50 18t-18 50v90q0 32 18 49.5t50 17.5h57z" />
    <glyph glyph-name="semicolon" unicode=";" horiz-adv-x="368" 
d="M213 977q68 0 68 -68v-90q0 -67 -68 -67h-57q-32 0 -50 17.5t-18 49.5v90q0 32 18 50t50 18h57zM213 225q68 0 68 -67v-103q0 -139 -74 -266q-36 -51 -74 -31q-35 14 -2 78q41 83 47 164h-22q-32 0 -50 18t-18 50v90q0 32 18 49.5t50 17.5h57z" />
    <glyph glyph-name="less" unicode="&#x3c;" horiz-adv-x="860" 
d="M707 1081v49q0 42 -24.5 55.5t-59.5 -11.5l-455 -328q-43 -30 -43 -82v-66q0 -50 43 -82l455 -327q35 -26 59.5 -12.5t24.5 55.5v49q0 53 -43 80l-398 270l398 270q43 30 43 80z" />
    <glyph glyph-name="equal" unicode="=" horiz-adv-x="860" 
d="M696 977q32 0 50 -18t18 -50v-12q0 -32 -18 -50t-50 -18h-532q-32 0 -50 18t-18 50v12q0 32 18 50t50 18h532zM696 637q32 0 50 -18t18 -50v-12q0 -32 -18 -50t-50 -18h-532q-32 0 -50 18t-18 50v12q0 32 18 50t50 18h532z" />
    <glyph glyph-name="greater" unicode="&#x3e;" horiz-adv-x="860" 
d="M154 1081q0 -50 43 -80l397 -270l-397 -270q-43 -27 -43 -80v-49q0 -42 24.5 -55.5t59.5 12.5l454 327q43 32 43 82v66q0 52 -43 82l-454 328q-35 25 -59.5 11.5t-24.5 -55.5v-49z" />
    <glyph glyph-name="question" unicode="?" horiz-adv-x="782" 
d="M375 365q-32 0 -50 17.5t-18 49.5v135q0 75 31 138t100 126q92 80 92 166v133q0 88 -35.5 123t-107.5 35q-71 0 -104 -34.5t-33 -123.5v-135q0 -67 -70 -67h-47q-67 0 -67 67v160q0 154 79 224.5t244 70.5h4q165 0 244.5 -71t79.5 -224v-168q0 -38 -5 -69.5t-19 -59
t-23 -44t-32 -39t-30 -28.5t-33 -28q-58 -47 -87 -94t-29 -115v-78q0 -32 -18 -49.5t-50 -17.5h-16zM412 225q67 0 67 -67v-90q0 -68 -67 -68h-58q-32 0 -49.5 18t-17.5 50v90q0 67 67 67h58z" />
    <glyph glyph-name="at" unicode="@" horiz-adv-x="1280" 
d="M819 1450q169 0 262 -74t93 -229v-653q0 -155 -65 -229.5t-169 -74.5q-67 0 -107 27.5t-51 63.5q-10 -43 -66.5 -73t-119.5 -30h-4q-51 0 -96 19t-78 68.5t-33 121.5v504q0 100 63 154.5t146 54.5h4q59 0 105.5 -27t58.5 -67l16 41q18 40 64 40q51 0 51 -55v-633
q0 -96 70 -96q43 0 67.5 47.5t24.5 124.5v690q0 87 -57 130.5t-152 43.5h-412q-95 0 -152 -43.5t-57 -130.5v-991q0 -87 57 -130.5t152 -43.5h443q51 0 51 -51v-10q0 -50 -51 -50h-428q-343 0 -343 304v954q0 155 93 229t262 74h358zM748 424v430q0 59 -29.5 87t-79.5 28
t-79.5 -28t-29.5 -87v-430q0 -59 29.5 -87t79.5 -28t79.5 28t29.5 87z" />
    <glyph glyph-name="A" unicode="A" horiz-adv-x="868" 
d="M825 74q7 -35 -9 -54.5t-50 -19.5h-59q-62 0 -74 61l-49 277h-310l-49 -277q-9 -61 -71 -61h-52q-34 0 -49.5 19.5t-9.5 54.5l258 1298q12 62 74 62h114q62 0 74 -62zM305 500h250l-125 692z" />
    <glyph glyph-name="B" unicode="B" horiz-adv-x="903" 
d="M809 971q0 -85 -38.5 -150.5t-121.5 -75.5q90 -14 129 -76.5t39 -150.5v-235q0 -131 -91 -207t-253 -76h-291q-67 0 -67 68v1298q0 68 67 68h295q160 0 246 -75t86 -208v-180zM307 1266v-443h166q143 0 143 129v166q0 148 -143 148h-166zM625 530q0 129 -144 129h-174
v-491h174q144 0 144 147v215z" />
    <glyph glyph-name="C" unicode="C" horiz-adv-x="905" 
d="M739 578q68 0 68 -68v-223q0 -303 -348 -303h-4q-349 0 -349 303v860q0 152 91 227.5t258 75.5h4q167 0 257.5 -75.5t90.5 -227.5v-189q0 -67 -68 -67h-57q-32 0 -50 17.5t-18 49.5v152q0 91 -38.5 130.5t-118.5 39.5t-119 -39.5t-39 -130.5v-786q0 -91 39 -130.5
t119 -39.5t118.5 39.5t38.5 130.5v186q0 32 18 50t50 18h57z" />
    <glyph glyph-name="D" unicode="D" horiz-adv-x="923" 
d="M469 1434q167 0 257.5 -75t90.5 -229v-827q0 -154 -90 -228.5t-258 -74.5h-287q-67 0 -67 68v1298q0 68 67 68h287zM625 1094q0 92 -40.5 131t-123.5 39h-154v-1094h154q83 0 123.5 39t40.5 131v754z" />
    <glyph glyph-name="E" unicode="E" horiz-adv-x="780" 
d="M725 68q0 -68 -68 -68h-475q-67 0 -67 68v1298q0 68 67 68h469q68 0 68 -68v-35q0 -67 -68 -67h-344v-451h281q67 0 67 -68v-36q0 -68 -67 -68h-281v-471h350q68 0 68 -68v-34z" />
    <glyph glyph-name="F" unicode="F" horiz-adv-x="737" 
d="M182 0q-67 0 -67 68v1298q0 68 67 68h461q68 0 68 -68v-35q0 -67 -68 -67h-336v-461h273q67 0 67 -68v-37q0 -67 -67 -67h-273v-563q0 -32 -17.5 -50t-49.5 -18h-58z" />
    <glyph glyph-name="G" unicode="G" horiz-adv-x="921" 
d="M752 727q67 0 67 -68v-372q0 -303 -348 -303h-16q-349 0 -349 303v860q0 152 91 227.5t258 75.5h16q167 0 257.5 -75.5t90.5 -227.5v-131q0 -68 -67 -68h-58q-32 0 -49.5 18t-17.5 50v94q0 92 -40.5 131t-123.5 39t-123.5 -39t-40.5 -131v-786q0 -92 40.5 -131t123.5 -39
t123.5 39t40.5 131v239h-105q-67 0 -67 68v28q0 68 67 68h230z" />
    <glyph glyph-name="H" unicode="H" horiz-adv-x="952" 
d="M115 1366q0 68 67 68h58q32 0 49.5 -18t17.5 -50v-551h338v551q0 32 18 50t50 18h57q68 0 68 -68v-1298q0 -68 -68 -68h-57q-32 0 -50 18t-18 50v575h-338v-575q0 -32 -17.5 -50t-49.5 -18h-58q-67 0 -67 68v1298z" />
    <glyph glyph-name="I" unicode="I" horiz-adv-x="438" 
d="M315 68q0 -32 -17.5 -50t-49.5 -18h-58q-67 0 -67 68v1298q0 68 67 68h58q32 0 49.5 -18t17.5 -50v-1298z" />
    <glyph glyph-name="J" unicode="J" horiz-adv-x="571" 
d="M104 174q84 0 124 38.5t40 131.5v1022q0 32 18 50t50 18h57q68 0 68 -68v-1063q0 -303 -352 -303h-11q-32 0 -49.5 18t-17.5 50v38q0 32 17.5 50t49.5 18h6z" />
    <glyph glyph-name="K" unicode="K" horiz-adv-x="880" 
d="M848 78q11 -34 -5 -56t-52 -22h-58q-59 0 -76 55l-215 629l-135 -246v-370q0 -32 -17.5 -50t-49.5 -18h-58q-67 0 -67 68v1298q0 68 67 68h58q32 0 49.5 -18t17.5 -50v-623l305 639q21 52 78 52h68q40 0 54 -23t-5 -57l-250 -459z" />
    <glyph glyph-name="L" unicode="L" horiz-adv-x="724" 
d="M627 174q67 0 67 -68v-38q0 -68 -67 -68h-445q-67 0 -67 68v1298q0 68 67 68h58q32 0 49.5 -18t17.5 -50v-1192h320z" />
    <glyph glyph-name="M" unicode="M" horiz-adv-x="1218" 
d="M918 975l-240 -699q-14 -55 -72 -55q-57 0 -74 55l-237 699v-907q0 -32 -18 -50t-52 -18h-43q-67 0 -67 68v1298q0 68 67 68h58q59 0 77 -56l287 -835l291 835q18 56 76 56h65q68 0 68 -68v-1298q0 -68 -68 -68h-51q-32 0 -49.5 18t-17.5 50v907z" />
    <glyph glyph-name="N" unicode="N" horiz-adv-x="960" 
d="M293 68q0 -32 -18 -50t-50 -18h-43q-67 0 -67 68v1298q0 68 67 68h68q60 0 78 -56l340 -932v920q0 32 17.5 50t49.5 18h43q68 0 68 -68v-1298q0 -68 -68 -68h-59q-58 0 -76 55l-350 965v-952z" />
    <glyph glyph-name="O" unicode="O" horiz-adv-x="925" 
d="M106 1147q0 303 349 303h16q168 0 258 -74.5t90 -228.5v-860q0 -154 -90 -228.5t-258 -74.5h-16q-168 0 -258.5 74.5t-90.5 228.5v860zM299 324q0 -92 40.5 -131t123.5 -39t123.5 39t40.5 131v786q0 92 -40.5 131t-123.5 39t-123.5 -39t-40.5 -131v-786z" />
    <glyph glyph-name="P" unicode="P" horiz-adv-x="882" 
d="M473 1434q167 0 257.5 -75t90.5 -229v-256q0 -154 -90 -228.5t-258 -74.5h-166v-503q0 -32 -17.5 -50t-49.5 -18h-58q-67 0 -67 68v1298q0 68 67 68h291zM629 911v183q0 92 -40.5 131t-123.5 39h-158v-521h158q83 0 123.5 38.5t40.5 129.5z" />
    <glyph glyph-name="Q" unicode="Q" horiz-adv-x="925" 
d="M471 1450q168 0 258 -74.5t90 -228.5v-860q0 -134 -68.5 -208t-195.5 -89v-135q0 -68 -68 -68h-41q-67 0 -67 68v133q-273 32 -273 299v860q0 303 349 303h16zM627 324v786q0 92 -40.5 131t-123.5 39t-123.5 -39t-40.5 -131v-786q0 -92 40.5 -131t123.5 -39t123.5 39
t40.5 131z" />
    <glyph glyph-name="R" unicode="R" horiz-adv-x="923" 
d="M846 78q11 -34 -5.5 -56t-52.5 -22h-57q-59 0 -76 55l-180 533h-2h-166v-520q0 -32 -17.5 -50t-49.5 -18h-58q-67 0 -67 68v1298q0 68 67 68h291q167 0 257.5 -75t90.5 -229v-239q0 -207 -168 -275zM307 1264v-508h158q83 0 123.5 39t40.5 131v168q0 92 -40.5 131
t-123.5 39h-158z" />
    <glyph glyph-name="S" unicode="S" horiz-adv-x="856" 
d="M770 995q0 -67 -68 -67h-53q-67 0 -67 67v127q0 84 -39 122t-115 38t-115 -38t-39 -122v-98q0 -62 24 -94.5t89 -69.5l186 -102q102 -58 151.5 -119.5t49.5 -157.5v-198q0 -157 -87 -228t-255 -71h-4q-169 0 -255.5 70.5t-86.5 228.5v176q0 67 68 67h53q67 0 67 -67v-144
q0 -163 156 -163t156 163v113q0 63 -25 98.5t-90 71.5l-184 102q-108 62 -154.5 120.5t-46.5 154.5v180q0 149 92 222t248 73h4q156 0 248 -73t92 -222v-160z" />
    <glyph glyph-name="T" unicode="T" horiz-adv-x="729" 
d="M643 1434q68 0 68 -68v-35q0 -67 -68 -67h-182v-1196q0 -32 -18 -50t-50 -18h-57q-32 0 -50 18t-18 50v1196h-182q-68 0 -68 67v35q0 32 18 50t50 18h557z" />
    <glyph glyph-name="U" unicode="U" 
d="M739 1434q68 0 68 -68v-1079q0 -303 -344 -303h-8q-168 0 -256 72.5t-88 230.5v1079q0 68 67 68h58q32 0 49.5 -18t17.5 -50v-1042q0 -93 37 -131.5t119 -38.5q81 0 118 38.5t37 131.5v1042q0 32 18 50t50 18h57z" />
    <glyph glyph-name="V" unicode="V" horiz-adv-x="835" 
d="M733 1434q34 0 50.5 -19.5t9.5 -54.5l-258 -1299q-9 -61 -74 -61h-86q-65 0 -74 61l-258 1299q-6 35 9.5 54.5t49.5 19.5h60q65 0 74 -62l186 -1063l188 1063q9 62 72 62h51z" />
    <glyph glyph-name="W" unicode="W" horiz-adv-x="1314" 
d="M1208 1434q74 0 62 -72l-209 -1299q-9 -63 -72 -63h-57q-64 0 -76 61l-194 1006l-197 -1006q-12 -61 -74 -61h-65q-63 0 -72 63l-209 1299q-12 72 61 72h54q62 0 69 -64l140 -1026l194 1028q9 62 74 62h51q30 0 50 -16t24 -46l194 -1028l138 1026q10 64 71 64h43z" />
    <glyph glyph-name="X" unicode="X" horiz-adv-x="854" 
d="M717 1434q37 0 52 -22t1 -56l-229 -623l258 -655q14 -34 -0.5 -56t-50.5 -22h-62q-60 0 -78 55l-186 508l-180 -508q-17 -55 -78 -55h-55q-37 0 -52 22t-2 56l262 657l-241 621q-12 34 3 56t52 22h59q59 0 76 -56l164 -467l154 465q19 58 78 58h55z" />
    <glyph glyph-name="Y" unicode="Y" horiz-adv-x="847" 
d="M520 528v-460q0 -32 -17.5 -50t-49.5 -18h-58q-32 0 -49.5 18t-17.5 50v460l-275 830q-12 34 3.5 55t52.5 21h61q61 0 76 -60l180 -633l180 633q15 60 74 60h59q37 0 52.5 -21t3.5 -55z" />
    <glyph glyph-name="Z" unicode="Z" horiz-adv-x="755" 
d="M641 162q68 0 68 -68v-26q0 -68 -68 -68h-526q-32 0 -50 18t-18 50v24q0 41 14 84l431 1096h-353q-67 0 -67 67v27q0 32 17.5 50t49.5 18h488q67 0 67 -68v-25q0 -48 -14 -84l-430 -1095h391z" />
    <glyph glyph-name="bracketleft" unicode="[" horiz-adv-x="565" 
d="M299 1362v-1290h154q67 0 67 -68v-35q0 -67 -67 -67h-271q-67 0 -67 67v1495q0 68 67 68h271q67 0 67 -68v-34q0 -68 -67 -68h-154z" />
    <glyph glyph-name="backslash" unicode="\" horiz-adv-x="653" 
d="M90 1532h33q58 0 76 -57l422 -1498q9 -34 -7 -54.5t-51 -20.5h-33q-57 0 -75 57l-422 1497q-9 34 6.5 55t50.5 21z" />
    <glyph glyph-name="bracketright" unicode="]" horiz-adv-x="565" 
d="M266 1362h-153q-68 0 -68 68v34q0 68 68 68h270q68 0 68 -68v-1495q0 -67 -68 -67h-270q-68 0 -68 67v35q0 68 68 68h153v1290z" />
    <glyph glyph-name="asciicircum" unicode="^" horiz-adv-x="770" 
d="M145 729q59 0 76 55l164 476l164 -476q17 -55 76 -55h34q37 0 52 21.5t4 56.5l-211 573q-18 54 -76 54h-84q-60 0 -78 -54l-211 -573q-11 -35 4 -56.5t52 -21.5h34z" />
    <glyph glyph-name="underscore" unicode="_" horiz-adv-x="720" 
d="M664 -98q67 0 67 -68v-4q0 -68 -67 -68h-607q-67 0 -67 68v4q0 68 67 68h607z" />
    <glyph glyph-name="grave" unicode="`" horiz-adv-x="927" 
d="M408 1823q57 0 79 -49l78 -150q19 -34 10 -56t-40 -22h-23q-53 0 -82 39l-125 156q-28 34 -16 58t55 24h64z" />
    <glyph glyph-name="a" unicode="a" horiz-adv-x="868" 
d="M825 74q7 -35 -9 -54.5t-50 -19.5h-59q-62 0 -74 61l-49 277h-310l-49 -277q-9 -61 -71 -61h-52q-34 0 -49.5 19.5t-9.5 54.5l258 1298q12 62 74 62h114q62 0 74 -62zM305 500h250l-125 692z" />
    <glyph glyph-name="b" unicode="b" horiz-adv-x="903" 
d="M809 971q0 -85 -38.5 -150.5t-121.5 -75.5q90 -14 129 -76.5t39 -150.5v-235q0 -131 -91 -207t-253 -76h-291q-67 0 -67 68v1298q0 68 67 68h295q160 0 246 -75t86 -208v-180zM307 1266v-443h166q143 0 143 129v166q0 148 -143 148h-166zM625 530q0 129 -144 129h-174
v-491h174q144 0 144 147v215z" />
    <glyph glyph-name="c" unicode="c" horiz-adv-x="905" 
d="M739 578q68 0 68 -68v-223q0 -303 -348 -303h-4q-349 0 -349 303v860q0 152 91 227.5t258 75.5h4q167 0 257.5 -75.5t90.5 -227.5v-189q0 -67 -68 -67h-57q-32 0 -50 17.5t-18 49.5v152q0 91 -38.5 130.5t-118.5 39.5t-119 -39.5t-39 -130.5v-786q0 -91 39 -130.5
t119 -39.5t118.5 39.5t38.5 130.5v186q0 32 18 50t50 18h57z" />
    <glyph glyph-name="d" unicode="d" horiz-adv-x="923" 
d="M469 1434q167 0 257.5 -75t90.5 -229v-827q0 -154 -90 -228.5t-258 -74.5h-287q-67 0 -67 68v1298q0 68 67 68h287zM625 1094q0 92 -40.5 131t-123.5 39h-154v-1094h154q83 0 123.5 39t40.5 131v754z" />
    <glyph glyph-name="e" unicode="e" horiz-adv-x="780" 
d="M725 68q0 -68 -68 -68h-475q-67 0 -67 68v1298q0 68 67 68h469q68 0 68 -68v-35q0 -67 -68 -67h-344v-451h281q67 0 67 -68v-36q0 -68 -67 -68h-281v-471h350q68 0 68 -68v-34z" />
    <glyph glyph-name="f" unicode="f" horiz-adv-x="737" 
d="M182 0q-67 0 -67 68v1298q0 68 67 68h461q68 0 68 -68v-35q0 -67 -68 -67h-336v-461h273q67 0 67 -68v-37q0 -67 -67 -67h-273v-563q0 -32 -17.5 -50t-49.5 -18h-58z" />
    <glyph glyph-name="g" unicode="g" horiz-adv-x="921" 
d="M752 727q67 0 67 -68v-372q0 -303 -348 -303h-16q-349 0 -349 303v860q0 152 91 227.5t258 75.5h16q167 0 257.5 -75.5t90.5 -227.5v-131q0 -68 -67 -68h-58q-32 0 -49.5 18t-17.5 50v94q0 92 -40.5 131t-123.5 39t-123.5 -39t-40.5 -131v-786q0 -92 40.5 -131t123.5 -39
t123.5 39t40.5 131v239h-105q-67 0 -67 68v28q0 68 67 68h230z" />
    <glyph glyph-name="h" unicode="h" horiz-adv-x="952" 
d="M115 1366q0 68 67 68h58q32 0 49.5 -18t17.5 -50v-551h338v551q0 32 18 50t50 18h57q68 0 68 -68v-1298q0 -68 -68 -68h-57q-32 0 -50 18t-18 50v575h-338v-575q0 -32 -17.5 -50t-49.5 -18h-58q-67 0 -67 68v1298z" />
    <glyph glyph-name="i" unicode="i" horiz-adv-x="438" 
d="M315 68q0 -32 -17.5 -50t-49.5 -18h-58q-67 0 -67 68v1298q0 68 67 68h58q32 0 49.5 -18t17.5 -50v-1298z" />
    <glyph glyph-name="j" unicode="j" horiz-adv-x="571" 
d="M104 174q84 0 124 38.5t40 131.5v1022q0 32 18 50t50 18h57q68 0 68 -68v-1063q0 -303 -352 -303h-11q-32 0 -49.5 18t-17.5 50v38q0 32 17.5 50t49.5 18h6z" />
    <glyph glyph-name="k" unicode="k" horiz-adv-x="880" 
d="M848 78q11 -34 -5 -56t-52 -22h-58q-59 0 -76 55l-215 629l-135 -246v-370q0 -32 -17.5 -50t-49.5 -18h-58q-67 0 -67 68v1298q0 68 67 68h58q32 0 49.5 -18t17.5 -50v-623l305 639q21 52 78 52h68q40 0 54 -23t-5 -57l-250 -459z" />
    <glyph glyph-name="l" unicode="l" horiz-adv-x="724" 
d="M627 174q67 0 67 -68v-38q0 -68 -67 -68h-445q-67 0 -67 68v1298q0 68 67 68h58q32 0 49.5 -18t17.5 -50v-1192h320z" />
    <glyph glyph-name="m" unicode="m" horiz-adv-x="1218" 
d="M918 975l-240 -699q-14 -55 -72 -55q-57 0 -74 55l-237 699v-907q0 -32 -18 -50t-52 -18h-43q-67 0 -67 68v1298q0 68 67 68h58q59 0 77 -56l287 -835l291 835q18 56 76 56h65q68 0 68 -68v-1298q0 -68 -68 -68h-51q-32 0 -49.5 18t-17.5 50v907z" />
    <glyph glyph-name="n" unicode="n" horiz-adv-x="960" 
d="M293 68q0 -32 -18 -50t-50 -18h-43q-67 0 -67 68v1298q0 68 67 68h68q60 0 78 -56l340 -932v920q0 32 17.5 50t49.5 18h43q68 0 68 -68v-1298q0 -68 -68 -68h-59q-58 0 -76 55l-350 965v-952z" />
    <glyph glyph-name="o" unicode="o" horiz-adv-x="925" 
d="M106 1147q0 303 349 303h16q168 0 258 -74.5t90 -228.5v-860q0 -154 -90 -228.5t-258 -74.5h-16q-168 0 -258.5 74.5t-90.5 228.5v860zM299 324q0 -92 40.5 -131t123.5 -39t123.5 39t40.5 131v786q0 92 -40.5 131t-123.5 39t-123.5 -39t-40.5 -131v-786z" />
    <glyph glyph-name="p" unicode="p" horiz-adv-x="882" 
d="M473 1434q167 0 257.5 -75t90.5 -229v-256q0 -154 -90 -228.5t-258 -74.5h-166v-503q0 -32 -17.5 -50t-49.5 -18h-58q-67 0 -67 68v1298q0 68 67 68h291zM629 911v183q0 92 -40.5 131t-123.5 39h-158v-521h158q83 0 123.5 38.5t40.5 129.5z" />
    <glyph glyph-name="q" unicode="q" horiz-adv-x="925" 
d="M471 1450q168 0 258 -74.5t90 -228.5v-860q0 -134 -68.5 -208t-195.5 -89v-135q0 -68 -68 -68h-41q-67 0 -67 68v133q-273 32 -273 299v860q0 303 349 303h16zM627 324v786q0 92 -40.5 131t-123.5 39t-123.5 -39t-40.5 -131v-786q0 -92 40.5 -131t123.5 -39t123.5 39
t40.5 131z" />
    <glyph glyph-name="r" unicode="r" horiz-adv-x="923" 
d="M846 78q11 -34 -5.5 -56t-52.5 -22h-57q-59 0 -76 55l-180 533h-2h-166v-520q0 -32 -17.5 -50t-49.5 -18h-58q-67 0 -67 68v1298q0 68 67 68h291q167 0 257.5 -75t90.5 -229v-239q0 -207 -168 -275zM307 1264v-508h158q83 0 123.5 39t40.5 131v168q0 92 -40.5 131
t-123.5 39h-158z" />
    <glyph glyph-name="s" unicode="s" horiz-adv-x="856" 
d="M770 995q0 -67 -68 -67h-53q-67 0 -67 67v127q0 84 -39 122t-115 38t-115 -38t-39 -122v-98q0 -62 24 -94.5t89 -69.5l186 -102q102 -58 151.5 -119.5t49.5 -157.5v-198q0 -157 -87 -228t-255 -71h-4q-169 0 -255.5 70.5t-86.5 228.5v176q0 67 68 67h53q67 0 67 -67v-144
q0 -163 156 -163t156 163v113q0 63 -25 98.5t-90 71.5l-184 102q-108 62 -154.5 120.5t-46.5 154.5v180q0 149 92 222t248 73h4q156 0 248 -73t92 -222v-160z" />
    <glyph glyph-name="t" unicode="t" horiz-adv-x="729" 
d="M643 1434q68 0 68 -68v-35q0 -67 -68 -67h-182v-1196q0 -32 -18 -50t-50 -18h-57q-32 0 -50 18t-18 50v1196h-182q-68 0 -68 67v35q0 32 18 50t50 18h557z" />
    <glyph glyph-name="u" unicode="u" 
d="M739 1434q68 0 68 -68v-1079q0 -303 -344 -303h-8q-168 0 -256 72.5t-88 230.5v1079q0 68 67 68h58q32 0 49.5 -18t17.5 -50v-1042q0 -93 37 -131.5t119 -38.5q81 0 118 38.5t37 131.5v1042q0 32 18 50t50 18h57z" />
    <glyph glyph-name="v" unicode="v" horiz-adv-x="835" 
d="M733 1434q34 0 50.5 -19.5t9.5 -54.5l-258 -1299q-9 -61 -74 -61h-86q-65 0 -74 61l-258 1299q-6 35 9.5 54.5t49.5 19.5h60q65 0 74 -62l186 -1063l188 1063q9 62 72 62h51z" />
    <glyph glyph-name="w" unicode="w" horiz-adv-x="1314" 
d="M1208 1434q74 0 62 -72l-209 -1299q-9 -63 -72 -63h-57q-64 0 -76 61l-194 1006l-197 -1006q-12 -61 -74 -61h-65q-63 0 -72 63l-209 1299q-12 72 61 72h54q62 0 69 -64l140 -1026l194 1028q9 62 74 62h51q30 0 50 -16t24 -46l194 -1028l138 1026q10 64 71 64h43z" />
    <glyph glyph-name="x" unicode="x" horiz-adv-x="854" 
d="M717 1434q37 0 52 -22t1 -56l-229 -623l258 -655q14 -34 -0.5 -56t-50.5 -22h-62q-60 0 -78 55l-186 508l-180 -508q-17 -55 -78 -55h-55q-37 0 -52 22t-2 56l262 657l-241 621q-12 34 3 56t52 22h59q59 0 76 -56l164 -467l154 465q19 58 78 58h55z" />
    <glyph glyph-name="y" unicode="y" horiz-adv-x="847" 
d="M520 528v-460q0 -32 -17.5 -50t-49.5 -18h-58q-32 0 -49.5 18t-17.5 50v460l-275 830q-12 34 3.5 55t52.5 21h61q61 0 76 -60l180 -633l180 633q15 60 74 60h59q37 0 52.5 -21t3.5 -55z" />
    <glyph glyph-name="z" unicode="z" horiz-adv-x="755" 
d="M641 162q68 0 68 -68v-26q0 -68 -68 -68h-526q-32 0 -50 18t-18 50v24q0 41 14 84l431 1096h-353q-67 0 -67 67v27q0 32 17.5 50t49.5 18h488q67 0 67 -68v-25q0 -48 -14 -84l-430 -1095h391z" />
    <glyph glyph-name="braceleft" unicode="{" horiz-adv-x="630" 
d="M528 1362q-81 0 -122 -38t-41 -132v-283q0 -73 -35 -117t-117 -67q82 -24 117 -67.5t35 -116.5v-299q0 -94 41 -132t122 -38q28 0 43 -18t15 -50v-35q0 -67 -58 -67q-348 0 -348 303v311q0 93 -82 119q-33 13 -47 29t-14 45v30q0 29 14 45t47 29q82 26 82 121v295
q0 303 348 303q28 0 43 -18t15 -50v-34q0 -32 -15 -50t-43 -18z" />
    <glyph glyph-name="bar" unicode="|" horiz-adv-x="487" 
d="M332 -137q0 -32 -18 -50t-50 -18h-41q-67 0 -67 68v1708q0 67 67 67h41q32 0 50 -17.5t18 -49.5v-1708z" />
    <glyph glyph-name="braceright" unicode="}" horiz-adv-x="630" 
d="M102 1362q-57 0 -57 68v34q0 68 57 68q349 0 349 -303v-295q0 -95 81 -121q33 -13 47.5 -29t14.5 -45v-30q0 -29 -14.5 -45t-47.5 -29q-81 -26 -81 -119v-311q0 -303 -349 -303q-57 0 -57 67v35q0 68 57 68q81 0 122.5 38t41.5 132v299q0 73 35 116.5t117 67.5
q-82 23 -117 67t-35 117v283q0 94 -41.5 132t-122.5 38z" />
    <glyph glyph-name="asciitilde" unicode="~" horiz-adv-x="811" 
d="M205 639q0 66 59 66q31 0 81.5 -29.5t108 -59.5t107.5 -30q75 0 128.5 57t53.5 166q0 45 -38 45h-64q-39 0 -39 -39v-4q0 -63 -55 -63q-25 0 -60.5 18.5t-67 40.5t-75.5 40.5t-84 18.5q-77 0 -134.5 -57t-57.5 -166q0 -45 38 -45h60q39 0 39 39v2z" />
    <glyph glyph-name="exclamdown" unicode="&#xa1;" horiz-adv-x="380" 
d="M219 1208h-57q-32 0 -50 18t-18 50v90q0 32 18 50t50 18h57q68 0 68 -68v-90q0 -68 -68 -68zM219 0h-57q-68 0 -68 68v153l23 789q0 67 67 67h13q64 0 67 -67l23 -791v-151q0 -68 -68 -68z" />
    <glyph glyph-name="cent" unicode="&#xa2;" horiz-adv-x="843" 
d="M653 850q-67 0 -67 68v22q0 91 -40.5 131.5t-121.5 40.5t-121.5 -40.5t-40.5 -131.5v-446q0 -91 40.5 -131.5t121.5 -40.5q162 0 162 172v57q0 67 67 67h54q67 0 67 -67v-94q0 -265 -262 -297v-92q0 -32 -18 -50t-50 -18h-38q-32 0 -50 18t-18 50v90q-129 18 -196.5 90
t-67.5 209v520q0 131 68.5 205t195.5 92v92q0 32 18 50t50 18h38q32 0 50 -18t18 -50v-92q127 -18 194.5 -92t67.5 -205v-59q0 -68 -67 -68h-54z" />
    <glyph glyph-name="sterling" unicode="&#xa3;" horiz-adv-x="843" 
d="M784 985q0 -67 -67 -67h-58q-67 0 -67 67v145q0 71 -25 110.5t-90 39.5q-64 0 -88 -39.5t-24 -110.5v-337h161q32 0 50 -18t18 -50v-20q0 -32 -18 -50t-50 -18h-161q0 -226 -25.5 -326.5t-103.5 -140.5h460q68 0 68 -68v-34q0 -68 -68 -68h-565q-62 0 -74 61l-10 54
q-6 28 3 47t32 39q55 47 72.5 141.5t17.5 294.5h-59q-32 0 -50 18t-18 50v20q0 32 18 50t50 18h59v354q0 303 303 303h4q305 0 305 -303v-162z" />
    <glyph glyph-name="yen" unicode="&#xa5;" horiz-adv-x="847" 
d="M739 1434q37 0 52.5 -21t3.5 -55l-224 -676h113q41 0 41 -41v-16q0 -43 -41 -43h-145l-19 -54v-65h164q41 0 41 -43v-17q0 -41 -41 -41h-164v-294q0 -32 -17.5 -50t-49.5 -18h-58q-32 0 -49.5 18t-17.5 50v294h-189q-41 0 -41 41v17q0 43 41 43h189v65l-19 54h-170
q-41 0 -41 43v16q0 41 41 41h137l-223 676q-12 34 3.5 55t52.5 21h61q61 0 76 -60l180 -633l180 633q15 60 74 60h59z" />
    <glyph glyph-name="brokenbar" unicode="&#xa6;" horiz-adv-x="487" 
d="M223 901q-67 0 -67 68v602q0 67 67 67h41q32 0 50 -17.5t18 -49.5v-602q0 -32 -18 -50t-50 -18h-41zM264 573q32 0 50 -17.5t18 -49.5v-643q0 -32 -18 -50t-50 -18h-41q-67 0 -67 68v643q0 67 67 67h41z" />
    <glyph glyph-name="section" unicode="&#xa7;" horiz-adv-x="860" 
d="M584 559v41q0 64 -45.5 109.5t-157.5 101.5q-79 39 -126.5 68.5t-89 67.5t-59.5 82t-18 101v107q0 149 92 222t248 73h4q156 0 248 -73t92 -222v-102q0 -68 -67 -68h-54q-67 0 -67 68v69q0 84 -38 122t-114 38q-77 0 -114 -37.5t-37 -122.5v-39q0 -64 41 -103t159 -97
q74 -36 123 -67t91 -70t61.5 -85.5t19.5 -103.5v-225q-48 80 -192 145zM281 797v-52q0 -62 40 -100.5t158 -97.5q151 -73 224 -146t73 -180v-123q0 -157 -87 -228t-255 -71h-4q-169 0 -255.5 70.5t-86.5 228.5v133q0 68 68 68h53q67 0 67 -68v-100q0 -164 154 -164t154 164
v51q0 64 -46 109.5t-161 103.5q-78 40 -124.5 69t-87.5 66.5t-59 82t-18 100.5v227q19 -31 56.5 -60.5t62.5 -43.5t74 -39z" />
    <glyph glyph-name="dieresis" unicode="&#xa8;" horiz-adv-x="901" 
d="M315 1751q32 0 50 -18t18 -50v-69q0 -32 -18 -50t-50 -18h-45q-69 0 -69 68v69q0 68 69 68h45zM631 1751q69 0 69 -68v-69q0 -68 -69 -68h-45q-32 0 -50 18t-18 50v69q0 32 18 50t50 18h45z" />
    <glyph glyph-name="copyright" unicode="&#xa9;" horiz-adv-x="1280" 
d="M819 1450q355 0 355 -303v-860q0 -303 -355 -303h-370q-168 0 -255.5 72.5t-87.5 230.5v860q0 303 355 303h358zM1057 1165q0 88 -56 131t-155 43h-412q-99 0 -155 -43t-56 -131v-897q0 -88 56 -131t155 -43h412q99 0 154.5 43t56.5 131v897zM836 623q59 0 59 -60v-139
q0 -104 -68.5 -156.5t-183.5 -52.5h-4q-116 0 -184 52t-68 157v586q0 100 69 154.5t183 54.5h4q114 0 183 -54.5t69 -154.5v-115q0 -59 -59 -59h-27q-59 0 -59 59v78q0 114 -109 114t-109 -114v-512q0 -115 109 -115t109 115v102q0 60 59 60h27z" />
    <glyph glyph-name="ordfeminine" unicode="&#xaa;" horiz-adv-x="466" 
d="M416 891q0 -15 -9 -24t-24 -9h-39q-14 0 -22.5 9t-8.5 24v14q-30 -49 -118 -49q-68 0 -106 39.5t-38 112.5v63q0 72 38.5 111t105.5 39q34 0 66 -12.5t46 -37.5v107q0 70 -61 70h-23q-61 0 -61 -70q0 -14 -9 -22.5t-22 -8.5h-39q-15 0 -24 9t-9 24v12q0 70 45 110t119 40
h31q72 0 117 -40.5t45 -109.5v-401zM307 1057q0 34 -17.5 51.5t-43.5 17.5h-25q-61 0 -61 -69v-41q0 -68 61 -68h25q26 0 43.5 17t17.5 51v41zM416 682q0 -14 -9 -22.5t-24 -8.5h-299q-15 0 -24 8.5t-9 22.5v31q0 32 33 32h299q33 0 33 -32v-31z" />
    <glyph glyph-name="guillemotleft" unicode="&#xab;" horiz-adv-x="806" 
d="M365 891q38 28 38 82v35q0 44 -24.5 55.5t-56.5 -19.5l-259 -233q-36 -33 -36 -82v-8q0 -49 36 -82l259 -233q32 -30 56.5 -22.5t24.5 46.5v47q0 52 -38 84l-185 164zM713 891q39 29 39 82v35q0 44 -25 55.5t-57 -19.5l-258 -233q-37 -34 -37 -82v-8q0 -48 37 -82
l258 -233q32 -30 57 -22.5t25 46.5v47q0 51 -39 84l-185 164z" />
    <glyph glyph-name="registered" unicode="&#xae;" horiz-adv-x="673" 
d="M430 1446q91 0 139.5 -44t48.5 -122v-440q0 -79 -48.5 -123.5t-139.5 -44.5h-190q-88 0 -136.5 44.5t-48.5 123.5v440q0 81 49 123.5t142 42.5h184zM547 829v461q0 42 -27 65t-78 23h-211q-50 0 -77 -23t-27 -65v-461q0 -42 27 -66t77 -24h211q50 0 76.5 24t28.5 66z
M410 1020l61 -180q9 -33 -25 -33h-16q-27 0 -33 24l-57 177h-51v-172q0 -13 -8.5 -21t-22.5 -8h-16q-29 0 -29 29v446q0 29 29 29h98q59 0 92 -27t33 -80v-90q0 -69 -55 -94zM289 1243v-170h49q51 0 51 53v66q0 51 -51 51h-49z" />
    <glyph glyph-name="macron" unicode="&#xaf;" horiz-adv-x="790" 
d="M627 1614q0 -32 -18 -50t-50 -18h-328q-32 0 -49.5 18t-17.5 50v20q0 32 17.5 50t49.5 18h328q32 0 50 -18t18 -50v-20z" />
    <glyph glyph-name="degree" unicode="&#xb0;" horiz-adv-x="565" 
d="M285 1450q116 0 180.5 -71.5t64.5 -198.5q0 -128 -65 -199.5t-180 -71.5q-118 0 -184 71.5t-66 199.5t66 199t184 71zM285 1348q-66 0 -104 -44.5t-38 -123.5t38 -124.5t104 -45.5q64 0 100.5 45t36.5 125q0 79 -36 123.5t-101 44.5z" />
    <glyph glyph-name="plusminus" unicode="&#xb1;" horiz-adv-x="860" 
d="M696 932q68 0 68 -68v-10q0 -68 -68 -68h-194v-192q0 -68 -68 -68h-10q-68 0 -68 68v192h-192q-68 0 -68 68v10q0 68 68 68h192v194q0 68 68 68h10q68 0 68 -68v-194h194zM696 420q68 0 68 -68v-10q0 -68 -68 -68h-532q-68 0 -68 68v10q0 68 68 68h532z" />
    <glyph glyph-name="acute" unicode="&#xb4;" horiz-adv-x="927" 
d="M442 1774q22 49 80 49h64q43 0 55.5 -24t-14.5 -58l-125 -156q-33 -39 -82 -39h-6q-38 0 -52 22t3 56z" />
    <glyph glyph-name="paragraph" unicode="&#xb6;" horiz-adv-x="1189" 
d="M1008 1434q32 0 49.5 -18t17.5 -50v-1298q0 -32 -17.5 -50t-49.5 -18h-58q-67 0 -67 68v1196h-115v-1196q0 -68 -68 -68h-57q-32 0 -50 18t-18 50v512h-165q-349 0 -349 303v247q0 154 90.5 229t258.5 75h598z" />
    <glyph glyph-name="periodcentered" unicode="&#xb7;" horiz-adv-x="368" 
d="M213 844q68 0 68 -68v-90q0 -68 -68 -68h-57q-32 0 -50 18t-18 50v90q0 32 18 50t50 18h57z" />
    <glyph glyph-name="cedilla" unicode="&#xb8;" horiz-adv-x="720" 
d="M477 0v-98q0 -100 -39 -140.5t-121 -40.5q-41 0 -75 9q-36 11 -45 53l-4 14q-8 26 3.5 42t39.5 16h36q33 0 45.5 11.5t12.5 43.5v90h147z" />
    <glyph glyph-name="ordmasculine" unicode="&#xba;" horiz-adv-x="477" 
d="M256 1442q74 0 122 -43.5t48 -126.5v-250q0 -83 -48 -126.5t-122 -43.5h-33q-77 0 -124.5 43.5t-47.5 126.5v250q0 83 47.5 126.5t124.5 43.5h33zM317 1257q0 91 -71 91h-17q-71 0 -71 -91v-221q0 -90 71 -90h17q71 0 71 90v221zM84 651q-15 0 -24 8.5t-9 22.5v31
q0 32 33 32h309q33 0 33 -32v-31q0 -14 -9 -22.5t-24 -8.5h-309z" />
    <glyph glyph-name="guillemotright" unicode="&#xbb;" horiz-adv-x="806" 
d="M94 891l185 -166l-185 -164q-39 -33 -39 -84v-47q0 -39 25 -46.5t57 22.5l258 233q37 34 37 82v8q0 48 -37 82l-258 233q-32 31 -57 19.5t-25 -55.5v-35q0 -53 39 -82zM442 891l185 -166l-185 -164q-39 -33 -39 -84v-47q0 -39 25 -46.5t57 22.5l258 233q37 34 37 82v8
q0 48 -37 82l-258 233q-32 31 -57 19.5t-25 -55.5v-35q0 -53 39 -82z" />
    <glyph glyph-name="onequarter" unicode="&#xbc;" horiz-adv-x="1038" 
d="M223 614q0 -49 -49 -49h-37q-49 0 -49 49v701q0 18 12 33q19 21 31 49q15 37 45 37h6q19 0 30 -11.5t11 -31.5v-777zM629 1397q14 37 53 37h12q26 0 36.5 -14.5t2.5 -39.5l-485 -1343q-14 -37 -53 -37h-13q-26 0 -36.5 14t-2.5 39zM836 868q49 0 49 -49v-497h16
q49 0 49 -50v-22q0 -49 -49 -49h-16v-152q0 -49 -49 -49h-37q-49 0 -49 49v152h-197q-49 0 -49 49v35q0 27 12 61l189 483q14 39 57 39h74zM750 672l-132 -350h132v350z" />
    <glyph glyph-name="onehalf" unicode="&#xbd;" horiz-adv-x="1075" 
d="M223 614q0 -49 -49 -49h-37q-49 0 -49 49v701q0 18 12 33q19 21 31 49q15 37 45 37h6q19 0 30 -11.5t11 -31.5v-777zM629 1397q14 37 53 37h12q26 0 36.5 -14.5t2.5 -39.5l-485 -1343q-14 -37 -53 -37h-13q-26 0 -36.5 14t-2.5 39zM627 543q-49 0 -49 49v100
q0 185 202 185h2q205 0 205 -185v-94q0 -23 -4 -43.5t-15 -40.5t-18.5 -33t-28 -33.5t-29 -28.5t-36 -32t-35.5 -31q-60 -54 -86 -91t-26 -72v-74h229q49 0 49 -49v-21q0 -49 -49 -49h-315q-50 0 -50 49v146q0 40 12 74.5t40.5 69.5t50.5 56.5t65 59.5q49 43 66.5 60t31 39
t13.5 46v76q0 43 -17.5 62.5t-56.5 19.5q-37 0 -53 -19.5t-16 -62.5v-84q0 -49 -50 -49h-32z" />
    <glyph glyph-name="threequarters" unicode="&#xbe;" horiz-adv-x="1265" 
d="M504 1151q0 -105 -64 -131q64 -26 64 -123v-149q0 -90 -49 -140.5t-144 -50.5h-30q-95 0 -144 50.5t-49 140.5v77q0 49 49 49h37q49 0 49 -49v-61q0 -86 68 -86h10q68 0 68 86v127q0 65 -64 65h-59q-49 0 -49 50v20q0 49 49 49h47q40 0 58 18.5t18 59.5v86q0 86 -68 86
h-12q-35 0 -51.5 -20t-16.5 -66v-41q0 -49 -49 -49h-35q-49 0 -49 49v57q0 191 203 191h10q203 0 203 -191v-104zM854 1397q14 37 53 37h13q26 0 36 -14.5t2 -39.5l-485 -1343q-14 -37 -53 -37h-12q-26 0 -36.5 14t-2.5 39zM1063 868q49 0 49 -49v-497h16q50 0 50 -50v-22
q0 -49 -50 -49h-16v-152q0 -49 -49 -49h-37q-49 0 -49 49v152h-197q-49 0 -49 49v35q0 23 10 61l191 483q12 39 57 39h74zM977 672l-131 -350h131v350z" />
    <glyph glyph-name="questiondown" unicode="&#xbf;" horiz-adv-x="782" 
d="M371 1208q-68 0 -68 68v90q0 68 68 68h57q32 0 50 -18t18 -50v-90q0 -32 -18 -50t-50 -18h-57zM408 1069q32 0 49.5 -18t17.5 -50v-135q0 -75 -31 -138t-100 -126q-92 -80 -92 -166v-133q0 -88 35.5 -123t107.5 -35q71 0 104 34.5t33 123.5v135q0 32 18 50t52 18h47
q68 0 68 -68v-159q0 -153 -79.5 -224t-244.5 -71h-4q-165 0 -244 70.5t-79 224.5v167q0 45 10 84t21 62.5t35 51.5t35.5 38t39.5 33q58 47 87.5 94t29.5 115v77q0 32 17.5 50t49.5 18h17z" />
    <glyph glyph-name="Agrave" unicode="&#xc0;" horiz-adv-x="868" 
d="M352 1585l-125 156q-28 34 -16 58t55 24h64q58 0 80 -49l77 -150q19 -34 10 -56t-40 -22h-23q-53 0 -82 39zM825 74q7 -35 -9 -54.5t-50 -19.5h-59q-62 0 -74 61l-49 277h-310l-49 -277q-9 -61 -71 -61h-52q-34 0 -49.5 19.5t-9.5 54.5l258 1298q12 62 74 62h114
q62 0 74 -62zM305 500h250l-125 692z" />
    <glyph glyph-name="Aacute" unicode="&#xc1;" horiz-adv-x="868" 
d="M428 1546q-38 0 -52 22t3 56l78 150q22 49 80 49h63q43 0 55.5 -24t-14.5 -58l-125 -156q-33 -39 -82 -39h-6zM825 74q7 -35 -9 -54.5t-50 -19.5h-59q-62 0 -74 61l-49 277h-310l-49 -277q-9 -61 -71 -61h-52q-34 0 -49.5 19.5t-9.5 54.5l258 1298q12 62 74 62h114
q62 0 74 -62zM305 500h250l-125 692z" />
    <glyph glyph-name="Acircumflex" unicode="&#xc2;" horiz-adv-x="868" 
d="M262 1546q-35 0 -45 24t12 58l95 148q26 47 79 47h58q56 0 80 -47l94 -148q22 -34 12 -58t-45 -24h-27q-54 0 -79 49l-64 105l-63 -105q-25 -49 -80 -49h-27zM825 74q7 -35 -9 -54.5t-50 -19.5h-59q-62 0 -74 61l-49 277h-310l-49 -277q-9 -61 -71 -61h-52
q-34 0 -49.5 19.5t-9.5 54.5l258 1298q12 62 74 62h114q62 0 74 -62zM305 500h250l-125 692z" />
    <glyph glyph-name="Atilde" unicode="&#xc3;" horiz-adv-x="868" 
d="M178 1554q-53 0 -53 56q0 95 52.5 144.5t123.5 49.5q41 0 78.5 -17.5t61 -38.5t52 -38.5t52.5 -17.5q59 0 59 67q0 37 53 37h29q53 0 53 -55q0 -96 -48.5 -145.5t-119.5 -49.5q-40 0 -79 17.5t-64.5 39t-55.5 39t-55 17.5q-59 0 -59 -68q0 -37 -53 -37h-27zM825 74
q7 -35 -9 -54.5t-50 -19.5h-59q-62 0 -74 61l-49 277h-310l-49 -277q-9 -61 -71 -61h-52q-34 0 -49.5 19.5t-9.5 54.5l258 1298q12 62 74 62h114q62 0 74 -62zM305 500h250l-125 692z" />
    <glyph glyph-name="Adieresis" unicode="&#xc4;" horiz-adv-x="868" 
d="M252 1546q-34 0 -52 18t-18 50v69q0 32 18 50t52 18h45q32 0 50 -18t18 -50v-69q0 -32 -18 -50t-50 -18h-45zM567 1546q-32 0 -49.5 18t-17.5 50v69q0 32 17.5 50t49.5 18h45q34 0 52 -18t18 -50v-69q0 -32 -18 -50t-52 -18h-45zM825 74q7 -35 -9 -54.5t-50 -19.5h-59
q-62 0 -74 61l-49 277h-310l-49 -277q-9 -61 -71 -61h-52q-34 0 -49.5 19.5t-9.5 54.5l258 1298q12 62 74 62h114q62 0 74 -62zM305 500h250l-125 692z" />
    <glyph glyph-name="Aring" unicode="&#xc5;" horiz-adv-x="868" 
d="M432 1534q-79 0 -126.5 42.5t-47.5 115.5t47.5 115t126.5 42q77 0 124.5 -42t47.5 -115t-47.5 -115.5t-124.5 -42.5zM432 1761q-32 0 -52 -18t-20 -51t20 -50.5t52 -17.5t51 17.5t19 50.5t-19 51t-51 18zM825 74q7 -35 -9 -54.5t-50 -19.5h-59q-62 0 -74 61l-49 277h-310
l-49 -277q-9 -61 -71 -61h-52q-34 0 -49.5 19.5t-9.5 54.5l258 1298q12 62 74 62h114q62 0 74 -62zM305 500h250l-125 692z" />
    <glyph glyph-name="AE" unicode="&#xc6;" horiz-adv-x="1275" 
d="M1153 170q68 0 68 -68v-34q0 -68 -68 -68h-475q-68 0 -68 68v268h-301l-82 -279q-15 -57 -75 -57h-56q-36 0 -51 21t-6 55l401 1302q18 56 78 56h629q67 0 67 -68v-35q0 -67 -67 -67h-344v-451h280q68 0 68 -68v-36q0 -68 -68 -68h-280v-471h350zM358 500h252v764h-24z
" />
    <glyph glyph-name="Ccedilla" unicode="&#xc7;" horiz-adv-x="905" 
d="M682 891q-32 0 -50 17.5t-18 49.5v152q0 91 -38.5 130.5t-118.5 39.5t-119 -39.5t-39 -130.5v-786q0 -91 39 -130.5t119 -39.5t118.5 39.5t38.5 130.5v186q0 32 18 50t50 18h57q68 0 68 -68v-223q0 -275 -285 -301v-84q0 -100 -39 -140.5t-121 -40.5q-40 0 -75 9
q-36 11 -45 53l-4 14q-8 26 3.5 42t39.5 16h36q33 0 45.5 11.5t12.5 43.5v78q-269 32 -269 299v860q0 152 91 227.5t258 75.5h4q167 0 257.5 -75.5t90.5 -227.5v-189q0 -67 -68 -67h-57z" />
    <glyph glyph-name="Egrave" unicode="&#xc8;" horiz-adv-x="780" 
d="M311 1823q58 0 80 -49l78 -150q18 -34 9 -56t-40 -22h-22q-53 0 -82 39l-125 156q-28 34 -16 58t55 24h63zM725 68q0 -68 -68 -68h-475q-67 0 -67 68v1298q0 68 67 68h469q68 0 68 -68v-35q0 -67 -68 -67h-344v-451h281q67 0 67 -68v-36q0 -68 -67 -68h-281v-471h350
q68 0 68 -68v-34z" />
    <glyph glyph-name="Eacute" unicode="&#xc9;" horiz-adv-x="780" 
d="M438 1774q22 49 80 49h64q43 0 55.5 -24t-14.5 -58l-125 -156q-33 -39 -82 -39h-6q-38 0 -52.5 22t2.5 56zM725 68q0 -68 -68 -68h-475q-67 0 -67 68v1298q0 68 67 68h469q68 0 68 -68v-35q0 -67 -68 -67h-344v-451h281q67 0 67 -68v-36q0 -68 -67 -68h-281v-471h350
q68 0 68 -68v-34z" />
    <glyph glyph-name="Ecircumflex" unicode="&#xca;" horiz-adv-x="780" 
d="M584 1546q35 0 44.5 24t-12.5 58l-94 148q-24 47 -80 47h-57q-54 0 -80 -47l-94 -148q-22 -34 -12 -58t45 -24h26q55 0 80 49l64 105l63 -105q25 -49 80 -49h27zM725 68q0 -68 -68 -68h-475q-67 0 -67 68v1298q0 68 67 68h469q68 0 68 -68v-35q0 -67 -68 -67h-344v-451
h281q67 0 67 -68v-36q0 -68 -67 -68h-281v-471h350q68 0 68 -68v-34z" />
    <glyph glyph-name="Edieresis" unicode="&#xcb;" horiz-adv-x="780" 
d="M279 1751q32 0 49.5 -18t17.5 -50v-69q0 -32 -17.5 -50t-49.5 -18h-46q-69 0 -69 68v69q0 68 69 68h46zM594 1751q34 0 52 -18t18 -50v-69q0 -32 -18 -50t-52 -18h-45q-32 0 -50 18t-18 50v69q0 32 18 50t50 18h45zM725 68q0 -68 -68 -68h-475q-67 0 -67 68v1298
q0 68 67 68h469q68 0 68 -68v-35q0 -67 -68 -67h-344v-451h281q67 0 67 -68v-36q0 -68 -67 -68h-281v-471h350q68 0 68 -68v-34z" />
    <glyph glyph-name="Igrave" unicode="&#xcc;" horiz-adv-x="438" 
d="M117 1823q58 0 80 -49l77 -150q19 -34 10 -56t-40 -22h-23q-53 0 -82 39l-125 156q-28 34 -16 58t55 24h64zM315 68q0 -32 -17.5 -50t-49.5 -18h-58q-67 0 -67 68v1298q0 68 67 68h58q32 0 49.5 -18t17.5 -50v-1298z" />
    <glyph glyph-name="Iacute" unicode="&#xcd;" horiz-adv-x="438" 
d="M244 1774q22 49 80 49h63q43 0 55.5 -24t-14.5 -58l-125 -156q-33 -39 -82 -39h-6q-38 0 -52 22t3 56zM315 68q0 -32 -17.5 -50t-49.5 -18h-58q-67 0 -67 68v1298q0 68 67 68h58q32 0 49.5 -18t17.5 -50v-1298z" />
    <glyph glyph-name="Icircumflex" unicode="&#xce;" horiz-adv-x="438" 
d="M389 1546q35 0 45 24t-12 58l-94 148q-24 47 -80 47h-58q-53 0 -79 -47l-95 -148q-22 -34 -12 -58t45 -24h27q55 0 80 49l63 105l64 -105q25 -49 79 -49h27zM315 68q0 -32 -17.5 -50t-49.5 -18h-58q-67 0 -67 68v1298q0 68 67 68h58q32 0 49.5 -18t17.5 -50v-1298z" />
    <glyph glyph-name="Idieresis" unicode="&#xcf;" horiz-adv-x="438" 
d="M84 1751q32 0 50 -18t18 -50v-69q0 -32 -18 -50t-50 -18h-45q-34 0 -52 18t-18 50v69q0 32 18 50t52 18h45zM399 1751q34 0 52 -18t18 -50v-69q0 -32 -18 -50t-52 -18h-45q-32 0 -49.5 18t-17.5 50v69q0 32 17.5 50t49.5 18h45zM315 68q0 -32 -17.5 -50t-49.5 -18h-58
q-67 0 -67 68v1298q0 68 67 68h58q32 0 49.5 -18t17.5 -50v-1298z" />
    <glyph glyph-name="Eth" unicode="&#xd0;" horiz-adv-x="944" 
d="M489 1434q168 0 258.5 -75t90.5 -229v-827q0 -154 -90.5 -228.5t-258.5 -74.5h-286q-68 0 -68 68v577h-33q-32 0 -49.5 18t-17.5 50v32q0 32 17.5 50t49.5 18h33v553q0 68 68 68h286zM645 340v754q0 92 -40.5 131t-123.5 39h-153v-451h125q32 0 49.5 -18t17.5 -50v-32
q0 -32 -17.5 -50t-49.5 -18h-125v-475h153q83 0 123.5 39t40.5 131z" />
    <glyph glyph-name="Ntilde" unicode="&#xd1;" horiz-adv-x="960" 
d="M311 1591q0 68 60 68q25 0 55 -17.5t55.5 -39t64.5 -39t79 -17.5q71 0 119.5 49.5t48.5 145.5q0 55 -54 55h-28q-54 0 -54 -37q0 -67 -59 -67q-24 0 -52.5 17.5t-52 38.5t-61 38.5t-78.5 17.5q-71 0 -123.5 -49.5t-52.5 -144.5q0 -56 53 -56h27q53 0 53 37zM293 68
q0 -32 -18 -50t-50 -18h-43q-67 0 -67 68v1298q0 68 67 68h68q60 0 78 -56l340 -932v920q0 32 17.5 50t49.5 18h43q68 0 68 -68v-1298q0 -68 -68 -68h-59q-58 0 -76 55l-350 965v-952z" />
    <glyph glyph-name="Ograve" unicode="&#xd2;" horiz-adv-x="925" 
d="M360 1823q58 0 80 -49l78 -150q18 -34 9 -56t-40 -22h-22q-53 0 -82 39l-125 156q-28 34 -16 58t55 24h63zM106 1147q0 303 349 303h16q168 0 258 -74.5t90 -228.5v-860q0 -154 -90 -228.5t-258 -74.5h-16q-168 0 -258.5 74.5t-90.5 228.5v860zM299 324q0 -92 40.5 -131
t123.5 -39t123.5 39t40.5 131v786q0 92 -40.5 131t-123.5 39t-123.5 -39t-40.5 -131v-786z" />
    <glyph glyph-name="Oacute" unicode="&#xd3;" horiz-adv-x="925" 
d="M487 1774q22 49 80 49h64q43 0 55.5 -24t-14.5 -58l-125 -156q-33 -39 -82 -39h-6q-38 0 -52 22t3 56zM106 1147q0 303 349 303h16q168 0 258 -74.5t90 -228.5v-860q0 -154 -90 -228.5t-258 -74.5h-16q-168 0 -258.5 74.5t-90.5 228.5v860zM299 324q0 -92 40.5 -131
t123.5 -39t123.5 39t40.5 131v786q0 92 -40.5 131t-123.5 39t-123.5 -39t-40.5 -131v-786z" />
    <glyph glyph-name="Ocircumflex" unicode="&#xd4;" horiz-adv-x="925" 
d="M633 1546q35 0 45 24t-12 58l-95 148q-24 47 -79 47h-58q-54 0 -80 -47l-94 -148q-22 -34 -12 -58t45 -24h26q55 0 80 49l64 105l63 -105q25 -49 80 -49h27zM106 1147q0 303 349 303h16q168 0 258 -74.5t90 -228.5v-860q0 -154 -90 -228.5t-258 -74.5h-16
q-168 0 -258.5 74.5t-90.5 228.5v860zM299 324q0 -92 40.5 -131t123.5 -39t123.5 39t40.5 131v786q0 92 -40.5 131t-123.5 39t-123.5 -39t-40.5 -131v-786z" />
    <glyph glyph-name="Otilde" unicode="&#xd5;" horiz-adv-x="925" 
d="M289 1591q0 68 59 68q25 0 55 -17.5t55.5 -39t64.5 -39t79 -17.5q71 0 119.5 49.5t48.5 145.5q0 55 -53 55h-29q-53 0 -53 -37q0 -31 -15 -49t-45 -18q-24 0 -52 17.5t-51.5 38.5t-61 38.5t-78.5 17.5q-71 0 -123.5 -49.5t-52.5 -144.5q0 -56 53 -56h27q53 0 53 37z
M106 1147q0 303 349 303h16q168 0 258 -74.5t90 -228.5v-860q0 -154 -90 -228.5t-258 -74.5h-16q-168 0 -258.5 74.5t-90.5 228.5v860zM299 324q0 -92 40.5 -131t123.5 -39t123.5 39t40.5 131v786q0 92 -40.5 131t-123.5 39t-123.5 -39t-40.5 -131v-786z" />
    <glyph glyph-name="Odieresis" unicode="&#xd6;" horiz-adv-x="925" 
d="M328 1751q32 0 49.5 -18t17.5 -50v-69q0 -32 -17.5 -50t-49.5 -18h-45q-34 0 -52 18t-18 50v69q0 32 18 50t52 18h45zM643 1751q34 0 52 -18t18 -50v-69q0 -32 -18 -50t-52 -18h-45q-32 0 -50 18t-18 50v69q0 32 18 50t50 18h45zM106 1147q0 303 349 303h16
q168 0 258 -74.5t90 -228.5v-860q0 -154 -90 -228.5t-258 -74.5h-16q-168 0 -258.5 74.5t-90.5 228.5v860zM299 324q0 -92 40.5 -131t123.5 -39t123.5 39t40.5 131v786q0 92 -40.5 131t-123.5 39t-123.5 -39t-40.5 -131v-786z" />
    <glyph glyph-name="multiply" unicode="&#xd7;" horiz-adv-x="860" 
d="M670 965q48 -45 -2 -95l-138 -135l138 -137q48 -48 2 -94l-8 -10q-49 -46 -97 2l-135 139l-137 -139q-45 -49 -94 0l-9 8q-46 46 0 94l140 137l-140 135q-46 49 0 95l9 10q49 46 94 -2l137 -139l135 139q48 51 97 2z" />
    <glyph glyph-name="Oslash" unicode="&#xd8;" horiz-adv-x="925" 
d="M471 1450q168 0 258 -74.5t90 -228.5v-860q0 -154 -90 -228.5t-258 -74.5h-16q-168 0 -258.5 74.5t-90.5 228.5v860q0 303 349 303h16zM299 1110v-786q0 -37 6 -64l227 1012q-27 8 -69 8q-83 0 -123.5 -39t-40.5 -131zM627 324v786q0 37 -6 64l-228 -1012q27 -8 70 -8
q83 0 123.5 39t40.5 131z" />
    <glyph glyph-name="Ugrave" unicode="&#xd9;" 
d="M356 1823q58 0 80 -49l78 -150q18 -34 9 -56t-40 -22h-22q-53 0 -82 39l-125 156q-28 34 -16 58t55 24h63zM739 1434q68 0 68 -68v-1079q0 -303 -344 -303h-8q-168 0 -256 72.5t-88 230.5v1079q0 68 67 68h58q32 0 49.5 -18t17.5 -50v-1042q0 -93 37 -131.5t119 -38.5
q81 0 118 38.5t37 131.5v1042q0 32 18 50t50 18h57z" />
    <glyph glyph-name="Uacute" unicode="&#xda;" 
d="M483 1774q22 49 80 49h64q43 0 55.5 -24t-14.5 -58l-125 -156q-33 -39 -82 -39h-6q-38 0 -52 22t3 56zM739 1434q68 0 68 -68v-1079q0 -303 -344 -303h-8q-168 0 -256 72.5t-88 230.5v1079q0 68 67 68h58q32 0 49.5 -18t17.5 -50v-1042q0 -93 37 -131.5t119 -38.5
q81 0 118 38.5t37 131.5v1042q0 32 18 50t50 18h57z" />
    <glyph glyph-name="Ucircumflex" unicode="&#xdb;" 
d="M629 1546q35 0 45 24t-12 58l-95 148q-24 47 -80 47h-57q-54 0 -80 -47l-94 -148q-22 -34 -12 -58t45 -24h26q55 0 80 49l64 105l63 -105q25 -49 80 -49h27zM739 1434q68 0 68 -68v-1079q0 -303 -344 -303h-8q-168 0 -256 72.5t-88 230.5v1079q0 68 67 68h58
q32 0 49.5 -18t17.5 -50v-1042q0 -93 37 -131.5t119 -38.5q81 0 118 38.5t37 131.5v1042q0 32 18 50t50 18h57z" />
    <glyph glyph-name="Udieresis" unicode="&#xdc;" 
d="M324 1751q32 0 49.5 -18t17.5 -50v-69q0 -32 -17.5 -50t-49.5 -18h-45q-34 0 -52 18t-18 50v69q0 32 18 50t52 18h45zM639 1751q34 0 52 -18t18 -50v-69q0 -32 -18 -50t-52 -18h-45q-32 0 -50 18t-18 50v69q0 32 18 50t50 18h45zM739 1434q68 0 68 -68v-1079
q0 -303 -344 -303h-8q-168 0 -256 72.5t-88 230.5v1079q0 68 67 68h58q32 0 49.5 -18t17.5 -50v-1042q0 -93 37 -131.5t119 -38.5q81 0 118 38.5t37 131.5v1042q0 32 18 50t50 18h57z" />
    <glyph glyph-name="Yacute" unicode="&#xdd;" horiz-adv-x="847" 
d="M449 1774q22 49 79 49h64q43 0 55.5 -24t-14.5 -58l-125 -156q-33 -39 -82 -39h-6q-38 0 -52 22t3 56zM520 528v-460q0 -32 -17.5 -50t-49.5 -18h-58q-32 0 -49.5 18t-17.5 50v460l-275 830q-12 34 3.5 55t52.5 21h61q61 0 76 -60l180 -633l180 633q15 60 74 60h59
q37 0 52.5 -21t3.5 -55z" />
    <glyph glyph-name="Thorn" unicode="&#xde;" horiz-adv-x="882" 
d="M473 1159q168 0 258 -74.5t90 -228.5v-256q0 -154 -90 -228.5t-258 -74.5h-166v-229q0 -32 -17.5 -50t-49.5 -18h-58q-67 0 -67 68v1298q0 68 67 68h58q32 0 49.5 -18t17.5 -50v-207h166zM629 637v182q0 92 -40.5 130t-123.5 38h-158v-518h158q83 0 123.5 38t40.5 130z
" />
    <glyph glyph-name="germandbls" unicode="&#xdf;" horiz-adv-x="1712" 
d="M770 995q0 -67 -68 -67h-53q-67 0 -67 67v127q0 84 -39 122t-115 38t-115 -38t-39 -122v-98q0 -62 24 -94.5t89 -69.5l186 -102q102 -58 151.5 -119.5t49.5 -157.5v-198q0 -157 -87 -228t-255 -71h-4q-169 0 -255.5 70.5t-86.5 228.5v176q0 67 68 67h53q67 0 67 -67v-144
q0 -163 156 -163t156 163v113q0 63 -25 98.5t-90 71.5l-184 102q-108 62 -154.5 120.5t-46.5 154.5v180q0 149 92 222t248 73h4q156 0 248 -73t92 -222v-160zM1626 995q0 -67 -67 -67h-54q-67 0 -67 67v127q0 84 -39 122t-115 38t-115 -38t-39 -122v-98q0 -62 24 -94.5
t89 -69.5l187 -102q102 -58 151 -119.5t49 -157.5v-198q0 -157 -87 -228t-255 -71h-4q-169 0 -255.5 70.5t-86.5 228.5v176q0 67 68 67h53q67 0 67 -67v-144q0 -163 156 -163t156 163v113q0 63 -25 98.5t-90 71.5l-184 102q-108 62 -154.5 120.5t-46.5 154.5v180
q0 149 92 222t248 73h4q156 0 248 -73t92 -222v-160z" />
    <glyph glyph-name="agrave" unicode="&#xe0;" horiz-adv-x="868" 
d="M352 1585l-125 156q-28 34 -16 58t55 24h64q58 0 80 -49l77 -150q19 -34 10 -56t-40 -22h-23q-53 0 -82 39zM825 74q7 -35 -9 -54.5t-50 -19.5h-59q-62 0 -74 61l-49 277h-310l-49 -277q-9 -61 -71 -61h-52q-34 0 -49.5 19.5t-9.5 54.5l258 1298q12 62 74 62h114
q62 0 74 -62zM305 500h250l-125 692z" />
    <glyph glyph-name="aacute" unicode="&#xe1;" horiz-adv-x="868" 
d="M428 1546q-38 0 -52 22t3 56l78 150q22 49 80 49h63q43 0 55.5 -24t-14.5 -58l-125 -156q-33 -39 -82 -39h-6zM825 74q7 -35 -9 -54.5t-50 -19.5h-59q-62 0 -74 61l-49 277h-310l-49 -277q-9 -61 -71 -61h-52q-34 0 -49.5 19.5t-9.5 54.5l258 1298q12 62 74 62h114
q62 0 74 -62zM305 500h250l-125 692z" />
    <glyph glyph-name="acircumflex" unicode="&#xe2;" horiz-adv-x="868" 
d="M262 1546q-35 0 -45 24t12 58l95 148q26 47 79 47h58q56 0 80 -47l94 -148q22 -34 12 -58t-45 -24h-27q-54 0 -79 49l-64 105l-63 -105q-25 -49 -80 -49h-27zM825 74q7 -35 -9 -54.5t-50 -19.5h-59q-62 0 -74 61l-49 277h-310l-49 -277q-9 -61 -71 -61h-52
q-34 0 -49.5 19.5t-9.5 54.5l258 1298q12 62 74 62h114q62 0 74 -62zM305 500h250l-125 692z" />
    <glyph glyph-name="atilde" unicode="&#xe3;" horiz-adv-x="868" 
d="M178 1554q-53 0 -53 56q0 95 52.5 144.5t123.5 49.5q41 0 78.5 -17.5t61 -38.5t52 -38.5t52.5 -17.5q59 0 59 67q0 37 53 37h29q53 0 53 -55q0 -96 -48.5 -145.5t-119.5 -49.5q-40 0 -79 17.5t-64.5 39t-55.5 39t-55 17.5q-59 0 -59 -68q0 -37 -53 -37h-27zM825 74
q7 -35 -9 -54.5t-50 -19.5h-59q-62 0 -74 61l-49 277h-310l-49 -277q-9 -61 -71 -61h-52q-34 0 -49.5 19.5t-9.5 54.5l258 1298q12 62 74 62h114q62 0 74 -62zM305 500h250l-125 692z" />
    <glyph glyph-name="adieresis" unicode="&#xe4;" horiz-adv-x="868" 
d="M252 1546q-34 0 -52 18t-18 50v69q0 32 18 50t52 18h45q32 0 50 -18t18 -50v-69q0 -32 -18 -50t-50 -18h-45zM567 1546q-32 0 -49.5 18t-17.5 50v69q0 32 17.5 50t49.5 18h45q34 0 52 -18t18 -50v-69q0 -32 -18 -50t-52 -18h-45zM825 74q7 -35 -9 -54.5t-50 -19.5h-59
q-62 0 -74 61l-49 277h-310l-49 -277q-9 -61 -71 -61h-52q-34 0 -49.5 19.5t-9.5 54.5l258 1298q12 62 74 62h114q62 0 74 -62zM305 500h250l-125 692z" />
    <glyph glyph-name="aring" unicode="&#xe5;" horiz-adv-x="868" 
d="M432 1534q-79 0 -126.5 42.5t-47.5 115.5t47.5 115t126.5 42q77 0 124.5 -42t47.5 -115t-47.5 -115.5t-124.5 -42.5zM432 1761q-32 0 -52 -18t-20 -51t20 -50.5t52 -17.5t51 17.5t19 50.5t-19 51t-51 18zM825 74q7 -35 -9 -54.5t-50 -19.5h-59q-62 0 -74 61l-49 277h-310
l-49 -277q-9 -61 -71 -61h-52q-34 0 -49.5 19.5t-9.5 54.5l258 1298q12 62 74 62h114q62 0 74 -62zM305 500h250l-125 692z" />
    <glyph glyph-name="ae" unicode="&#xe6;" horiz-adv-x="1275" 
d="M1153 170q68 0 68 -68v-34q0 -68 -68 -68h-475q-68 0 -68 68v268h-301l-82 -279q-15 -57 -75 -57h-56q-36 0 -51 21t-6 55l401 1302q18 56 78 56h629q67 0 67 -68v-35q0 -67 -67 -67h-344v-451h280q68 0 68 -68v-36q0 -68 -68 -68h-280v-471h350zM358 500h252v764h-24z
" />
    <glyph glyph-name="ccedilla" unicode="&#xe7;" horiz-adv-x="905" 
d="M682 891q-32 0 -50 17.5t-18 49.5v152q0 91 -38.5 130.5t-118.5 39.5t-119 -39.5t-39 -130.5v-786q0 -91 39 -130.5t119 -39.5t118.5 39.5t38.5 130.5v186q0 32 18 50t50 18h57q68 0 68 -68v-223q0 -275 -285 -301v-84q0 -100 -39 -140.5t-121 -40.5q-40 0 -75 9
q-36 11 -45 53l-4 14q-8 26 3.5 42t39.5 16h36q33 0 45.5 11.5t12.5 43.5v78q-269 32 -269 299v860q0 152 91 227.5t258 75.5h4q167 0 257.5 -75.5t90.5 -227.5v-189q0 -67 -68 -67h-57z" />
    <glyph glyph-name="egrave" unicode="&#xe8;" horiz-adv-x="780" 
d="M311 1823q58 0 80 -49l78 -150q18 -34 9 -56t-40 -22h-22q-53 0 -82 39l-125 156q-28 34 -16 58t55 24h63zM725 68q0 -68 -68 -68h-475q-67 0 -67 68v1298q0 68 67 68h469q68 0 68 -68v-35q0 -67 -68 -67h-344v-451h281q67 0 67 -68v-36q0 -68 -67 -68h-281v-471h350
q68 0 68 -68v-34z" />
    <glyph glyph-name="eacute" unicode="&#xe9;" horiz-adv-x="780" 
d="M438 1774q22 49 80 49h64q43 0 55.5 -24t-14.5 -58l-125 -156q-33 -39 -82 -39h-6q-38 0 -52.5 22t2.5 56zM725 68q0 -68 -68 -68h-475q-67 0 -67 68v1298q0 68 67 68h469q68 0 68 -68v-35q0 -67 -68 -67h-344v-451h281q67 0 67 -68v-36q0 -68 -67 -68h-281v-471h350
q68 0 68 -68v-34z" />
    <glyph glyph-name="ecircumflex" unicode="&#xea;" horiz-adv-x="780" 
d="M584 1546q35 0 44.5 24t-12.5 58l-94 148q-24 47 -80 47h-57q-54 0 -80 -47l-94 -148q-22 -34 -12 -58t45 -24h26q55 0 80 49l64 105l63 -105q25 -49 80 -49h27zM725 68q0 -68 -68 -68h-475q-67 0 -67 68v1298q0 68 67 68h469q68 0 68 -68v-35q0 -67 -68 -67h-344v-451
h281q67 0 67 -68v-36q0 -68 -67 -68h-281v-471h350q68 0 68 -68v-34z" />
    <glyph glyph-name="edieresis" unicode="&#xeb;" horiz-adv-x="780" 
d="M279 1751q32 0 49.5 -18t17.5 -50v-69q0 -32 -17.5 -50t-49.5 -18h-46q-69 0 -69 68v69q0 68 69 68h46zM594 1751q34 0 52 -18t18 -50v-69q0 -32 -18 -50t-52 -18h-45q-32 0 -50 18t-18 50v69q0 32 18 50t50 18h45zM725 68q0 -68 -68 -68h-475q-67 0 -67 68v1298
q0 68 67 68h469q68 0 68 -68v-35q0 -67 -68 -67h-344v-451h281q67 0 67 -68v-36q0 -68 -67 -68h-281v-471h350q68 0 68 -68v-34z" />
    <glyph glyph-name="igrave" unicode="&#xec;" horiz-adv-x="438" 
d="M117 1823q58 0 80 -49l77 -150q19 -34 10 -56t-40 -22h-23q-53 0 -82 39l-125 156q-28 34 -16 58t55 24h64zM315 68q0 -32 -17.5 -50t-49.5 -18h-58q-67 0 -67 68v1298q0 68 67 68h58q32 0 49.5 -18t17.5 -50v-1298z" />
    <glyph glyph-name="iacute" unicode="&#xed;" horiz-adv-x="438" 
d="M244 1774q22 49 80 49h63q43 0 55.5 -24t-14.5 -58l-125 -156q-33 -39 -82 -39h-6q-38 0 -52 22t3 56zM315 68q0 -32 -17.5 -50t-49.5 -18h-58q-67 0 -67 68v1298q0 68 67 68h58q32 0 49.5 -18t17.5 -50v-1298z" />
    <glyph glyph-name="icircumflex" unicode="&#xee;" horiz-adv-x="438" 
d="M389 1546q35 0 45 24t-12 58l-94 148q-24 47 -80 47h-58q-53 0 -79 -47l-95 -148q-22 -34 -12 -58t45 -24h27q55 0 80 49l63 105l64 -105q25 -49 79 -49h27zM315 68q0 -32 -17.5 -50t-49.5 -18h-58q-67 0 -67 68v1298q0 68 67 68h58q32 0 49.5 -18t17.5 -50v-1298z" />
    <glyph glyph-name="idieresis" unicode="&#xef;" horiz-adv-x="438" 
d="M84 1751q32 0 50 -18t18 -50v-69q0 -32 -18 -50t-50 -18h-45q-34 0 -52 18t-18 50v69q0 32 18 50t52 18h45zM399 1751q34 0 52 -18t18 -50v-69q0 -32 -18 -50t-52 -18h-45q-32 0 -49.5 18t-17.5 50v69q0 32 17.5 50t49.5 18h45zM315 68q0 -32 -17.5 -50t-49.5 -18h-58
q-67 0 -67 68v1298q0 68 67 68h58q32 0 49.5 -18t17.5 -50v-1298z" />
    <glyph glyph-name="eth" unicode="&#xf0;" horiz-adv-x="944" 
d="M489 1434q168 0 258.5 -75t90.5 -229v-827q0 -154 -90.5 -228.5t-258.5 -74.5h-286q-68 0 -68 68v577h-33q-32 0 -49.5 18t-17.5 50v32q0 32 17.5 50t49.5 18h33v553q0 68 68 68h286zM645 340v754q0 92 -40.5 131t-123.5 39h-153v-451h125q32 0 49.5 -18t17.5 -50v-32
q0 -32 -17.5 -50t-49.5 -18h-125v-475h153q83 0 123.5 39t40.5 131z" />
    <glyph glyph-name="ntilde" unicode="&#xf1;" horiz-adv-x="960" 
d="M311 1591q0 68 60 68q25 0 55 -17.5t55.5 -39t64.5 -39t79 -17.5q71 0 119.5 49.5t48.5 145.5q0 55 -54 55h-28q-54 0 -54 -37q0 -67 -59 -67q-24 0 -52.5 17.5t-52 38.5t-61 38.5t-78.5 17.5q-71 0 -123.5 -49.5t-52.5 -144.5q0 -56 53 -56h27q53 0 53 37zM293 68
q0 -32 -18 -50t-50 -18h-43q-67 0 -67 68v1298q0 68 67 68h68q60 0 78 -56l340 -932v920q0 32 17.5 50t49.5 18h43q68 0 68 -68v-1298q0 -68 -68 -68h-59q-58 0 -76 55l-350 965v-952z" />
    <glyph glyph-name="ograve" unicode="&#xf2;" horiz-adv-x="925" 
d="M360 1823q58 0 80 -49l78 -150q18 -34 9 -56t-40 -22h-22q-53 0 -82 39l-125 156q-28 34 -16 58t55 24h63zM106 1147q0 303 349 303h16q168 0 258 -74.5t90 -228.5v-860q0 -154 -90 -228.5t-258 -74.5h-16q-168 0 -258.5 74.5t-90.5 228.5v860zM299 324q0 -92 40.5 -131
t123.5 -39t123.5 39t40.5 131v786q0 92 -40.5 131t-123.5 39t-123.5 -39t-40.5 -131v-786z" />
    <glyph glyph-name="oacute" unicode="&#xf3;" horiz-adv-x="925" 
d="M487 1774q22 49 80 49h64q43 0 55.5 -24t-14.5 -58l-125 -156q-33 -39 -82 -39h-6q-38 0 -52 22t3 56zM106 1147q0 303 349 303h16q168 0 258 -74.5t90 -228.5v-860q0 -154 -90 -228.5t-258 -74.5h-16q-168 0 -258.5 74.5t-90.5 228.5v860zM299 324q0 -92 40.5 -131
t123.5 -39t123.5 39t40.5 131v786q0 92 -40.5 131t-123.5 39t-123.5 -39t-40.5 -131v-786z" />
    <glyph glyph-name="ocircumflex" unicode="&#xf4;" horiz-adv-x="925" 
d="M633 1546q35 0 45 24t-12 58l-95 148q-24 47 -79 47h-58q-54 0 -80 -47l-94 -148q-22 -34 -12 -58t45 -24h26q55 0 80 49l64 105l63 -105q25 -49 80 -49h27zM106 1147q0 303 349 303h16q168 0 258 -74.5t90 -228.5v-860q0 -154 -90 -228.5t-258 -74.5h-16
q-168 0 -258.5 74.5t-90.5 228.5v860zM299 324q0 -92 40.5 -131t123.5 -39t123.5 39t40.5 131v786q0 92 -40.5 131t-123.5 39t-123.5 -39t-40.5 -131v-786z" />
    <glyph glyph-name="otilde" unicode="&#xf5;" horiz-adv-x="925" 
d="M289 1591q0 68 59 68q25 0 55 -17.5t55.5 -39t64.5 -39t79 -17.5q71 0 119.5 49.5t48.5 145.5q0 55 -53 55h-29q-53 0 -53 -37q0 -31 -15 -49t-45 -18q-24 0 -52 17.5t-51.5 38.5t-61 38.5t-78.5 17.5q-71 0 -123.5 -49.5t-52.5 -144.5q0 -56 53 -56h27q53 0 53 37z
M106 1147q0 303 349 303h16q168 0 258 -74.5t90 -228.5v-860q0 -154 -90 -228.5t-258 -74.5h-16q-168 0 -258.5 74.5t-90.5 228.5v860zM299 324q0 -92 40.5 -131t123.5 -39t123.5 39t40.5 131v786q0 92 -40.5 131t-123.5 39t-123.5 -39t-40.5 -131v-786z" />
    <glyph glyph-name="odieresis" unicode="&#xf6;" horiz-adv-x="925" 
d="M328 1751q32 0 49.5 -18t17.5 -50v-69q0 -32 -17.5 -50t-49.5 -18h-45q-34 0 -52 18t-18 50v69q0 32 18 50t52 18h45zM643 1751q34 0 52 -18t18 -50v-69q0 -32 -18 -50t-52 -18h-45q-32 0 -50 18t-18 50v69q0 32 18 50t50 18h45zM106 1147q0 303 349 303h16
q168 0 258 -74.5t90 -228.5v-860q0 -154 -90 -228.5t-258 -74.5h-16q-168 0 -258.5 74.5t-90.5 228.5v860zM299 324q0 -92 40.5 -131t123.5 -39t123.5 39t40.5 131v786q0 92 -40.5 131t-123.5 39t-123.5 -39t-40.5 -131v-786z" />
    <glyph glyph-name="divide" unicode="&#xf7;" horiz-adv-x="860" 
d="M453 1190q67 0 67 -68v-59q0 -68 -67 -68h-45q-68 0 -68 68v59q0 68 68 68h45zM696 807q68 0 68 -68v-10q0 -67 -68 -67h-532q-68 0 -68 67v10q0 68 68 68h532zM453 473q67 0 67 -67v-60q0 -67 -67 -67h-45q-68 0 -68 67v60q0 67 68 67h45z" />
    <glyph glyph-name="oslash" unicode="&#xf8;" horiz-adv-x="925" 
d="M471 1450q168 0 258 -74.5t90 -228.5v-860q0 -154 -90 -228.5t-258 -74.5h-16q-168 0 -258.5 74.5t-90.5 228.5v860q0 303 349 303h16zM299 1110v-786q0 -37 6 -64l227 1012q-27 8 -69 8q-83 0 -123.5 -39t-40.5 -131zM627 324v786q0 37 -6 64l-228 -1012q27 -8 70 -8
q83 0 123.5 39t40.5 131z" />
    <glyph glyph-name="ugrave" unicode="&#xf9;" 
d="M356 1823q58 0 80 -49l78 -150q18 -34 9 -56t-40 -22h-22q-53 0 -82 39l-125 156q-28 34 -16 58t55 24h63zM739 1434q68 0 68 -68v-1079q0 -303 -344 -303h-8q-168 0 -256 72.5t-88 230.5v1079q0 68 67 68h58q32 0 49.5 -18t17.5 -50v-1042q0 -93 37 -131.5t119 -38.5
q81 0 118 38.5t37 131.5v1042q0 32 18 50t50 18h57z" />
    <glyph glyph-name="uacute" unicode="&#xfa;" 
d="M483 1774q22 49 80 49h64q43 0 55.5 -24t-14.5 -58l-125 -156q-33 -39 -82 -39h-6q-38 0 -52 22t3 56zM739 1434q68 0 68 -68v-1079q0 -303 -344 -303h-8q-168 0 -256 72.5t-88 230.5v1079q0 68 67 68h58q32 0 49.5 -18t17.5 -50v-1042q0 -93 37 -131.5t119 -38.5
q81 0 118 38.5t37 131.5v1042q0 32 18 50t50 18h57z" />
    <glyph glyph-name="ucircumflex" unicode="&#xfb;" 
d="M629 1546q35 0 45 24t-12 58l-95 148q-24 47 -80 47h-57q-54 0 -80 -47l-94 -148q-22 -34 -12 -58t45 -24h26q55 0 80 49l64 105l63 -105q25 -49 80 -49h27zM739 1434q68 0 68 -68v-1079q0 -303 -344 -303h-8q-168 0 -256 72.5t-88 230.5v1079q0 68 67 68h58
q32 0 49.5 -18t17.5 -50v-1042q0 -93 37 -131.5t119 -38.5q81 0 118 38.5t37 131.5v1042q0 32 18 50t50 18h57z" />
    <glyph glyph-name="udieresis" unicode="&#xfc;" 
d="M324 1751q32 0 49.5 -18t17.5 -50v-69q0 -32 -17.5 -50t-49.5 -18h-45q-34 0 -52 18t-18 50v69q0 32 18 50t52 18h45zM639 1751q34 0 52 -18t18 -50v-69q0 -32 -18 -50t-52 -18h-45q-32 0 -50 18t-18 50v69q0 32 18 50t50 18h45zM739 1434q68 0 68 -68v-1079
q0 -303 -344 -303h-8q-168 0 -256 72.5t-88 230.5v1079q0 68 67 68h58q32 0 49.5 -18t17.5 -50v-1042q0 -93 37 -131.5t119 -38.5q81 0 118 38.5t37 131.5v1042q0 32 18 50t50 18h57z" />
    <glyph glyph-name="yacute" unicode="&#xfd;" horiz-adv-x="847" 
d="M449 1774q22 49 79 49h64q43 0 55.5 -24t-14.5 -58l-125 -156q-33 -39 -82 -39h-6q-38 0 -52 22t3 56zM520 528v-460q0 -32 -17.5 -50t-49.5 -18h-58q-32 0 -49.5 18t-17.5 50v460l-275 830q-12 34 3.5 55t52.5 21h61q61 0 76 -60l180 -633l180 633q15 60 74 60h59
q37 0 52.5 -21t3.5 -55z" />
    <glyph glyph-name="thorn" unicode="&#xfe;" horiz-adv-x="882" 
d="M473 1159q168 0 258 -74.5t90 -228.5v-256q0 -154 -90 -228.5t-258 -74.5h-166v-229q0 -32 -17.5 -50t-49.5 -18h-58q-67 0 -67 68v1298q0 68 67 68h58q32 0 49.5 -18t17.5 -50v-207h166zM629 637v182q0 92 -40.5 130t-123.5 38h-158v-518h158q83 0 123.5 38t40.5 130z
" />
    <glyph glyph-name="ydieresis" unicode="&#xff;" horiz-adv-x="847" 
d="M289 1751q32 0 49.5 -18t17.5 -50v-69q0 -32 -17.5 -50t-49.5 -18h-45q-34 0 -52 18t-18 50v69q0 32 18 50t52 18h45zM604 1751q34 0 52 -18t18 -50v-69q0 -32 -18 -50t-52 -18h-45q-32 0 -49.5 18t-17.5 50v69q0 32 17.5 50t49.5 18h45zM520 528v-460q0 -32 -17.5 -50
t-49.5 -18h-58q-32 0 -49.5 18t-17.5 50v460l-275 830q-12 34 3.5 55t52.5 21h61q61 0 76 -60l180 -633l180 633q15 60 74 60h59q37 0 52.5 -21t3.5 -55z" />
    <glyph glyph-name="Amacron" unicode="&#x100;" horiz-adv-x="868" 
d="M268 1546q-32 0 -49.5 18t-17.5 50v20q0 32 17.5 50t49.5 18h328q32 0 50 -18t18 -50v-20q0 -32 -18 -50t-50 -18h-328zM825 74q7 -35 -9 -54.5t-50 -19.5h-59q-62 0 -74 61l-49 277h-310l-49 -277q-9 -61 -71 -61h-52q-34 0 -49.5 19.5t-9.5 54.5l258 1298q12 62 74 62
h114q62 0 74 -62zM305 500h250l-125 692z" />
    <glyph glyph-name="amacron" unicode="&#x101;" horiz-adv-x="868" 
d="M268 1546q-32 0 -49.5 18t-17.5 50v20q0 32 17.5 50t49.5 18h328q32 0 50 -18t18 -50v-20q0 -32 -18 -50t-50 -18h-328zM825 74q7 -35 -9 -54.5t-50 -19.5h-59q-62 0 -74 61l-49 277h-310l-49 -277q-9 -61 -71 -61h-52q-34 0 -49.5 19.5t-9.5 54.5l258 1298q12 62 74 62
h114q62 0 74 -62zM305 500h250l-125 692z" />
    <glyph glyph-name="Abreve" unicode="&#x102;" horiz-adv-x="868" 
d="M420 1544q-98 0 -152.5 40.5t-54.5 121.5v37q0 61 61 61h23q61 0 61 -61v-8q0 -70 70 -70h8q70 0 70 70v8q0 61 61 61h23q61 0 61 -61v-39q0 -80 -54.5 -120t-152.5 -40h-24zM825 74q7 -35 -9 -54.5t-50 -19.5h-59q-62 0 -74 61l-49 277h-310l-49 -277q-9 -61 -71 -61
h-52q-34 0 -49.5 19.5t-9.5 54.5l258 1298q12 62 74 62h114q62 0 74 -62zM305 500h250l-125 692z" />
    <glyph glyph-name="abreve" unicode="&#x103;" horiz-adv-x="868" 
d="M420 1544q-98 0 -152.5 40.5t-54.5 121.5v37q0 61 61 61h23q61 0 61 -61v-8q0 -70 70 -70h8q70 0 70 70v8q0 61 61 61h23q61 0 61 -61v-39q0 -80 -54.5 -120t-152.5 -40h-24zM825 74q7 -35 -9 -54.5t-50 -19.5h-59q-62 0 -74 61l-49 277h-310l-49 -277q-9 -61 -71 -61
h-52q-34 0 -49.5 19.5t-9.5 54.5l258 1298q12 62 74 62h114q62 0 74 -62zM305 500h250l-125 692z" />
    <glyph glyph-name="Aogonek" unicode="&#x104;" horiz-adv-x="868" 
d="M764 0q-80 -37 -101 -102q-17 -55 18 -85q20 -16 50 -16h14q21 3 31 -2.5t10 -23.5v-29q0 -30 -22 -45q-45 -23 -94 -23q-61 0 -102 37t-50.5 89.5t23.5 115.5t108 109q-13 13 -16 36l-49 277h-310l-49 -277q-9 -61 -71 -61h-52q-34 0 -49.5 19.5t-9.5 54.5l258 1298
q12 62 74 62h114q62 0 74 -62l262 -1298q7 -35 -9 -54.5t-50 -19.5h-2zM305 500h250l-125 692z" />
    <glyph glyph-name="aogonek" unicode="&#x105;" horiz-adv-x="868" 
d="M764 0q-80 -37 -101 -102q-17 -55 18 -85q20 -16 50 -16h14q21 3 31 -2.5t10 -23.5v-29q0 -30 -22 -45q-45 -23 -94 -23q-61 0 -102 37t-50.5 89.5t23.5 115.5t108 109q-13 13 -16 36l-49 277h-310l-49 -277q-9 -61 -71 -61h-52q-34 0 -49.5 19.5t-9.5 54.5l258 1298
q12 62 74 62h114q62 0 74 -62l262 -1298q7 -35 -9 -54.5t-50 -19.5h-2zM305 500h250l-125 692z" />
    <glyph glyph-name="Cacute" unicode="&#x106;" horiz-adv-x="905" 
d="M481 1774q22 49 80 49h64q43 0 55.5 -24t-14.5 -58l-125 -156q-33 -39 -82 -39h-6q-38 0 -52.5 22t2.5 56zM739 578q68 0 68 -68v-223q0 -303 -348 -303h-4q-349 0 -349 303v860q0 152 91 227.5t258 75.5h4q167 0 257.5 -75.5t90.5 -227.5v-189q0 -67 -68 -67h-57
q-32 0 -50 17.5t-18 49.5v152q0 91 -38.5 130.5t-118.5 39.5t-119 -39.5t-39 -130.5v-786q0 -91 39 -130.5t119 -39.5t118.5 39.5t38.5 130.5v186q0 32 18 50t50 18h57z" />
    <glyph glyph-name="cacute" unicode="&#x107;" horiz-adv-x="905" 
d="M481 1774q22 49 80 49h64q43 0 55.5 -24t-14.5 -58l-125 -156q-33 -39 -82 -39h-6q-38 0 -52.5 22t2.5 56zM739 578q68 0 68 -68v-223q0 -303 -348 -303h-4q-349 0 -349 303v860q0 152 91 227.5t258 75.5h4q167 0 257.5 -75.5t90.5 -227.5v-189q0 -67 -68 -67h-57
q-32 0 -50 17.5t-18 49.5v152q0 91 -38.5 130.5t-118.5 39.5t-119 -39.5t-39 -130.5v-786q0 -91 39 -130.5t119 -39.5t118.5 39.5t38.5 130.5v186q0 32 18 50t50 18h57z" />
    <glyph glyph-name="Cdotaccent" unicode="&#x10a;" horiz-adv-x="905" 
d="M479 1751q68 0 68 -68v-69q0 -68 -68 -68h-45q-67 0 -67 68v69q0 68 67 68h45zM739 578q68 0 68 -68v-223q0 -303 -348 -303h-4q-349 0 -349 303v860q0 152 91 227.5t258 75.5h4q167 0 257.5 -75.5t90.5 -227.5v-189q0 -67 -68 -67h-57q-32 0 -50 17.5t-18 49.5v152
q0 91 -38.5 130.5t-118.5 39.5t-119 -39.5t-39 -130.5v-786q0 -91 39 -130.5t119 -39.5t118.5 39.5t38.5 130.5v186q0 32 18 50t50 18h57z" />
    <glyph glyph-name="cdotaccent" unicode="&#x10b;" horiz-adv-x="905" 
d="M479 1751q68 0 68 -68v-69q0 -68 -68 -68h-45q-67 0 -67 68v69q0 68 67 68h45zM739 578q68 0 68 -68v-223q0 -303 -348 -303h-4q-349 0 -349 303v860q0 152 91 227.5t258 75.5h4q167 0 257.5 -75.5t90.5 -227.5v-189q0 -67 -68 -67h-57q-32 0 -50 17.5t-18 49.5v152
q0 91 -38.5 130.5t-118.5 39.5t-119 -39.5t-39 -130.5v-786q0 -91 39 -130.5t119 -39.5t118.5 39.5t38.5 130.5v186q0 32 18 50t50 18h57z" />
    <glyph glyph-name="Ccaron" unicode="&#x10c;" horiz-adv-x="905" 
d="M659 1741q22 34 12.5 58t-44.5 24h-27q-56 0 -80 -47l-63 -107l-66 107q-21 47 -78 47h-16q-39 0 -51.5 -24t8.5 -58l94 -148q26 -47 80 -47h55q56 0 82 47zM739 578q68 0 68 -68v-223q0 -303 -348 -303h-4q-349 0 -349 303v860q0 152 91 227.5t258 75.5h4
q167 0 257.5 -75.5t90.5 -227.5v-189q0 -67 -68 -67h-57q-32 0 -50 17.5t-18 49.5v152q0 91 -38.5 130.5t-118.5 39.5t-119 -39.5t-39 -130.5v-786q0 -91 39 -130.5t119 -39.5t118.5 39.5t38.5 130.5v186q0 32 18 50t50 18h57z" />
    <glyph glyph-name="ccaron" unicode="&#x10d;" horiz-adv-x="905" 
d="M659 1741q22 34 12.5 58t-44.5 24h-27q-56 0 -80 -47l-63 -107l-66 107q-21 47 -78 47h-16q-39 0 -51.5 -24t8.5 -58l94 -148q26 -47 80 -47h55q56 0 82 47zM739 578q68 0 68 -68v-223q0 -303 -348 -303h-4q-349 0 -349 303v860q0 152 91 227.5t258 75.5h4
q167 0 257.5 -75.5t90.5 -227.5v-189q0 -67 -68 -67h-57q-32 0 -50 17.5t-18 49.5v152q0 91 -38.5 130.5t-118.5 39.5t-119 -39.5t-39 -130.5v-786q0 -91 39 -130.5t119 -39.5t118.5 39.5t38.5 130.5v186q0 32 18 50t50 18h57z" />
    <glyph glyph-name="Dcaron" unicode="&#x10e;" horiz-adv-x="923" 
d="M653 1741q22 34 12.5 58t-44.5 24h-27q-56 0 -80 -47l-63 -107l-66 107q-21 47 -78 47h-16q-39 0 -51.5 -24t8.5 -58l94 -148q26 -47 80 -47h55q56 0 82 47zM469 1434q167 0 257.5 -75t90.5 -229v-827q0 -154 -90 -228.5t-258 -74.5h-287q-67 0 -67 68v1298q0 68 67 68
h287zM625 1094q0 92 -40.5 131t-123.5 39h-154v-1094h154q83 0 123.5 39t40.5 131v754z" />
    <glyph glyph-name="dcaron" unicode="&#x10f;" horiz-adv-x="923" 
d="M653 1741q22 34 12.5 58t-44.5 24h-27q-56 0 -80 -47l-63 -107l-66 107q-21 47 -78 47h-16q-39 0 -51.5 -24t8.5 -58l94 -148q26 -47 80 -47h55q56 0 82 47zM469 1434q167 0 257.5 -75t90.5 -229v-827q0 -154 -90 -228.5t-258 -74.5h-287q-67 0 -67 68v1298q0 68 67 68
h287zM625 1094q0 92 -40.5 131t-123.5 39h-154v-1094h154q83 0 123.5 39t40.5 131v754z" />
    <glyph glyph-name="Dcroat" unicode="&#x110;" horiz-adv-x="944" 
d="M489 1434q168 0 258.5 -75t90.5 -229v-827q0 -154 -90.5 -228.5t-258.5 -74.5h-286q-68 0 -68 68v577h-33q-32 0 -49.5 18t-17.5 50v32q0 32 17.5 50t49.5 18h33v553q0 68 68 68h286zM645 340v754q0 92 -40.5 131t-123.5 39h-153v-451h125q32 0 49.5 -18t17.5 -50v-32
q0 -32 -17.5 -50t-49.5 -18h-125v-475h153q83 0 123.5 39t40.5 131z" />
    <glyph glyph-name="dcroat" unicode="&#x111;" horiz-adv-x="944" 
d="M489 1434q168 0 258.5 -75t90.5 -229v-827q0 -154 -90.5 -228.5t-258.5 -74.5h-286q-68 0 -68 68v577h-33q-32 0 -49.5 18t-17.5 50v32q0 32 17.5 50t49.5 18h33v553q0 68 68 68h286zM645 340v754q0 92 -40.5 131t-123.5 39h-153v-451h125q32 0 49.5 -18t17.5 -50v-32
q0 -32 -17.5 -50t-49.5 -18h-125v-475h153q83 0 123.5 39t40.5 131z" />
    <glyph glyph-name="Emacron" unicode="&#x112;" horiz-adv-x="780" 
d="M645 1614q0 -32 -17.5 -50t-49.5 -18h-328q-32 0 -50 18t-18 50v20q0 32 18 50t50 18h328q32 0 49.5 -18t17.5 -50v-20zM725 68q0 -68 -68 -68h-475q-67 0 -67 68v1298q0 68 67 68h469q68 0 68 -68v-35q0 -67 -68 -67h-344v-451h281q67 0 67 -68v-36q0 -68 -67 -68h-281
v-471h350q68 0 68 -68v-34z" />
    <glyph glyph-name="emacron" unicode="&#x113;" horiz-adv-x="780" 
d="M645 1614q0 -32 -17.5 -50t-49.5 -18h-328q-32 0 -50 18t-18 50v20q0 32 18 50t50 18h328q32 0 49.5 -18t17.5 -50v-20zM725 68q0 -68 -68 -68h-475q-67 0 -67 68v1298q0 68 67 68h469q68 0 68 -68v-35q0 -67 -68 -67h-344v-451h281q67 0 67 -68v-36q0 -68 -67 -68h-281
v-471h350q68 0 68 -68v-34z" />
    <glyph glyph-name="Ebreve" unicode="&#x114;" horiz-adv-x="780" 
d="M571 1804q29 0 45.5 -16t16.5 -45v-39q0 -80 -54.5 -120t-152.5 -40h-25q-98 0 -152 40.5t-54 121.5v37q0 61 61 61h23q61 0 61 -61v-8q0 -70 70 -70h8q69 0 69 70v8q0 29 16.5 45t45.5 16h22zM725 68q0 -68 -68 -68h-475q-67 0 -67 68v1298q0 68 67 68h469q68 0 68 -68
v-35q0 -67 -68 -67h-344v-451h281q67 0 67 -68v-36q0 -68 -67 -68h-281v-471h350q68 0 68 -68v-34z" />
    <glyph glyph-name="ebreve" unicode="&#x115;" horiz-adv-x="780" 
d="M571 1804q29 0 45.5 -16t16.5 -45v-39q0 -80 -54.5 -120t-152.5 -40h-25q-98 0 -152 40.5t-54 121.5v37q0 61 61 61h23q61 0 61 -61v-8q0 -70 70 -70h8q69 0 69 70v8q0 29 16.5 45t45.5 16h22zM725 68q0 -68 -68 -68h-475q-67 0 -67 68v1298q0 68 67 68h469q68 0 68 -68
v-35q0 -67 -68 -67h-344v-451h281q67 0 67 -68v-36q0 -68 -67 -68h-281v-471h350q68 0 68 -68v-34z" />
    <glyph glyph-name="Edotaccent" unicode="&#x116;" horiz-adv-x="780" 
d="M436 1751q68 0 68 -68v-69q0 -68 -68 -68h-45q-67 0 -67 68v69q0 68 67 68h45zM725 68q0 -68 -68 -68h-475q-67 0 -67 68v1298q0 68 67 68h469q68 0 68 -68v-35q0 -67 -68 -67h-344v-451h281q67 0 67 -68v-36q0 -68 -67 -68h-281v-471h350q68 0 68 -68v-34z" />
    <glyph glyph-name="edotaccent" unicode="&#x117;" horiz-adv-x="780" 
d="M436 1751q68 0 68 -68v-69q0 -68 -68 -68h-45q-67 0 -67 68v69q0 68 67 68h45zM725 68q0 -68 -68 -68h-475q-67 0 -67 68v1298q0 68 67 68h469q68 0 68 -68v-35q0 -67 -68 -67h-344v-451h281q67 0 67 -68v-36q0 -68 -67 -68h-281v-471h350q68 0 68 -68v-34z" />
    <glyph glyph-name="Eogonek" unicode="&#x118;" horiz-adv-x="780" 
d="M657 170q68 0 68 -68v-34q0 -68 -68 -68q-80 -37 -100 -102q-17 -55 18 -85q20 -16 50 -16h14q21 3 31 -2.5t10 -23.5v-29q0 -30 -23 -45q-45 -23 -94 -23q-57 0 -97.5 33t-52.5 80.5t11.5 106.5t83.5 106h-326q-67 0 -67 68v1298q0 68 67 68h469q68 0 68 -68v-35
q0 -67 -68 -67h-344v-451h281q67 0 67 -68v-36q0 -68 -67 -68h-281v-471h350z" />
    <glyph glyph-name="eogonek" unicode="&#x119;" horiz-adv-x="780" 
d="M657 170q68 0 68 -68v-34q0 -68 -68 -68q-80 -37 -100 -102q-17 -55 18 -85q20 -16 50 -16h14q21 3 31 -2.5t10 -23.5v-29q0 -30 -23 -45q-45 -23 -94 -23q-57 0 -97.5 33t-52.5 80.5t11.5 106.5t83.5 106h-326q-67 0 -67 68v1298q0 68 67 68h469q68 0 68 -68v-35
q0 -67 -68 -67h-344v-451h281q67 0 67 -68v-36q0 -68 -67 -68h-281v-471h350z" />
    <glyph glyph-name="Ecaron" unicode="&#x11a;" horiz-adv-x="780" 
d="M616 1741q22 34 12.5 58t-44.5 24h-27q-56 0 -80 -47l-63 -107l-66 107q-21 47 -78 47h-16q-39 0 -51.5 -24t8.5 -58l94 -148q26 -47 80 -47h55q56 0 82 47zM725 68q0 -68 -68 -68h-475q-67 0 -67 68v1298q0 68 67 68h469q68 0 68 -68v-35q0 -67 -68 -67h-344v-451h281
q67 0 67 -68v-36q0 -68 -67 -68h-281v-471h350q68 0 68 -68v-34z" />
    <glyph glyph-name="ecaron" unicode="&#x11b;" horiz-adv-x="780" 
d="M616 1741q22 34 12.5 58t-44.5 24h-27q-56 0 -80 -47l-63 -107l-66 107q-21 47 -78 47h-16q-39 0 -51.5 -24t8.5 -58l94 -148q26 -47 80 -47h55q56 0 82 47zM725 68q0 -68 -68 -68h-475q-67 0 -67 68v1298q0 68 67 68h469q68 0 68 -68v-35q0 -67 -68 -67h-344v-451h281
q67 0 67 -68v-36q0 -68 -67 -68h-281v-471h350q68 0 68 -68v-34z" />
    <glyph glyph-name="Gbreve" unicode="&#x11e;" horiz-adv-x="921" 
d="M621 1804q61 0 61 -61v-39q0 -80 -54.5 -120t-152.5 -40h-24q-98 0 -152.5 40.5t-54.5 121.5v37q0 61 61 61h23q61 0 61 -61v-8q0 -70 70 -70h8q70 0 70 70v8q0 61 61 61h23zM752 727q67 0 67 -68v-372q0 -303 -348 -303h-16q-349 0 -349 303v860q0 152 91 227.5
t258 75.5h16q167 0 257.5 -75.5t90.5 -227.5v-131q0 -68 -67 -68h-58q-32 0 -49.5 18t-17.5 50v94q0 92 -40.5 131t-123.5 39t-123.5 -39t-40.5 -131v-786q0 -92 40.5 -131t123.5 -39t123.5 39t40.5 131v239h-105q-67 0 -67 68v28q0 68 67 68h230z" />
    <glyph glyph-name="gbreve" unicode="&#x11f;" horiz-adv-x="921" 
d="M621 1804q61 0 61 -61v-39q0 -80 -54.5 -120t-152.5 -40h-24q-98 0 -152.5 40.5t-54.5 121.5v37q0 61 61 61h23q61 0 61 -61v-8q0 -70 70 -70h8q70 0 70 70v8q0 61 61 61h23zM752 727q67 0 67 -68v-372q0 -303 -348 -303h-16q-349 0 -349 303v860q0 152 91 227.5
t258 75.5h16q167 0 257.5 -75.5t90.5 -227.5v-131q0 -68 -67 -68h-58q-32 0 -49.5 18t-17.5 50v94q0 92 -40.5 131t-123.5 39t-123.5 -39t-40.5 -131v-786q0 -92 40.5 -131t123.5 -39t123.5 39t40.5 131v239h-105q-67 0 -67 68v28q0 68 67 68h230z" />
    <glyph glyph-name="Gdotaccent" unicode="&#x120;" horiz-adv-x="921" 
d="M485 1751q68 0 68 -68v-69q0 -68 -68 -68h-45q-67 0 -67 68v69q0 68 67 68h45zM752 727q67 0 67 -68v-372q0 -303 -348 -303h-16q-349 0 -349 303v860q0 152 91 227.5t258 75.5h16q167 0 257.5 -75.5t90.5 -227.5v-131q0 -68 -67 -68h-58q-32 0 -49.5 18t-17.5 50v94
q0 92 -40.5 131t-123.5 39t-123.5 -39t-40.5 -131v-786q0 -92 40.5 -131t123.5 -39t123.5 39t40.5 131v239h-105q-67 0 -67 68v28q0 68 67 68h230z" />
    <glyph glyph-name="gdotaccent" unicode="&#x121;" horiz-adv-x="921" 
d="M485 1751q68 0 68 -68v-69q0 -68 -68 -68h-45q-67 0 -67 68v69q0 68 67 68h45zM752 727q67 0 67 -68v-372q0 -303 -348 -303h-16q-349 0 -349 303v860q0 152 91 227.5t258 75.5h16q167 0 257.5 -75.5t90.5 -227.5v-131q0 -68 -67 -68h-58q-32 0 -49.5 18t-17.5 50v94
q0 92 -40.5 131t-123.5 39t-123.5 -39t-40.5 -131v-786q0 -92 40.5 -131t123.5 -39t123.5 39t40.5 131v239h-105q-67 0 -67 68v28q0 68 67 68h230z" />
    <glyph glyph-name="Gcommaaccent" unicode="&#x122;" horiz-adv-x="921" 
d="M752 727q67 0 67 -68v-372q0 -303 -348 -303h-16q-349 0 -349 303v860q0 152 91 227.5t258 75.5h16q167 0 257.5 -75.5t90.5 -227.5v-131q0 -68 -67 -68h-58q-32 0 -49.5 18t-17.5 50v94q0 92 -40.5 131t-123.5 39t-123.5 -39t-40.5 -131v-786q0 -92 40.5 -131t123.5 -39
t123.5 39t40.5 131v239h-105q-67 0 -67 68v28q0 68 67 68h230zM487 -143q68 0 68 -68v-102q0 -140 -74 -267q-35 -50 -73 -30q-35 14 -2 78q41 83 47 163h-23q-32 0 -50 18t-18 50v90q0 32 18 50t50 18h57z" />
    <glyph glyph-name="gcommaaccent" unicode="&#x123;" horiz-adv-x="921" 
d="M752 727q67 0 67 -68v-372q0 -303 -348 -303h-16q-349 0 -349 303v860q0 152 91 227.5t258 75.5h16q167 0 257.5 -75.5t90.5 -227.5v-131q0 -68 -67 -68h-58q-32 0 -49.5 18t-17.5 50v94q0 92 -40.5 131t-123.5 39t-123.5 -39t-40.5 -131v-786q0 -92 40.5 -131t123.5 -39
t123.5 39t40.5 131v239h-105q-67 0 -67 68v28q0 68 67 68h230zM487 -143q68 0 68 -68v-102q0 -140 -74 -267q-35 -50 -73 -30q-35 14 -2 78q41 83 47 163h-23q-32 0 -50 18t-18 50v90q0 32 18 50t50 18h57z" />
    <glyph glyph-name="Hbar" unicode="&#x126;" horiz-adv-x="993" 
d="M926 1167q41 0 41 -41v-36q0 -41 -41 -41h-68v-981q0 -68 -67 -68h-58q-32 0 -49.5 18t-17.5 50v575h-338v-575q0 -32 -18 -50t-50 -18h-57q-68 0 -68 68v981h-67q-41 0 -41 41v36q0 41 41 41h67v199q0 68 68 68h57q32 0 50 -18t18 -50v-199h338v199q0 32 17.5 50
t49.5 18h58q67 0 67 -68v-199h68zM666 815v234h-338v-234h338z" />
    <glyph glyph-name="hbar" unicode="&#x127;" horiz-adv-x="993" 
d="M926 1167q41 0 41 -41v-36q0 -41 -41 -41h-68v-981q0 -68 -67 -68h-58q-32 0 -49.5 18t-17.5 50v575h-338v-575q0 -32 -18 -50t-50 -18h-57q-68 0 -68 68v981h-67q-41 0 -41 41v36q0 41 41 41h67v199q0 68 68 68h57q32 0 50 -18t18 -50v-199h338v199q0 32 17.5 50
t49.5 18h58q67 0 67 -68v-199h68zM666 815v234h-338v-234h338z" />
    <glyph glyph-name="Imacron" unicode="&#x12a;" horiz-adv-x="438" 
d="M451 1614q0 -32 -18 -50t-50 -18h-328q-32 0 -49.5 18t-17.5 50v20q0 32 17.5 50t49.5 18h328q32 0 50 -18t18 -50v-20zM315 68q0 -32 -17.5 -50t-49.5 -18h-58q-67 0 -67 68v1298q0 68 67 68h58q32 0 49.5 -18t17.5 -50v-1298z" />
    <glyph glyph-name="imacron" unicode="&#x12b;" horiz-adv-x="438" 
d="M451 1614q0 -32 -18 -50t-50 -18h-328q-32 0 -49.5 18t-17.5 50v20q0 32 17.5 50t49.5 18h328q32 0 50 -18t18 -50v-20zM315 68q0 -32 -17.5 -50t-49.5 -18h-58q-67 0 -67 68v1298q0 68 67 68h58q32 0 49.5 -18t17.5 -50v-1298z" />
    <glyph glyph-name="Ibreve" unicode="&#x12c;" horiz-adv-x="438" 
d="M377 1804q61 0 61 -61v-39q0 -80 -54.5 -120t-152.5 -40h-24q-98 0 -152.5 40.5t-54.5 121.5v37q0 61 61 61h23q61 0 61 -61v-8q0 -70 70 -70h8q70 0 70 70v8q0 61 61 61h23zM315 68q0 -32 -17.5 -50t-49.5 -18h-58q-67 0 -67 68v1298q0 68 67 68h58q32 0 49.5 -18
t17.5 -50v-1298z" />
    <glyph glyph-name="ibreve" unicode="&#x12d;" horiz-adv-x="438" 
d="M377 1804q61 0 61 -61v-39q0 -80 -54.5 -120t-152.5 -40h-24q-98 0 -152.5 40.5t-54.5 121.5v37q0 61 61 61h23q61 0 61 -61v-8q0 -70 70 -70h8q70 0 70 70v8q0 61 61 61h23zM315 68q0 -32 -17.5 -50t-49.5 -18h-58q-67 0 -67 68v1298q0 68 67 68h58q32 0 49.5 -18
t17.5 -50v-1298z" />
    <glyph glyph-name="Iogonek" unicode="&#x12e;" horiz-adv-x="438" 
d="M248 1434q32 0 49.5 -18t17.5 -50v-1298q0 -32 -17.5 -50t-49.5 -18h-2q-80 -37 -101 -102q-17 -55 18 -85q20 -16 50 -16h14q21 3 31 -2.5t10 -23.5v-29q0 -30 -22 -45q-45 -23 -94 -23t-86.5 24t-53 63.5t-12.5 85t37.5 94.5t95.5 86q-10 17 -10 41v1298q0 68 67 68h58
z" />
    <glyph glyph-name="iogonek" unicode="&#x12f;" horiz-adv-x="438" 
d="M248 1434q32 0 49.5 -18t17.5 -50v-1298q0 -32 -17.5 -50t-49.5 -18h-2q-80 -37 -101 -102q-17 -55 18 -85q20 -16 50 -16h14q21 3 31 -2.5t10 -23.5v-29q0 -30 -22 -45q-45 -23 -94 -23t-86.5 24t-53 63.5t-12.5 85t37.5 94.5t95.5 86q-10 17 -10 41v1298q0 68 67 68h58
z" />
    <glyph glyph-name="Idotaccent" unicode="&#x130;" horiz-adv-x="438" 
d="M242 1751q67 0 67 -68v-69q0 -68 -67 -68h-45q-68 0 -68 68v69q0 68 68 68h45zM315 68q0 -32 -17.5 -50t-49.5 -18h-58q-67 0 -67 68v1298q0 68 67 68h58q32 0 49.5 -18t17.5 -50v-1298z" />
    <glyph glyph-name="IJ" unicode="&#x132;" horiz-adv-x="786" 
d="M307 395q0 -67 -67 -67h-58q-67 0 -67 67v971q0 68 67 68h58q32 0 49.5 -18t17.5 -50v-971zM319 174q84 0 124 38.5t40 131.5v1022q0 32 18 50t50 18h57q68 0 68 -68v-1063q0 -303 -352 -303h-142q-67 0 -67 68v38q0 68 67 68h137z" />
    <glyph glyph-name="ij" unicode="&#x133;" horiz-adv-x="786" 
d="M307 395q0 -67 -67 -67h-58q-67 0 -67 67v971q0 68 67 68h58q32 0 49.5 -18t17.5 -50v-971zM319 174q84 0 124 38.5t40 131.5v1022q0 32 18 50t50 18h57q68 0 68 -68v-1063q0 -303 -352 -303h-142q-67 0 -67 68v38q0 68 67 68h137z" />
    <glyph glyph-name="Kcommaaccent" unicode="&#x136;" horiz-adv-x="880" 
d="M848 78q11 -34 -5 -56t-52 -22h-58q-59 0 -76 55l-215 629l-135 -246v-370q0 -32 -17.5 -50t-49.5 -18h-58q-67 0 -67 68v1298q0 68 67 68h58q32 0 49.5 -18t17.5 -50v-623l305 639q21 52 78 52h68q40 0 54 -23t-5 -57l-250 -459zM512 -143q68 0 68 -68v-102
q0 -140 -74 -267q-36 -50 -74 -30q-35 14 -2 78q41 83 47 163h-22q-32 0 -50 18t-18 50v90q0 32 18 50t50 18h57z" />
    <glyph glyph-name="kcommaaccent" unicode="&#x137;" horiz-adv-x="880" 
d="M848 78q11 -34 -5 -56t-52 -22h-58q-59 0 -76 55l-215 629l-135 -246v-370q0 -32 -17.5 -50t-49.5 -18h-58q-67 0 -67 68v1298q0 68 67 68h58q32 0 49.5 -18t17.5 -50v-623l305 639q21 52 78 52h68q40 0 54 -23t-5 -57l-250 -459zM512 -143q68 0 68 -68v-102
q0 -140 -74 -267q-36 -50 -74 -30q-35 14 -2 78q41 83 47 163h-22q-32 0 -50 18t-18 50v90q0 32 18 50t50 18h57z" />
    <glyph glyph-name="Lacute" unicode="&#x139;" horiz-adv-x="724" 
d="M246 1774q22 49 80 49h63q43 0 55.5 -24t-14.5 -58l-125 -156q-33 -39 -82 -39h-6q-38 0 -52 22t3 56zM627 174q67 0 67 -68v-38q0 -68 -67 -68h-445q-67 0 -67 68v1298q0 68 67 68h58q32 0 49.5 -18t17.5 -50v-1192h320z" />
    <glyph glyph-name="lacute" unicode="&#x13a;" horiz-adv-x="724" 
d="M246 1774q22 49 80 49h63q43 0 55.5 -24t-14.5 -58l-125 -156q-33 -39 -82 -39h-6q-38 0 -52 22t3 56zM627 174q67 0 67 -68v-38q0 -68 -67 -68h-445q-67 0 -67 68v1298q0 68 67 68h58q32 0 49.5 -18t17.5 -50v-1192h320z" />
    <glyph glyph-name="Lcommaaccent" unicode="&#x13b;" horiz-adv-x="724" 
d="M627 174q67 0 67 -68v-38q0 -68 -67 -68h-445q-67 0 -67 68v1298q0 68 67 68h58q32 0 49.5 -18t17.5 -50v-1192h320zM430 -143q68 0 68 -68v-102q0 -140 -74 -267q-36 -50 -74 -30q-35 14 -2 78q41 83 47 163h-22q-32 0 -50 18t-18 50v90q0 32 18 50t50 18h57z" />
    <glyph glyph-name="lcommaaccent" unicode="&#x13c;" horiz-adv-x="724" 
d="M627 174q67 0 67 -68v-38q0 -68 -67 -68h-445q-67 0 -67 68v1298q0 68 67 68h58q32 0 49.5 -18t17.5 -50v-1192h320zM430 -143q68 0 68 -68v-102q0 -140 -74 -267q-36 -50 -74 -30q-35 14 -2 78q41 83 47 163h-22q-32 0 -50 18t-18 50v90q0 32 18 50t50 18h57z" />
    <glyph glyph-name="Lcaron" unicode="&#x13d;" horiz-adv-x="724" 
d="M627 174q67 0 67 -68v-38q0 -68 -67 -68h-445q-67 0 -67 68v1298q0 68 67 68h58q32 0 49.5 -18t17.5 -50v-1192h320zM567 1434q68 0 68 -68v-102q0 -140 -74 -267q-36 -50 -74 -30q-34 14 -2 77q41 83 47 164h-22q-32 0 -50 18t-18 50v90q0 32 18 50t50 18h57z" />
    <glyph glyph-name="lcaron" unicode="&#x13e;" horiz-adv-x="724" 
d="M627 174q67 0 67 -68v-38q0 -68 -67 -68h-445q-67 0 -67 68v1298q0 68 67 68h58q32 0 49.5 -18t17.5 -50v-1192h320zM567 1434q68 0 68 -68v-102q0 -140 -74 -267q-36 -50 -74 -30q-34 14 -2 77q41 83 47 164h-22q-32 0 -50 18t-18 50v90q0 32 18 50t50 18h57z" />
    <glyph glyph-name="Ldot" unicode="&#x13f;" horiz-adv-x="731" 
d="M627 174q67 0 67 -68v-38q0 -68 -67 -68h-445q-67 0 -67 68v1298q0 68 67 68h58q32 0 49.5 -18t17.5 -50v-1192h320zM551 938q67 0 67 -68v-90q0 -67 -67 -67h-57q-32 0 -50 17.5t-18 49.5v90q0 32 18 50t50 18h57z" />
    <glyph glyph-name="ldot" unicode="&#x140;" horiz-adv-x="731" 
d="M627 174q67 0 67 -68v-38q0 -68 -67 -68h-445q-67 0 -67 68v1298q0 68 67 68h58q32 0 49.5 -18t17.5 -50v-1192h320zM551 938q67 0 67 -68v-90q0 -67 -67 -67h-57q-32 0 -50 17.5t-18 49.5v90q0 32 18 50t50 18h57z" />
    <glyph glyph-name="Lslash" unicode="&#x141;" horiz-adv-x="745" 
d="M647 174q68 0 68 -68v-38q0 -68 -68 -68h-444q-68 0 -68 68v563l-53 -27q-28 -13 -45 -2.5t-17 41.5v49q0 47 39 64l76 37v573q0 68 68 68h57q32 0 50 -18t18 -50v-479l157 78q28 12 45 1.5t17 -40.5v-52q0 -46 -39 -63l-180 -88v-549h319z" />
    <glyph glyph-name="lslash" unicode="&#x142;" horiz-adv-x="745" 
d="M647 174q68 0 68 -68v-38q0 -68 -68 -68h-444q-68 0 -68 68v563l-53 -27q-28 -13 -45 -2.5t-17 41.5v49q0 47 39 64l76 37v573q0 68 68 68h57q32 0 50 -18t18 -50v-479l157 78q28 12 45 1.5t17 -40.5v-52q0 -46 -39 -63l-180 -88v-549h319z" />
    <glyph glyph-name="Nacute" unicode="&#x143;" horiz-adv-x="960" 
d="M510 1774q22 49 80 49h63q43 0 55.5 -24t-14.5 -58l-125 -156q-33 -39 -82 -39h-6q-38 0 -52 22t3 56zM293 68q0 -32 -18 -50t-50 -18h-43q-67 0 -67 68v1298q0 68 67 68h68q60 0 78 -56l340 -932v920q0 32 17.5 50t49.5 18h43q68 0 68 -68v-1298q0 -68 -68 -68h-59
q-58 0 -76 55l-350 965v-952z" />
    <glyph glyph-name="nacute" unicode="&#x144;" horiz-adv-x="960" 
d="M510 1774q22 49 80 49h63q43 0 55.5 -24t-14.5 -58l-125 -156q-33 -39 -82 -39h-6q-38 0 -52 22t3 56zM293 68q0 -32 -18 -50t-50 -18h-43q-67 0 -67 68v1298q0 68 67 68h68q60 0 78 -56l340 -932v920q0 32 17.5 50t49.5 18h43q68 0 68 -68v-1298q0 -68 -68 -68h-59
q-58 0 -76 55l-350 965v-952z" />
    <glyph glyph-name="Ncommaaccent" unicode="&#x145;" horiz-adv-x="960" 
d="M293 68q0 -32 -18 -50t-50 -18h-43q-67 0 -67 68v1298q0 68 67 68h68q60 0 78 -56l340 -932v920q0 32 17.5 50t49.5 18h43q68 0 68 -68v-1298q0 -68 -68 -68h-59q-58 0 -76 55l-350 965v-952zM504 -143q67 0 67 -68v-102q0 -141 -73 -267q-36 -50 -74 -30q-35 14 -2 78
q41 83 47 163h-23q-32 0 -49.5 18t-17.5 50v90q0 32 17.5 50t49.5 18h58z" />
    <glyph glyph-name="ncommaaccent" unicode="&#x146;" horiz-adv-x="960" 
d="M293 68q0 -32 -18 -50t-50 -18h-43q-67 0 -67 68v1298q0 68 67 68h68q60 0 78 -56l340 -932v920q0 32 17.5 50t49.5 18h43q68 0 68 -68v-1298q0 -68 -68 -68h-59q-58 0 -76 55l-350 965v-952zM504 -143q67 0 67 -68v-102q0 -141 -73 -267q-36 -50 -74 -30q-35 14 -2 78
q41 83 47 163h-23q-32 0 -49.5 18t-17.5 50v90q0 32 17.5 50t49.5 18h58z" />
    <glyph glyph-name="Ncaron" unicode="&#x147;" horiz-adv-x="960" 
d="M688 1741q22 34 12 58t-45 24h-26q-56 0 -80 -47l-64 -107l-65 107q-21 47 -78 47h-16q-39 0 -51.5 -24t8.5 -58l94 -148q26 -47 80 -47h55q56 0 82 47zM293 68q0 -32 -18 -50t-50 -18h-43q-67 0 -67 68v1298q0 68 67 68h68q60 0 78 -56l340 -932v920q0 32 17.5 50
t49.5 18h43q68 0 68 -68v-1298q0 -68 -68 -68h-59q-58 0 -76 55l-350 965v-952z" />
    <glyph glyph-name="ncaron" unicode="&#x148;" horiz-adv-x="960" 
d="M688 1741q22 34 12 58t-45 24h-26q-56 0 -80 -47l-64 -107l-65 107q-21 47 -78 47h-16q-39 0 -51.5 -24t8.5 -58l94 -148q26 -47 80 -47h55q56 0 82 47zM293 68q0 -32 -18 -50t-50 -18h-43q-67 0 -67 68v1298q0 68 67 68h68q60 0 78 -56l340 -932v920q0 32 17.5 50
t49.5 18h43q68 0 68 -68v-1298q0 -68 -68 -68h-59q-58 0 -76 55l-350 965v-952z" />
    <glyph glyph-name="Eng" unicode="&#x14a;" horiz-adv-x="960" 
d="M778 1434q68 0 68 -68v-1380q0 -156 -90.5 -229.5t-255.5 -73.5h-4q-32 0 -50 17.5t-18 49.5v33q0 67 68 67h8q75 0 114.5 35t43.5 117l-369 1018v-952q0 -32 -18 -50t-50 -18h-43q-67 0 -67 68v1298q0 68 67 68h68q60 0 78 -56l340 -932v920q0 32 17.5 50t49.5 18h43z
" />
    <glyph glyph-name="eng" unicode="&#x14b;" horiz-adv-x="960" 
d="M778 1434q68 0 68 -68v-1380q0 -156 -90.5 -229.5t-255.5 -73.5h-4q-32 0 -50 17.5t-18 49.5v33q0 67 68 67h8q75 0 114.5 35t43.5 117l-369 1018v-952q0 -32 -18 -50t-50 -18h-43q-67 0 -67 68v1298q0 68 67 68h68q60 0 78 -56l340 -932v920q0 32 17.5 50t49.5 18h43z
" />
    <glyph glyph-name="Omacron" unicode="&#x14c;" horiz-adv-x="925" 
d="M694 1614q0 -32 -17.5 -50t-49.5 -18h-328q-32 0 -50 18t-18 50v20q0 32 18 50t50 18h328q32 0 49.5 -18t17.5 -50v-20zM106 1147q0 303 349 303h16q168 0 258 -74.5t90 -228.5v-860q0 -154 -90 -228.5t-258 -74.5h-16q-168 0 -258.5 74.5t-90.5 228.5v860zM299 324
q0 -92 40.5 -131t123.5 -39t123.5 39t40.5 131v786q0 92 -40.5 131t-123.5 39t-123.5 -39t-40.5 -131v-786z" />
    <glyph glyph-name="omacron" unicode="&#x14d;" horiz-adv-x="925" 
d="M694 1614q0 -32 -17.5 -50t-49.5 -18h-328q-32 0 -50 18t-18 50v20q0 32 18 50t50 18h328q32 0 49.5 -18t17.5 -50v-20zM106 1147q0 303 349 303h16q168 0 258 -74.5t90 -228.5v-860q0 -154 -90 -228.5t-258 -74.5h-16q-168 0 -258.5 74.5t-90.5 228.5v860zM299 324
q0 -92 40.5 -131t123.5 -39t123.5 39t40.5 131v786q0 92 -40.5 131t-123.5 39t-123.5 -39t-40.5 -131v-786z" />
    <glyph glyph-name="Obreve" unicode="&#x14e;" horiz-adv-x="925" 
d="M621 1804q61 0 61 -61v-39q0 -80 -54.5 -120t-152.5 -40h-24q-98 0 -152.5 40.5t-54.5 121.5v37q0 61 61 61h23q61 0 61 -61v-8q0 -70 70 -70h8q70 0 70 70v8q0 61 61 61h23zM106 1147q0 303 349 303h16q168 0 258 -74.5t90 -228.5v-860q0 -154 -90 -228.5t-258 -74.5
h-16q-168 0 -258.5 74.5t-90.5 228.5v860zM299 324q0 -92 40.5 -131t123.5 -39t123.5 39t40.5 131v786q0 92 -40.5 131t-123.5 39t-123.5 -39t-40.5 -131v-786z" />
    <glyph glyph-name="obreve" unicode="&#x14f;" horiz-adv-x="925" 
d="M621 1804q61 0 61 -61v-39q0 -80 -54.5 -120t-152.5 -40h-24q-98 0 -152.5 40.5t-54.5 121.5v37q0 61 61 61h23q61 0 61 -61v-8q0 -70 70 -70h8q70 0 70 70v8q0 61 61 61h23zM106 1147q0 303 349 303h16q168 0 258 -74.5t90 -228.5v-860q0 -154 -90 -228.5t-258 -74.5
h-16q-168 0 -258.5 74.5t-90.5 228.5v860zM299 324q0 -92 40.5 -131t123.5 -39t123.5 39t40.5 131v786q0 92 -40.5 131t-123.5 39t-123.5 -39t-40.5 -131v-786z" />
    <glyph glyph-name="Ohungarumlaut" unicode="&#x150;" horiz-adv-x="925" 
d="M371 1788q28 35 75 35h29q38 0 49 -22.5t-12 -53.5l-135 -164q-27 -37 -76 -37h-29q-38 0 -48.5 22.5t12.5 53.5zM653 1786q27 37 76 37h29q38 0 49 -22.5t-12 -53.5l-133 -164q-30 -37 -76 -37h-31q-38 0 -48 22.5t13 53.5zM106 1147q0 303 349 303h16q168 0 258 -74.5
t90 -228.5v-860q0 -154 -90 -228.5t-258 -74.5h-16q-168 0 -258.5 74.5t-90.5 228.5v860zM299 324q0 -92 40.5 -131t123.5 -39t123.5 39t40.5 131v786q0 92 -40.5 131t-123.5 39t-123.5 -39t-40.5 -131v-786z" />
    <glyph glyph-name="ohungarumlaut" unicode="&#x151;" horiz-adv-x="925" 
d="M371 1788q28 35 75 35h29q38 0 49 -22.5t-12 -53.5l-135 -164q-27 -37 -76 -37h-29q-38 0 -48.5 22.5t12.5 53.5zM653 1786q27 37 76 37h29q38 0 49 -22.5t-12 -53.5l-133 -164q-30 -37 -76 -37h-31q-38 0 -48 22.5t13 53.5zM106 1147q0 303 349 303h16q168 0 258 -74.5
t90 -228.5v-860q0 -154 -90 -228.5t-258 -74.5h-16q-168 0 -258.5 74.5t-90.5 228.5v860zM299 324q0 -92 40.5 -131t123.5 -39t123.5 39t40.5 131v786q0 92 -40.5 131t-123.5 39t-123.5 -39t-40.5 -131v-786z" />
    <glyph glyph-name="OE" unicode="&#x152;" horiz-adv-x="1284" 
d="M1159 170q68 0 68 -68v-34q0 -68 -68 -68h-704q-168 0 -258.5 74.5t-90.5 228.5v827q0 154 90.5 229t258.5 75h698q68 0 68 -68v-35q0 -67 -68 -67h-344v-451h281q67 0 67 -68v-36q0 -68 -67 -68h-281v-471h350zM299 340q0 -92 40.5 -131t123.5 -39h153v1094h-153
q-83 0 -123.5 -39t-40.5 -131v-754z" />
    <glyph glyph-name="oe" unicode="&#x153;" horiz-adv-x="1284" 
d="M1159 170q68 0 68 -68v-34q0 -68 -68 -68h-704q-168 0 -258.5 74.5t-90.5 228.5v827q0 154 90.5 229t258.5 75h698q68 0 68 -68v-35q0 -67 -68 -67h-344v-451h281q67 0 67 -68v-36q0 -68 -67 -68h-281v-471h350zM299 340q0 -92 40.5 -131t123.5 -39h153v1094h-153
q-83 0 -123.5 -39t-40.5 -131v-754z" />
    <glyph glyph-name="Racute" unicode="&#x154;" horiz-adv-x="923" 
d="M446 1546q-38 0 -52 22t3 56l78 150q22 49 80 49h63q43 0 55.5 -24t-14.5 -58l-124 -156q-33 -39 -82 -39h-7zM846 78q11 -34 -5.5 -56t-52.5 -22h-57q-59 0 -76 55l-180 533h-2h-166v-520q0 -32 -17.5 -50t-49.5 -18h-58q-67 0 -67 68v1298q0 68 67 68h291
q167 0 257.5 -75t90.5 -229v-239q0 -207 -168 -275zM307 1264v-508h158q83 0 123.5 39t40.5 131v168q0 92 -40.5 131t-123.5 39h-158z" />
    <glyph glyph-name="racute" unicode="&#x155;" horiz-adv-x="923" 
d="M446 1546q-38 0 -52 22t3 56l78 150q22 49 80 49h63q43 0 55.5 -24t-14.5 -58l-124 -156q-33 -39 -82 -39h-7zM846 78q11 -34 -5.5 -56t-52.5 -22h-57q-59 0 -76 55l-180 533h-2h-166v-520q0 -32 -17.5 -50t-49.5 -18h-58q-67 0 -67 68v1298q0 68 67 68h291
q167 0 257.5 -75t90.5 -229v-239q0 -207 -168 -275zM307 1264v-508h158q83 0 123.5 39t40.5 131v168q0 92 -40.5 131t-123.5 39h-158z" />
    <glyph glyph-name="Rcommaaccent" unicode="&#x156;" horiz-adv-x="923" 
d="M846 78q11 -34 -5.5 -56t-52.5 -22h-57q-59 0 -76 55l-180 533h-2h-166v-520q0 -32 -17.5 -50t-49.5 -18h-58q-67 0 -67 68v1298q0 68 67 68h291q167 0 257.5 -75t90.5 -229v-239q0 -207 -168 -275zM307 1264v-508h158q83 0 123.5 39t40.5 131v168q0 92 -40.5 131
t-123.5 39h-158zM512 -143q68 0 68 -68v-102q0 -140 -74 -267q-36 -50 -74 -30q-35 14 -2 78q41 83 47 163h-22q-32 0 -50 18t-18 50v90q0 32 18 50t50 18h57z" />
    <glyph glyph-name="rcommaaccent" unicode="&#x157;" horiz-adv-x="923" 
d="M846 78q11 -34 -5.5 -56t-52.5 -22h-57q-59 0 -76 55l-180 533h-2h-166v-520q0 -32 -17.5 -50t-49.5 -18h-58q-67 0 -67 68v1298q0 68 67 68h291q167 0 257.5 -75t90.5 -229v-239q0 -207 -168 -275zM307 1264v-508h158q83 0 123.5 39t40.5 131v168q0 92 -40.5 131
t-123.5 39h-158zM512 -143q68 0 68 -68v-102q0 -140 -74 -267q-36 -50 -74 -30q-35 14 -2 78q41 83 47 163h-22q-32 0 -50 18t-18 50v90q0 32 18 50t50 18h57z" />
    <glyph glyph-name="Rcaron" unicode="&#x158;" horiz-adv-x="923" 
d="M342 1593l-94 148q-21 34 -8.5 58t51.5 24h16q57 0 78 -47l66 -107l63 107q24 47 80 47h27q35 0 44.5 -24t-12.5 -58l-94 -148q-26 -47 -82 -47h-55q-54 0 -80 47zM846 78q11 -34 -5.5 -56t-52.5 -22h-57q-59 0 -76 55l-180 533h-2h-166v-520q0 -32 -17.5 -50t-49.5 -18
h-58q-67 0 -67 68v1298q0 68 67 68h291q167 0 257.5 -75t90.5 -229v-239q0 -207 -168 -275zM307 1264v-508h158q83 0 123.5 39t40.5 131v168q0 92 -40.5 131t-123.5 39h-158z" />
    <glyph glyph-name="rcaron" unicode="&#x159;" horiz-adv-x="923" 
d="M342 1593l-94 148q-21 34 -8.5 58t51.5 24h16q57 0 78 -47l66 -107l63 107q24 47 80 47h27q35 0 44.5 -24t-12.5 -58l-94 -148q-26 -47 -82 -47h-55q-54 0 -80 47zM846 78q11 -34 -5.5 -56t-52.5 -22h-57q-59 0 -76 55l-180 533h-2h-166v-520q0 -32 -17.5 -50t-49.5 -18
h-58q-67 0 -67 68v1298q0 68 67 68h291q167 0 257.5 -75t90.5 -229v-239q0 -207 -168 -275zM307 1264v-508h158q83 0 123.5 39t40.5 131v168q0 92 -40.5 131t-123.5 39h-158z" />
    <glyph glyph-name="Sacute" unicode="&#x15a;" horiz-adv-x="856" 
d="M453 1774q22 49 79 49h64q43 0 55.5 -24t-14.5 -58l-125 -156q-33 -39 -82 -39h-6q-38 0 -52 22t3 56zM770 995q0 -67 -68 -67h-53q-67 0 -67 67v127q0 84 -39 122t-115 38t-115 -38t-39 -122v-98q0 -62 24 -94.5t89 -69.5l186 -102q102 -58 151.5 -119.5t49.5 -157.5
v-198q0 -157 -87 -228t-255 -71h-4q-169 0 -255.5 70.5t-86.5 228.5v176q0 67 68 67h53q67 0 67 -67v-144q0 -163 156 -163t156 163v113q0 63 -25 98.5t-90 71.5l-184 102q-108 62 -154.5 120.5t-46.5 154.5v180q0 149 92 222t248 73h4q156 0 248 -73t92 -222v-160z" />
    <glyph glyph-name="sacute" unicode="&#x15b;" horiz-adv-x="856" 
d="M453 1774q22 49 79 49h64q43 0 55.5 -24t-14.5 -58l-125 -156q-33 -39 -82 -39h-6q-38 0 -52 22t3 56zM770 995q0 -67 -68 -67h-53q-67 0 -67 67v127q0 84 -39 122t-115 38t-115 -38t-39 -122v-98q0 -62 24 -94.5t89 -69.5l186 -102q102 -58 151.5 -119.5t49.5 -157.5
v-198q0 -157 -87 -228t-255 -71h-4q-169 0 -255.5 70.5t-86.5 228.5v176q0 67 68 67h53q67 0 67 -67v-144q0 -163 156 -163t156 163v113q0 63 -25 98.5t-90 71.5l-184 102q-108 62 -154.5 120.5t-46.5 154.5v180q0 149 92 222t248 73h4q156 0 248 -73t92 -222v-160z" />
    <glyph glyph-name="Scedilla" unicode="&#x15e;" horiz-adv-x="856" 
d="M573 758q102 -58 151.5 -119.5t49.5 -157.5v-198q0 -264 -258 -295v-86q0 -100 -39 -140.5t-121 -40.5q-40 0 -75 9q-36 11 -45 53l-5 14q-8 26 3.5 42t39.5 16h37q33 0 45.5 11.5t12.5 43.5v76q-139 11 -211 82t-72 215v176q0 67 68 67h53q67 0 67 -67v-144
q0 -163 156 -163t156 163v113q0 63 -25 98.5t-90 71.5l-184 102q-108 62 -154.5 120.5t-46.5 154.5v180q0 149 92 222t248 73h4q156 0 248 -73t92 -222v-160q0 -67 -68 -67h-53q-67 0 -67 67v127q0 84 -39 122t-115 38t-115 -38t-39 -122v-98q0 -62 24 -94.5t89 -69.5z" />
    <glyph glyph-name="scedilla" unicode="&#x15f;" horiz-adv-x="856" 
d="M573 758q102 -58 151.5 -119.5t49.5 -157.5v-198q0 -264 -258 -295v-86q0 -100 -39 -140.5t-121 -40.5q-40 0 -75 9q-36 11 -45 53l-5 14q-8 26 3.5 42t39.5 16h37q33 0 45.5 11.5t12.5 43.5v76q-139 11 -211 82t-72 215v176q0 67 68 67h53q67 0 67 -67v-144
q0 -163 156 -163t156 163v113q0 63 -25 98.5t-90 71.5l-184 102q-108 62 -154.5 120.5t-46.5 154.5v180q0 149 92 222t248 73h4q156 0 248 -73t92 -222v-160q0 -67 -68 -67h-53q-67 0 -67 67v127q0 84 -39 122t-115 38t-115 -38t-39 -122v-98q0 -62 24 -94.5t89 -69.5z" />
    <glyph glyph-name="Scaron" unicode="&#x160;" horiz-adv-x="856" 
d="M631 1741q22 34 12 58t-45 24h-27q-55 0 -79 -47l-64 -107l-66 107q-21 47 -77 47h-17q-39 0 -51.5 -24t8.5 -58l94 -148q26 -47 80 -47h56q56 0 82 47zM770 995q0 -67 -68 -67h-53q-67 0 -67 67v127q0 84 -39 122t-115 38t-115 -38t-39 -122v-98q0 -62 24 -94.5
t89 -69.5l186 -102q102 -58 151.5 -119.5t49.5 -157.5v-198q0 -157 -87 -228t-255 -71h-4q-169 0 -255.5 70.5t-86.5 228.5v176q0 67 68 67h53q67 0 67 -67v-144q0 -163 156 -163t156 163v113q0 63 -25 98.5t-90 71.5l-184 102q-108 62 -154.5 120.5t-46.5 154.5v180
q0 149 92 222t248 73h4q156 0 248 -73t92 -222v-160z" />
    <glyph glyph-name="scaron" unicode="&#x161;" horiz-adv-x="856" 
d="M631 1741q22 34 12 58t-45 24h-27q-55 0 -79 -47l-64 -107l-66 107q-21 47 -77 47h-17q-39 0 -51.5 -24t8.5 -58l94 -148q26 -47 80 -47h56q56 0 82 47zM770 995q0 -67 -68 -67h-53q-67 0 -67 67v127q0 84 -39 122t-115 38t-115 -38t-39 -122v-98q0 -62 24 -94.5
t89 -69.5l186 -102q102 -58 151.5 -119.5t49.5 -157.5v-198q0 -157 -87 -228t-255 -71h-4q-169 0 -255.5 70.5t-86.5 228.5v176q0 67 68 67h53q67 0 67 -67v-144q0 -163 156 -163t156 163v113q0 63 -25 98.5t-90 71.5l-184 102q-108 62 -154.5 120.5t-46.5 154.5v180
q0 149 92 222t248 73h4q156 0 248 -73t92 -222v-160z" />
    <glyph glyph-name="uni0162" unicode="&#x162;" horiz-adv-x="729" 
d="M18 1366q0 32 18 50t50 18h557q68 0 68 -68v-35q0 -67 -68 -67h-182v-1248q0 -13 -12 -22q-31 -19 -31 -103q0 -91 -40.5 -130.5t-121.5 -39.5q-28 0 -63 7q-47 11 -60 65q-8 28 8.5 45t51.5 17h22q29 0 41 12t12 43v1354h-182q-68 0 -68 67v35z" />
    <glyph glyph-name="uni0163" unicode="&#x163;" horiz-adv-x="729" 
d="M18 1366q0 32 18 50t50 18h557q68 0 68 -68v-35q0 -67 -68 -67h-182v-1248q0 -13 -12 -22q-31 -19 -31 -103q0 -91 -40.5 -130.5t-121.5 -39.5q-28 0 -63 7q-47 11 -60 65q-8 28 8.5 45t51.5 17h22q29 0 41 12t12 43v1354h-182q-68 0 -68 67v35z" />
    <glyph glyph-name="Tcaron" unicode="&#x164;" horiz-adv-x="729" 
d="M567 1741q22 34 12.5 58t-44.5 24h-27q-56 0 -80 -47l-63 -107l-66 107q-21 47 -78 47h-16q-39 0 -51.5 -24t8.5 -58l94 -148q26 -47 80 -47h55q56 0 82 47zM643 1434q68 0 68 -68v-35q0 -67 -68 -67h-182v-1196q0 -32 -18 -50t-50 -18h-57q-32 0 -50 18t-18 50v1196
h-182q-68 0 -68 67v35q0 32 18 50t50 18h557z" />
    <glyph glyph-name="tcaron" unicode="&#x165;" horiz-adv-x="729" 
d="M567 1741q22 34 12.5 58t-44.5 24h-27q-56 0 -80 -47l-63 -107l-66 107q-21 47 -78 47h-16q-39 0 -51.5 -24t8.5 -58l94 -148q26 -47 80 -47h55q56 0 82 47zM643 1434q68 0 68 -68v-35q0 -67 -68 -67h-182v-1196q0 -32 -18 -50t-50 -18h-57q-32 0 -50 18t-18 50v1196
h-182q-68 0 -68 67v35q0 32 18 50t50 18h557z" />
    <glyph glyph-name="Tbar" unicode="&#x166;" horiz-adv-x="729" 
d="M643 1434q68 0 68 -68v-35q0 -67 -68 -67h-182v-381h76q32 0 49.5 -18t17.5 -50v-20q0 -32 -17.5 -50t-49.5 -18h-76v-659q0 -32 -18 -50t-50 -18h-57q-32 0 -50 18t-18 50v659h-59q-32 0 -50 18t-18 50v20q0 32 18 50t50 18h59v381h-182q-68 0 -68 67v35q0 32 18 50
t50 18h557z" />
    <glyph glyph-name="tbar" unicode="&#x167;" horiz-adv-x="729" 
d="M643 1434q68 0 68 -68v-35q0 -67 -68 -67h-182v-381h76q32 0 49.5 -18t17.5 -50v-20q0 -32 -17.5 -50t-49.5 -18h-76v-659q0 -32 -18 -50t-50 -18h-57q-32 0 -50 18t-18 50v659h-59q-32 0 -50 18t-18 50v20q0 32 18 50t50 18h59v381h-182q-68 0 -68 67v35q0 32 18 50
t50 18h557z" />
    <glyph glyph-name="Umacron" unicode="&#x16a;" 
d="M690 1614q0 -32 -17.5 -50t-49.5 -18h-328q-32 0 -50 18t-18 50v20q0 32 18 50t50 18h328q32 0 49.5 -18t17.5 -50v-20zM739 1434q68 0 68 -68v-1079q0 -303 -344 -303h-8q-168 0 -256 72.5t-88 230.5v1079q0 68 67 68h58q32 0 49.5 -18t17.5 -50v-1042q0 -93 37 -131.5
t119 -38.5q81 0 118 38.5t37 131.5v1042q0 32 18 50t50 18h57z" />
    <glyph glyph-name="umacron" unicode="&#x16b;" 
d="M690 1614q0 -32 -17.5 -50t-49.5 -18h-328q-32 0 -50 18t-18 50v20q0 32 18 50t50 18h328q32 0 49.5 -18t17.5 -50v-20zM739 1434q68 0 68 -68v-1079q0 -303 -344 -303h-8q-168 0 -256 72.5t-88 230.5v1079q0 68 67 68h58q32 0 49.5 -18t17.5 -50v-1042q0 -93 37 -131.5
t119 -38.5q81 0 118 38.5t37 131.5v1042q0 32 18 50t50 18h57z" />
    <glyph glyph-name="Ubreve" unicode="&#x16c;" 
d="M616 1804q29 0 45.5 -16t16.5 -45v-39q0 -80 -54.5 -120t-152.5 -40h-25q-98 0 -152 40.5t-54 121.5v37q0 61 61 61h23q61 0 61 -61v-8q0 -70 70 -70h8q69 0 69 70v8q0 29 16.5 45t45.5 16h22zM739 1434q68 0 68 -68v-1079q0 -303 -344 -303h-8q-168 0 -256 72.5
t-88 230.5v1079q0 68 67 68h58q32 0 49.5 -18t17.5 -50v-1042q0 -93 37 -131.5t119 -38.5q81 0 118 38.5t37 131.5v1042q0 32 18 50t50 18h57z" />
    <glyph glyph-name="ubreve" unicode="&#x16d;" 
d="M616 1804q29 0 45.5 -16t16.5 -45v-39q0 -80 -54.5 -120t-152.5 -40h-25q-98 0 -152 40.5t-54 121.5v37q0 61 61 61h23q61 0 61 -61v-8q0 -70 70 -70h8q69 0 69 70v8q0 29 16.5 45t45.5 16h22zM739 1434q68 0 68 -68v-1079q0 -303 -344 -303h-8q-168 0 -256 72.5
t-88 230.5v1079q0 68 67 68h58q32 0 49.5 -18t17.5 -50v-1042q0 -93 37 -131.5t119 -38.5q81 0 118 38.5t37 131.5v1042q0 32 18 50t50 18h57z" />
    <glyph glyph-name="Uring" unicode="&#x16e;" 
d="M459 1849q77 0 124.5 -42t47.5 -115t-47.5 -115.5t-124.5 -42.5q-79 0 -126.5 42.5t-47.5 115.5t47.5 115t126.5 42zM459 1761q-32 0 -52 -18t-20 -51t20 -50.5t52 -17.5t50.5 17.5t18.5 50.5t-19 51t-50 18zM739 1434q68 0 68 -68v-1079q0 -303 -344 -303h-8
q-168 0 -256 72.5t-88 230.5v1079q0 68 67 68h58q32 0 49.5 -18t17.5 -50v-1042q0 -93 37 -131.5t119 -38.5q81 0 118 38.5t37 131.5v1042q0 32 18 50t50 18h57z" />
    <glyph glyph-name="uring" unicode="&#x16f;" 
d="M459 1849q77 0 124.5 -42t47.5 -115t-47.5 -115.5t-124.5 -42.5q-79 0 -126.5 42.5t-47.5 115.5t47.5 115t126.5 42zM459 1761q-32 0 -52 -18t-20 -51t20 -50.5t52 -17.5t50.5 17.5t18.5 50.5t-19 51t-50 18zM739 1434q68 0 68 -68v-1079q0 -303 -344 -303h-8
q-168 0 -256 72.5t-88 230.5v1079q0 68 67 68h58q32 0 49.5 -18t17.5 -50v-1042q0 -93 37 -131.5t119 -38.5q81 0 118 38.5t37 131.5v1042q0 32 18 50t50 18h57z" />
    <glyph glyph-name="Uhungarumlaut" unicode="&#x170;" 
d="M367 1788q28 35 75 35h29q38 0 49 -22.5t-12 -53.5l-135 -164q-27 -37 -76 -37h-29q-38 0 -49 22.5t12 53.5zM649 1786q27 37 76 37h29q38 0 49 -22.5t-12 -53.5l-134 -164q-30 -37 -75 -37h-31q-38 0 -48 22.5t13 53.5zM739 1434q68 0 68 -68v-1079q0 -303 -344 -303h-8
q-168 0 -256 72.5t-88 230.5v1079q0 68 67 68h58q32 0 49.5 -18t17.5 -50v-1042q0 -93 37 -131.5t119 -38.5q81 0 118 38.5t37 131.5v1042q0 32 18 50t50 18h57z" />
    <glyph glyph-name="uhungarumlaut" unicode="&#x171;" 
d="M367 1788q28 35 75 35h29q38 0 49 -22.5t-12 -53.5l-135 -164q-27 -37 -76 -37h-29q-38 0 -49 22.5t12 53.5zM649 1786q27 37 76 37h29q38 0 49 -22.5t-12 -53.5l-134 -164q-30 -37 -75 -37h-31q-38 0 -48 22.5t13 53.5zM739 1434q68 0 68 -68v-1079q0 -303 -344 -303h-8
q-168 0 -256 72.5t-88 230.5v1079q0 68 67 68h58q32 0 49.5 -18t17.5 -50v-1042q0 -93 37 -131.5t119 -38.5q81 0 118 38.5t37 131.5v1042q0 32 18 50t50 18h57z" />
    <glyph glyph-name="Uogonek" unicode="&#x172;" 
d="M739 1434q68 0 68 -68v-1079q0 -235 -205 -287q-80 -39 -100 -105q-16 -55 21 -83q19 -15 48 -15h15q21 3 31 -2.5t10 -23.5v-29q0 -30 -23 -45q-45 -23 -94 -23q-55 0 -94.5 30.5t-53.5 75.5t3.5 101.5t68.5 102.5q-159 5 -241 77t-82 226v1079q0 68 67 68h58
q32 0 49.5 -18t17.5 -50v-1042q0 -93 37 -131.5t119 -38.5q81 0 118 38.5t37 131.5v1042q0 32 18 50t50 18h57z" />
    <glyph glyph-name="uogonek" unicode="&#x173;" 
d="M739 1434q68 0 68 -68v-1079q0 -235 -205 -287q-80 -39 -100 -105q-16 -55 21 -83q19 -15 48 -15h15q21 3 31 -2.5t10 -23.5v-29q0 -30 -23 -45q-45 -23 -94 -23q-55 0 -94.5 30.5t-53.5 75.5t3.5 101.5t68.5 102.5q-159 5 -241 77t-82 226v1079q0 68 67 68h58
q32 0 49.5 -18t17.5 -50v-1042q0 -93 37 -131.5t119 -38.5q81 0 118 38.5t37 131.5v1042q0 32 18 50t50 18h57z" />
    <glyph glyph-name="Wcircumflex" unicode="&#x174;" horiz-adv-x="1314" 
d="M834 1546q35 0 44.5 24t-12.5 58l-94 148q-24 47 -80 47h-57q-54 0 -80 -47l-94 -148q-22 -34 -12 -58t45 -24h26q55 0 80 49l64 105l63 -105q25 -49 80 -49h27zM1208 1434q74 0 62 -72l-209 -1299q-9 -63 -72 -63h-57q-64 0 -76 61l-194 1006l-197 -1006
q-12 -61 -74 -61h-65q-63 0 -72 63l-209 1299q-12 72 61 72h54q62 0 69 -64l140 -1026l194 1028q9 62 74 62h51q30 0 50 -16t24 -46l194 -1028l138 1026q10 64 71 64h43z" />
    <glyph glyph-name="wcircumflex" unicode="&#x175;" horiz-adv-x="1314" 
d="M834 1546q35 0 44.5 24t-12.5 58l-94 148q-24 47 -80 47h-57q-54 0 -80 -47l-94 -148q-22 -34 -12 -58t45 -24h26q55 0 80 49l64 105l63 -105q25 -49 80 -49h27zM1208 1434q74 0 62 -72l-209 -1299q-9 -63 -72 -63h-57q-64 0 -76 61l-194 1006l-197 -1006
q-12 -61 -74 -61h-65q-63 0 -72 63l-209 1299q-12 72 61 72h54q62 0 69 -64l140 -1026l194 1028q9 62 74 62h51q30 0 50 -16t24 -46l194 -1028l138 1026q10 64 71 64h43z" />
    <glyph glyph-name="Ycircumflex" unicode="&#x176;" horiz-adv-x="847" 
d="M594 1546q35 0 45 24t-12 58l-95 148q-24 47 -79 47h-58q-54 0 -80 -47l-94 -148q-22 -34 -12 -58t45 -24h27q54 0 79 49l64 105l63 -105q25 -49 80 -49h27zM520 528v-460q0 -32 -17.5 -50t-49.5 -18h-58q-32 0 -49.5 18t-17.5 50v460l-275 830q-12 34 3.5 55t52.5 21h61
q61 0 76 -60l180 -633l180 633q15 60 74 60h59q37 0 52.5 -21t3.5 -55z" />
    <glyph glyph-name="ycircumflex" unicode="&#x177;" horiz-adv-x="847" 
d="M594 1546q35 0 45 24t-12 58l-95 148q-24 47 -79 47h-58q-54 0 -80 -47l-94 -148q-22 -34 -12 -58t45 -24h27q54 0 79 49l64 105l63 -105q25 -49 80 -49h27zM520 528v-460q0 -32 -17.5 -50t-49.5 -18h-58q-32 0 -49.5 18t-17.5 50v460l-275 830q-12 34 3.5 55t52.5 21h61
q61 0 76 -60l180 -633l180 633q15 60 74 60h59q37 0 52.5 -21t3.5 -55z" />
    <glyph glyph-name="Ydieresis" unicode="&#x178;" horiz-adv-x="847" 
d="M289 1751q32 0 49.5 -18t17.5 -50v-69q0 -32 -17.5 -50t-49.5 -18h-45q-34 0 -52 18t-18 50v69q0 32 18 50t52 18h45zM604 1751q34 0 52 -18t18 -50v-69q0 -32 -18 -50t-52 -18h-45q-32 0 -49.5 18t-17.5 50v69q0 32 17.5 50t49.5 18h45zM520 528v-460q0 -32 -17.5 -50
t-49.5 -18h-58q-32 0 -49.5 18t-17.5 50v460l-275 830q-12 34 3.5 55t52.5 21h61q61 0 76 -60l180 -633l180 633q15 60 74 60h59q37 0 52.5 -21t3.5 -55z" />
    <glyph glyph-name="Zacute" unicode="&#x179;" horiz-adv-x="755" 
d="M418 1774q22 49 80 49h63q43 0 55.5 -24t-14.5 -58l-125 -156q-33 -39 -82 -39h-6q-38 0 -52 22t3 56zM641 162q68 0 68 -68v-26q0 -68 -68 -68h-526q-32 0 -50 18t-18 50v24q0 41 14 84l431 1096h-353q-67 0 -67 67v27q0 32 17.5 50t49.5 18h488q67 0 67 -68v-25
q0 -48 -14 -84l-430 -1095h391z" />
    <glyph glyph-name="zacute" unicode="&#x17a;" horiz-adv-x="755" 
d="M418 1774q22 49 80 49h63q43 0 55.5 -24t-14.5 -58l-125 -156q-33 -39 -82 -39h-6q-38 0 -52 22t3 56zM641 162q68 0 68 -68v-26q0 -68 -68 -68h-526q-32 0 -50 18t-18 50v24q0 41 14 84l431 1096h-353q-67 0 -67 67v27q0 32 17.5 50t49.5 18h488q67 0 67 -68v-25
q0 -48 -14 -84l-430 -1095h391z" />
    <glyph glyph-name="Zdotaccent" unicode="&#x17b;" horiz-adv-x="755" 
d="M416 1751q67 0 67 -68v-69q0 -68 -67 -68h-45q-68 0 -68 68v69q0 68 68 68h45zM641 162q68 0 68 -68v-26q0 -68 -68 -68h-526q-32 0 -50 18t-18 50v24q0 41 14 84l431 1096h-353q-67 0 -67 67v27q0 32 17.5 50t49.5 18h488q67 0 67 -68v-25q0 -48 -14 -84l-430 -1095h391
z" />
    <glyph glyph-name="zdotaccent" unicode="&#x17c;" horiz-adv-x="755" 
d="M416 1751q67 0 67 -68v-69q0 -68 -67 -68h-45q-68 0 -68 68v69q0 68 68 68h45zM641 162q68 0 68 -68v-26q0 -68 -68 -68h-526q-32 0 -50 18t-18 50v24q0 41 14 84l431 1096h-353q-67 0 -67 67v27q0 32 17.5 50t49.5 18h488q67 0 67 -68v-25q0 -48 -14 -84l-430 -1095h391
z" />
    <glyph glyph-name="Zcaron" unicode="&#x17d;" horiz-adv-x="755" 
d="M596 1741q22 34 12 58t-45 24h-26q-56 0 -80 -47l-64 -107l-65 107q-21 47 -78 47h-17q-39 0 -51.5 -24t8.5 -58l95 -148q26 -47 80 -47h55q56 0 82 47zM641 162q68 0 68 -68v-26q0 -68 -68 -68h-526q-32 0 -50 18t-18 50v24q0 41 14 84l431 1096h-353q-67 0 -67 67v27
q0 32 17.5 50t49.5 18h488q67 0 67 -68v-25q0 -48 -14 -84l-430 -1095h391z" />
    <glyph glyph-name="zcaron" unicode="&#x17e;" horiz-adv-x="755" 
d="M596 1741q22 34 12 58t-45 24h-26q-56 0 -80 -47l-64 -107l-65 107q-21 47 -78 47h-17q-39 0 -51.5 -24t8.5 -58l95 -148q26 -47 80 -47h55q56 0 82 47zM641 162q68 0 68 -68v-26q0 -68 -68 -68h-526q-32 0 -50 18t-18 50v24q0 41 14 84l431 1096h-353q-67 0 -67 67v27
q0 32 17.5 50t49.5 18h488q67 0 67 -68v-25q0 -48 -14 -84l-430 -1095h391z" />
    <glyph glyph-name="florin" unicode="&#x192;" horiz-adv-x="704" 
d="M610 1434q28 0 44 -17t16 -49v-39q0 -65 -60 -65h-8q-79 0 -117.5 -39t-38.5 -131v-260h127q35 0 51 -20.5t9 -55.5l-6 -31q-12 -61 -74 -61h-107v-363q0 -303 -335 -303h-17q-59 0 -59 66v38q0 66 59 66h8q79 0 117.5 39t38.5 131v326h-127q-35 0 -51 20t-8 55l6 31
q13 62 74 62h106v296q0 304 336 304h16z" />
    <glyph glyph-name="Aringacute" unicode="&#x1fa;" horiz-adv-x="868" 
d="M428 1896q-38 0 -52 22t3 56l78 150q22 49 80 49h63q43 0 55.5 -24t-14.5 -58l-125 -156q-33 -39 -82 -39h-6zM432 1534q-79 0 -126.5 42.5t-47.5 115.5t47.5 115t126.5 42q77 0 124.5 -42t47.5 -115t-47.5 -115.5t-124.5 -42.5zM432 1761q-32 0 -52 -18t-20 -51
t20 -50.5t52 -17.5t51 17.5t19 50.5t-19 51t-51 18zM825 74q7 -35 -9 -54.5t-50 -19.5h-59q-62 0 -74 61l-49 277h-310l-49 -277q-9 -61 -71 -61h-52q-34 0 -49.5 19.5t-9.5 54.5l258 1298q12 62 74 62h114q62 0 74 -62zM305 500h250l-125 692z" />
    <glyph glyph-name="aringacute" unicode="&#x1fb;" horiz-adv-x="868" 
d="M428 1896q-38 0 -52 22t3 56l78 150q22 49 80 49h63q43 0 55.5 -24t-14.5 -58l-125 -156q-33 -39 -82 -39h-6zM432 1534q-79 0 -126.5 42.5t-47.5 115.5t47.5 115t126.5 42q77 0 124.5 -42t47.5 -115t-47.5 -115.5t-124.5 -42.5zM432 1761q-32 0 -52 -18t-20 -51
t20 -50.5t52 -17.5t51 17.5t19 50.5t-19 51t-51 18zM825 74q7 -35 -9 -54.5t-50 -19.5h-59q-62 0 -74 61l-49 277h-310l-49 -277q-9 -61 -71 -61h-52q-34 0 -49.5 19.5t-9.5 54.5l258 1298q12 62 74 62h114q62 0 74 -62zM305 500h250l-125 692z" />
    <glyph glyph-name="AEacute" unicode="&#x1fc;" horiz-adv-x="1275" 
d="M797 1546q-38 0 -52 22t3 56l77 150q22 49 80 49h64q43 0 55.5 -24t-14.5 -58l-125 -156q-33 -39 -82 -39h-6zM1153 170q68 0 68 -68v-34q0 -68 -68 -68h-475q-68 0 -68 68v268h-301l-82 -279q-15 -57 -75 -57h-56q-36 0 -51 21t-6 55l401 1302q18 56 78 56h629
q67 0 67 -68v-35q0 -67 -67 -67h-344v-451h280q68 0 68 -68v-36q0 -68 -68 -68h-280v-471h350zM358 500h252v764h-24z" />
    <glyph glyph-name="aeacute" unicode="&#x1fd;" horiz-adv-x="1275" 
d="M797 1546q-38 0 -52 22t3 56l77 150q22 49 80 49h64q43 0 55.5 -24t-14.5 -58l-125 -156q-33 -39 -82 -39h-6zM1153 170q68 0 68 -68v-34q0 -68 -68 -68h-475q-68 0 -68 68v268h-301l-82 -279q-15 -57 -75 -57h-56q-36 0 -51 21t-6 55l401 1302q18 56 78 56h629
q67 0 67 -68v-35q0 -67 -67 -67h-344v-451h280q68 0 68 -68v-36q0 -68 -68 -68h-280v-471h350zM358 500h252v764h-24z" />
    <glyph glyph-name="Oslashacute" unicode="&#x1fe;" horiz-adv-x="925" 
d="M459 1546q-38 0 -52 22t3 56l77 150q22 49 80 49h64q43 0 55.5 -24t-14.5 -58l-125 -156q-33 -39 -82 -39h-6zM471 1450q168 0 258 -74.5t90 -228.5v-860q0 -154 -90 -228.5t-258 -74.5h-16q-168 0 -258.5 74.5t-90.5 228.5v860q0 303 349 303h16zM299 1110v-786
q0 -37 6 -64l227 1012q-27 8 -69 8q-83 0 -123.5 -39t-40.5 -131zM627 324v786q0 37 -6 64l-228 -1012q27 -8 70 -8q83 0 123.5 39t40.5 131z" />
    <glyph glyph-name="oslashacute" unicode="&#x1ff;" horiz-adv-x="925" 
d="M459 1546q-38 0 -52 22t3 56l77 150q22 49 80 49h64q43 0 55.5 -24t-14.5 -58l-125 -156q-33 -39 -82 -39h-6zM471 1450q168 0 258 -74.5t90 -228.5v-860q0 -154 -90 -228.5t-258 -74.5h-16q-168 0 -258.5 74.5t-90.5 228.5v860q0 303 349 303h16zM299 1110v-786
q0 -37 6 -64l227 1012q-27 8 -69 8q-83 0 -123.5 -39t-40.5 -131zM627 324v786q0 37 -6 64l-228 -1012q27 -8 70 -8q83 0 123.5 39t40.5 131z" />
    <glyph glyph-name="Scommaaccent" unicode="&#x218;" horiz-adv-x="856" 
d="M770 995q0 -67 -68 -67h-53q-67 0 -67 67v127q0 84 -39 122t-115 38t-115 -38t-39 -122v-98q0 -62 24 -94.5t89 -69.5l186 -102q102 -58 151.5 -119.5t49.5 -157.5v-198q0 -157 -87 -228t-255 -71h-4q-169 0 -255.5 70.5t-86.5 228.5v176q0 67 68 67h53q67 0 67 -67v-144
q0 -163 156 -163t156 163v113q0 63 -25 98.5t-90 71.5l-184 102q-108 62 -154.5 120.5t-46.5 154.5v180q0 149 92 222t248 73h4q156 0 248 -73t92 -222v-160zM475 -143q68 0 68 -68v-102q0 -140 -74 -267q-36 -50 -74 -30q-35 14 -2 78q41 83 47 163h-22q-32 0 -50 18
t-18 50v90q0 32 18 50t50 18h57z" />
    <glyph glyph-name="scommaaccent" unicode="&#x219;" horiz-adv-x="856" 
d="M770 995q0 -67 -68 -67h-53q-67 0 -67 67v127q0 84 -39 122t-115 38t-115 -38t-39 -122v-98q0 -62 24 -94.5t89 -69.5l186 -102q102 -58 151.5 -119.5t49.5 -157.5v-198q0 -157 -87 -228t-255 -71h-4q-169 0 -255.5 70.5t-86.5 228.5v176q0 67 68 67h53q67 0 67 -67v-144
q0 -163 156 -163t156 163v113q0 63 -25 98.5t-90 71.5l-184 102q-108 62 -154.5 120.5t-46.5 154.5v180q0 149 92 222t248 73h4q156 0 248 -73t92 -222v-160zM475 -143q68 0 68 -68v-102q0 -140 -74 -267q-36 -50 -74 -30q-35 14 -2 78q41 83 47 163h-22q-32 0 -50 18
t-18 50v90q0 32 18 50t50 18h57z" />
    <glyph glyph-name="circumflex" unicode="&#x2c6;" horiz-adv-x="892" 
d="M616 1546q35 0 45 24t-12 58l-94 148q-24 47 -80 47h-57q-54 0 -80 -47l-94 -148q-22 -34 -12.5 -58t44.5 -24h27q55 0 80 49l63 105l64 -105q25 -49 80 -49h26z" />
    <glyph glyph-name="caron" unicode="&#x2c7;" horiz-adv-x="892" 
d="M649 1741q22 34 12 58t-45 24h-26q-56 0 -80 -47l-64 -107l-65 107q-21 47 -78 47h-16q-39 0 -51.5 -24t8.5 -58l94 -148q26 -47 80 -47h55q56 0 82 47z" />
    <glyph glyph-name="breve" unicode="&#x2d8;" horiz-adv-x="966" 
d="M641 1804q61 0 61 -61v-39q0 -80 -54 -120t-152 -40h-25q-98 0 -152.5 40.5t-54.5 121.5v37q0 29 16.5 45t45.5 16h22q29 0 45.5 -16t16.5 -45v-8q0 -70 69 -70h8q70 0 70 70v8q0 61 61 61h23z" />
    <glyph glyph-name="dotaccent" unicode="&#x2d9;" horiz-adv-x="585" 
d="M315 1751q68 0 68 -68v-69q0 -68 -68 -68h-45q-67 0 -67 68v69q0 68 67 68h45z" />
    <glyph glyph-name="ring" unicode="&#x2da;" horiz-adv-x="780" 
d="M393 1849q77 0 124.5 -42t47.5 -115t-47.5 -115.5t-124.5 -42.5q-79 0 -126.5 42.5t-47.5 115.5t47.5 115t126.5 42zM393 1761q-32 0 -51.5 -18t-19.5 -51t19.5 -50.5t51.5 -17.5t51 17.5t19 50.5t-19 51t-51 18z" />
    <glyph glyph-name="ogonek" unicode="&#x2db;" horiz-adv-x="804" 
d="M457 -203h14q21 3 31 -2.5t10 -23.5v-29q0 -30 -23 -45q-45 -23 -94 -23q-50 0 -88 25t-53 66t-10 88t43.5 96.5t105.5 85.5l96 -35q-80 -37 -100 -102q-17 -55 18 -85q20 -16 50 -16z" />
    <glyph glyph-name="tilde" unicode="&#x2dc;" horiz-adv-x="995" 
d="M324 1591q0 68 59 68q25 0 55 -17.5t55.5 -39t64.5 -39t79 -17.5q71 0 119.5 49.5t48.5 145.5q0 55 -53 55h-29q-53 0 -53 -37q0 -31 -15 -49t-45 -18q-24 0 -52 17.5t-51.5 38.5t-61 38.5t-78.5 17.5q-72 0 -124.5 -49.5t-52.5 -144.5q0 -56 54 -56h26q54 0 54 37z" />
    <glyph glyph-name="hungarumlaut" unicode="&#x2dd;" horiz-adv-x="1536" 
d="M612 1788q28 35 76 35h29q38 0 49 -22.5t-12 -53.5l-136 -164q-27 -37 -75 -37h-29q-38 0 -49 22.5t12 53.5zM895 1786q27 37 76 37h28q38 0 49 -22.5t-12 -53.5l-133 -164q-30 -37 -76 -37h-30q-38 0 -48 22.5t13 53.5z" />
    <glyph glyph-name="uni0326" unicode="&#x326;" horiz-adv-x="0" 
d="M-299 -143q68 0 68 -68v-102q0 -140 -74 -267q-36 -50 -74 -30q-35 14 -2 78q41 83 47 163h-22q-32 0 -50 18t-18 50v90q0 32 18 50t50 18h57z" />
    <glyph glyph-name="Wgrave" unicode="&#x1e80;" horiz-adv-x="1314" 
d="M561 1823q58 0 80 -49l78 -150q18 -34 9 -56t-40 -22h-22q-53 0 -82 39l-125 156q-28 34 -16 58t55 24h63zM1208 1434q74 0 62 -72l-209 -1299q-9 -63 -72 -63h-57q-64 0 -76 61l-194 1006l-197 -1006q-12 -61 -74 -61h-65q-63 0 -72 63l-209 1299q-12 72 61 72h54
q62 0 69 -64l140 -1026l194 1028q9 62 74 62h51q30 0 50 -16t24 -46l194 -1028l138 1026q10 64 71 64h43z" />
    <glyph glyph-name="wgrave" unicode="&#x1e81;" horiz-adv-x="1314" 
d="M561 1823q58 0 80 -49l78 -150q18 -34 9 -56t-40 -22h-22q-53 0 -82 39l-125 156q-28 34 -16 58t55 24h63zM1208 1434q74 0 62 -72l-209 -1299q-9 -63 -72 -63h-57q-64 0 -76 61l-194 1006l-197 -1006q-12 -61 -74 -61h-65q-63 0 -72 63l-209 1299q-12 72 61 72h54
q62 0 69 -64l140 -1026l194 1028q9 62 74 62h51q30 0 50 -16t24 -46l194 -1028l138 1026q10 64 71 64h43z" />
    <glyph glyph-name="Wacute" unicode="&#x1e82;" horiz-adv-x="1314" 
d="M688 1774q22 49 80 49h63q43 0 55.5 -24t-14.5 -58l-124 -156q-33 -39 -82 -39h-7q-38 0 -52 22t3 56zM1208 1434q74 0 62 -72l-209 -1299q-9 -63 -72 -63h-57q-64 0 -76 61l-194 1006l-197 -1006q-12 -61 -74 -61h-65q-63 0 -72 63l-209 1299q-12 72 61 72h54
q62 0 69 -64l140 -1026l194 1028q9 62 74 62h51q30 0 50 -16t24 -46l194 -1028l138 1026q10 64 71 64h43z" />
    <glyph glyph-name="wacute" unicode="&#x1e83;" horiz-adv-x="1314" 
d="M688 1774q22 49 80 49h63q43 0 55.5 -24t-14.5 -58l-124 -156q-33 -39 -82 -39h-7q-38 0 -52 22t3 56zM1208 1434q74 0 62 -72l-209 -1299q-9 -63 -72 -63h-57q-64 0 -76 61l-194 1006l-197 -1006q-12 -61 -74 -61h-65q-63 0 -72 63l-209 1299q-12 72 61 72h54
q62 0 69 -64l140 -1026l194 1028q9 62 74 62h51q30 0 50 -16t24 -46l194 -1028l138 1026q10 64 71 64h43z" />
    <glyph glyph-name="Wdieresis" unicode="&#x1e84;" horiz-adv-x="1314" 
d="M528 1751q32 0 50 -18t18 -50v-69q0 -32 -18 -50t-50 -18h-45q-69 0 -69 68v69q0 68 69 68h45zM844 1751q69 0 69 -68v-69q0 -68 -69 -68h-45q-32 0 -50 18t-18 50v69q0 32 18 50t50 18h45zM1208 1434q74 0 62 -72l-209 -1299q-9 -63 -72 -63h-57q-64 0 -76 61l-194 1006
l-197 -1006q-12 -61 -74 -61h-65q-63 0 -72 63l-209 1299q-12 72 61 72h54q62 0 69 -64l140 -1026l194 1028q9 62 74 62h51q30 0 50 -16t24 -46l194 -1028l138 1026q10 64 71 64h43z" />
    <glyph glyph-name="wdieresis" unicode="&#x1e85;" horiz-adv-x="1314" 
d="M528 1751q32 0 50 -18t18 -50v-69q0 -32 -18 -50t-50 -18h-45q-69 0 -69 68v69q0 68 69 68h45zM844 1751q69 0 69 -68v-69q0 -68 -69 -68h-45q-32 0 -50 18t-18 50v69q0 32 18 50t50 18h45zM1208 1434q74 0 62 -72l-209 -1299q-9 -63 -72 -63h-57q-64 0 -76 61l-194 1006
l-197 -1006q-12 -61 -74 -61h-65q-63 0 -72 63l-209 1299q-12 72 61 72h54q62 0 69 -64l140 -1026l194 1028q9 62 74 62h51q30 0 50 -16t24 -46l194 -1028l138 1026q10 64 71 64h43z" />
    <glyph glyph-name="Ygrave" unicode="&#x1ef2;" horiz-adv-x="847" 
d="M322 1823q57 0 79 -49l78 -150q19 -34 10 -56t-40 -22h-23q-53 0 -82 39l-125 156q-28 34 -16 58t55 24h64zM520 528v-460q0 -32 -17.5 -50t-49.5 -18h-58q-32 0 -49.5 18t-17.5 50v460l-275 830q-12 34 3.5 55t52.5 21h61q61 0 76 -60l180 -633l180 633q15 60 74 60h59
q37 0 52.5 -21t3.5 -55z" />
    <glyph glyph-name="ygrave" unicode="&#x1ef3;" horiz-adv-x="847" 
d="M322 1823q57 0 79 -49l78 -150q19 -34 10 -56t-40 -22h-23q-53 0 -82 39l-125 156q-28 34 -16 58t55 24h64zM520 528v-460q0 -32 -17.5 -50t-49.5 -18h-58q-32 0 -49.5 18t-17.5 50v460l-275 830q-12 34 3.5 55t52.5 21h61q61 0 76 -60l180 -633l180 633q15 60 74 60h59
q37 0 52.5 -21t3.5 -55z" />
    <glyph glyph-name="endash" unicode="&#x2013;" horiz-adv-x="729" 
d="M614 811q32 0 50 -18t18 -50v-20q0 -32 -18 -50t-50 -18h-499q-32 0 -50 18t-18 50v20q0 32 18 50t50 18h499z" />
    <glyph glyph-name="emdash" unicode="&#x2014;" horiz-adv-x="1036" 
d="M922 813q32 0 49.5 -18t17.5 -50v-24q0 -32 -17.5 -50t-49.5 -18h-807q-32 0 -50 18t-18 50v24q0 32 18 50t50 18h807z" />
    <glyph glyph-name="quoteleft" unicode="&#x2018;" horiz-adv-x="368" 
d="M156 967q-68 0 -68 67v103q0 139 74 266q36 51 74 31q35 -14 2 -78q-42 -85 -48 -164h23q32 0 50 -18t18 -50v-90q0 -32 -18 -49.5t-50 -17.5h-57z" />
    <glyph glyph-name="quoteright" unicode="&#x2019;" horiz-adv-x="368" 
d="M213 1434q68 0 68 -68v-102q0 -140 -74 -267q-36 -50 -74 -30q-34 14 -2 77q41 83 47 164h-22q-32 0 -50 18t-18 50v90q0 32 18 50t50 18h57z" />
    <glyph glyph-name="quotesinglbase" unicode="&#x201a;" horiz-adv-x="368" 
d="M213 225q68 0 68 -67v-103q0 -139 -74 -266q-36 -51 -74 -31q-35 14 -2 78q41 83 47 164h-22q-32 0 -50 18t-18 50v90q0 32 18 49.5t50 17.5h57z" />
    <glyph glyph-name="quotedblleft" unicode="&#x201c;" horiz-adv-x="638" 
d="M156 967q-68 0 -68 67v103q0 139 74 266q36 51 74 31q35 -14 2 -78q-42 -85 -48 -164h23q32 0 50 -18t18 -50v-90q0 -32 -18 -49.5t-50 -17.5h-57zM426 967q-68 0 -68 67v103q0 139 74 266q36 51 74 31q35 -14 2 -78q-41 -83 -47 -164h22q32 0 50 -18t18 -50v-90
q0 -32 -18 -49.5t-50 -17.5h-57z" />
    <glyph glyph-name="quotedblright" unicode="&#x201d;" horiz-adv-x="638" 
d="M213 1434q68 0 68 -68v-102q0 -140 -74 -267q-36 -50 -74 -30q-34 14 -2 77q41 83 47 164h-22q-32 0 -50 18t-18 50v90q0 32 18 50t50 18h57zM483 1434q68 0 68 -68v-102q0 -140 -74 -267q-36 -50 -74 -30q-34 14 -2 77q42 85 48 164h-23q-32 0 -50 18t-18 50v90
q0 32 18 50t50 18h57z" />
    <glyph glyph-name="quotedblbase" unicode="&#x201e;" horiz-adv-x="638" 
d="M213 225q68 0 68 -67v-103q0 -139 -74 -266q-36 -51 -74 -31q-35 14 -2 78q41 83 47 164h-22q-32 0 -50 18t-18 50v90q0 32 18 49.5t50 17.5h57zM483 225q68 0 68 -67v-103q0 -139 -74 -266q-36 -51 -74 -31q-35 14 -2 78q42 85 48 164h-23q-32 0 -50 18t-18 50v90
q0 32 18 49.5t50 17.5h57z" />
    <glyph glyph-name="dagger" unicode="&#x2020;" horiz-adv-x="675" 
d="M578 1024q32 0 49.5 -18t17.5 -50v-20q0 -32 -17.5 -50t-49.5 -18h-156v-800q0 -32 -18 -50t-50 -18h-32q-32 0 -50 18t-18 50v800h-156q-32 0 -49.5 18t-17.5 50v20q0 32 17.5 50t49.5 18h156v342q0 32 18 50t50 18h32q32 0 50 -18t18 -50v-342h156z" />
    <glyph glyph-name="daggerdbl" unicode="&#x2021;" horiz-adv-x="675" 
d="M645 936q0 -32 -17.5 -50t-49.5 -18h-156v-303h156q67 0 67 -67v-21q0 -67 -67 -67h-156v-342q0 -32 -18 -50t-50 -18h-32q-32 0 -50 18t-18 50v342h-156q-67 0 -67 67v21q0 67 67 67h156v303h-156q-32 0 -49.5 18t-17.5 50v20q0 32 17.5 50t49.5 18h156v342q0 32 18 50
t50 18h32q32 0 50 -18t18 -50v-342h156q32 0 49.5 -18t17.5 -50v-20z" />
    <glyph glyph-name="bullet" unicode="&#x2022;" horiz-adv-x="591" 
d="M297 887q76 0 114 -36.5t38 -121.5t-38 -121.5t-114 -36.5q-78 0 -116 36.5t-38 121.5t38 121.5t116 36.5z" />
    <glyph glyph-name="ellipsis" unicode="&#x2026;" horiz-adv-x="1167" 
d="M213 225q68 0 68 -67v-90q0 -68 -68 -68h-57q-32 0 -50 18t-18 50v90q0 32 18 49.5t50 17.5h57zM612 225q68 0 68 -67v-90q0 -68 -68 -68h-57q-32 0 -50 18t-18 50v90q0 32 18 49.5t50 17.5h57zM1012 225q67 0 67 -67v-90q0 -68 -67 -68h-58q-32 0 -49.5 18t-17.5 50v90
q0 67 67 67h58z" />
    <glyph glyph-name="perthousand" unicode="&#x2030;" horiz-adv-x="1499" 
d="M272 1442q73 0 121.5 -42.5t48.5 -129.5v-266q0 -87 -49 -130t-121 -43h-32q-75 0 -123.5 43t-48.5 130v266q0 87 48.5 129.5t123.5 42.5h32zM860 1434q26 0 34.5 -17t-3.5 -43l-627 -1337q-19 -37 -59 -37h-10q-29 0 -40 16.5t1 42.5l628 1338q16 37 58 37h18zM330 1247
q0 86 -66 86h-18q-64 0 -64 -86v-221q0 -86 64 -86h18q66 0 66 86v221zM809 602q73 0 121.5 -42.5t48.5 -129.5v-266q0 -87 -48.5 -129.5t-121.5 -42.5h-33q-75 0 -123.5 42.5t-48.5 129.5v266q0 87 48.5 129.5t123.5 42.5h33zM1262 602q73 0 121.5 -42.5t48.5 -129.5v-266
q0 -87 -48.5 -129.5t-121.5 -42.5h-33q-75 0 -123.5 42.5t-48.5 129.5v266q0 87 48.5 129.5t123.5 42.5h33zM866 408q0 86 -65 86h-19q-63 0 -63 -86v-222q0 -86 63 -86h19q65 0 65 86v222zM1319 408q0 86 -66 86h-18q-64 0 -64 -86v-222q0 -86 64 -86h18q66 0 66 86v222z
" />
    <glyph glyph-name="guilsinglleft" unicode="&#x2039;" horiz-adv-x="458" 
d="M365 891q38 28 38 82v35q0 44 -24.5 55.5t-56.5 -19.5l-259 -233q-36 -33 -36 -82v-8q0 -49 36 -82l259 -233q32 -30 56.5 -22.5t24.5 46.5v47q0 52 -38 84l-185 164z" />
    <glyph glyph-name="guilsinglright" unicode="&#x203a;" horiz-adv-x="458" 
d="M94 891l185 -166l-185 -164q-39 -33 -39 -84v-47q0 -39 25 -46.5t57 22.5l258 233q37 34 37 82v8q0 48 -37 82l-258 233q-32 31 -57 19.5t-25 -55.5v-35q0 -53 39 -82z" />
    <glyph glyph-name="fraction" unicode="&#x2044;" horiz-adv-x="188" 
d="M285 1397q14 37 53 37h12q26 0 36.5 -14.5t2.5 -39.5l-485 -1343q-14 -37 -54 -37h-12q-26 0 -36.5 14t-2.5 39z" />
    <glyph glyph-name="Euro" unicode="&#x20ac;" horiz-adv-x="925" 
d="M702 891q-67 0 -67 67v152q0 91 -39 130.5t-119 39.5t-119 -39.5t-39 -130.5v-217h187q41 0 41 -41v-16q0 -43 -41 -43h-187v-119h187q41 0 41 -43v-17q0 -41 -41 -41h-187v-249q0 -91 39 -130.5t119 -39.5t119 39.5t39 130.5v186q0 32 17.5 50t49.5 18h58q67 0 67 -68
v-223q0 -303 -348 -303h-4q-348 0 -348 303v286h-78q-41 0 -41 41v17q0 43 41 43h78v119h-78q-41 0 -41 43v16q0 41 41 41h78v254q0 152 90.5 227.5t257.5 75.5h4q167 0 257.5 -75.5t90.5 -227.5v-189q0 -67 -67 -67h-58z" />
    <glyph glyph-name="uni2120" unicode="&#x2120;" horiz-adv-x="823" 
d="M322 1274q0 -29 -29 -29h-27q-28 0 -28 29v35q0 31 -12 44t-38 13q-27 0 -39 -12.5t-12 -44.5v-29q0 -26 10 -39t41 -33l70 -43q66 -43 66 -108v-64q0 -121 -136 -121q-135 0 -135 121v56q0 28 29 28h27q28 0 28 -28v-43q0 -33 12 -45.5t39 -12.5t39.5 12.5t12.5 45.5v34
q0 19 -8.5 32.5t-18.5 21t-37 24.5l-65 41q-58 35 -58 107v57q0 57 37.5 88t97.5 31q61 0 97.5 -31t36.5 -88v-49zM686 1208l-76 -219q-8 -22 -30 -22q-26 0 -31 22l-76 219v-299q0 -13 -8.5 -20.5t-20.5 -7.5h-26q-31 0 -31 28v496q0 13 8.5 21t22.5 8h24q27 0 35 -25
l103 -303l98 303q8 25 33 25h30q29 0 29 -29v-496q0 -28 -29 -28h-26q-29 0 -29 28v299z" />
    <glyph glyph-name="trademark" unicode="&#x2122;" horiz-adv-x="792" 
d="M272 1434q29 0 29 -29v-21q0 -30 -29 -30h-61v-445q0 -28 -29 -28h-30q-29 0 -29 28v445h-62q-28 0 -28 30v21q0 29 28 29h211zM655 1208l-75 -219q-8 -22 -31 -22q-25 0 -31 22l-76 219v-299q0 -28 -28 -28h-27q-31 0 -31 28v496q0 13 8.5 21t22.5 8h25q26 0 34 -25
l103 -303l98 303q8 25 33 25h31q28 0 28 -29v-496q0 -28 -28 -28h-27q-29 0 -29 28v299z" />
    <glyph glyph-name="uni2153" unicode="&#x2153;" horiz-adv-x="1087" 
d="M223 614q0 -49 -49 -49h-37q-49 0 -49 49v701q0 18 12 33q19 21 31 49q15 37 45 37h6q19 0 30 -11.5t11 -31.5v-777zM629 1397q14 37 53 37h12q26 0 36.5 -14.5t2.5 -39.5l-485 -1343q-14 -37 -53 -37h-13q-26 0 -36.5 14t-2.5 39zM999 582q0 -106 -63 -131
q63 -25 63 -123v-150q0 -90 -48.5 -140t-143.5 -50h-31q-95 0 -143.5 50t-48.5 140v78q0 49 49 49h37q49 0 49 -49v-61q0 -86 67 -86h11q67 0 67 86v127q0 65 -63 65h-60q-49 0 -49 49v21q0 49 49 49h47q40 0 58 18.5t18 59.5v86q0 86 -67 86h-13q-35 0 -51 -20t-16 -66v-41
q0 -49 -49 -49h-35q-49 0 -49 49v57q0 191 202 191h11q202 0 202 -191v-104z" />
    <glyph glyph-name="uni2154" unicode="&#x2154;" horiz-adv-x="1327" 
d="M141 1112q-49 0 -49 49v101q0 184 203 184h2q205 0 205 -184v-95q0 -23 -4 -43.5t-15 -40.5t-18.5 -33t-27.5 -33t-29.5 -29t-36 -31.5t-35.5 -30.5q-60 -54 -86.5 -91.5t-26.5 -72.5v-74h230q49 0 49 -49v-21q0 -49 -49 -49h-316q-49 0 -49 49v146q0 40 12 74.5
t40.5 69.5t50.5 56.5t65 59.5q49 43 66.5 60t31 39t13.5 46v76q0 43 -17.5 62.5t-56.5 19.5q-37 0 -53.5 -19.5t-16.5 -62.5v-84q0 -49 -49 -49h-33zM868 1397q14 37 54 37h12q26 0 36.5 -14.5t2.5 -39.5l-486 -1343q-14 -37 -53 -37h-12q-26 0 -36.5 14t-2.5 39zM1239 582
q0 -106 -63 -131q63 -25 63 -123v-150q0 -90 -48.5 -140t-143.5 -50h-31q-95 0 -144 50t-49 140v78q0 49 49 49h37q49 0 49 -49v-61q0 -86 68 -86h10q68 0 68 86v127q0 65 -64 65h-59q-49 0 -49 49v21q0 49 49 49h47q40 0 58 18.5t18 59.5v86q0 86 -68 86h-12
q-35 0 -51.5 -20t-16.5 -66v-41q0 -49 -49 -49h-35q-49 0 -49 49v57q0 191 203 191h10q203 0 203 -191v-104z" />
    <glyph glyph-name="uni2155" unicode="&#x2155;" horiz-adv-x="1122" 
d="M223 614q0 -49 -49 -49h-37q-49 0 -49 49v701q0 18 12 33q19 21 31 49q15 37 45 37h6q19 0 30 -11.5t11 -31.5v-777zM629 1397q14 37 53 37h12q26 0 36.5 -14.5t2.5 -39.5l-485 -1343q-14 -37 -53 -37h-13q-26 0 -36.5 14t-2.5 39zM1026 793q0 -50 -49 -50h-217v-204
q38 41 102 41q82 0 127 -47t45 -132v-229q0 -184 -205 -184h-4q-204 0 -204 184v98q0 49 49 49h32q50 0 50 -49v-82q0 -43 17 -62.5t56 -19.5t56.5 19.5t17.5 62.5v197q0 74 -59 74q-42 0 -72 -37q-19 -22 -41 -16l-61 16q-41 9 -41 53v340q0 49 49 49h303q49 0 49 -49v-22z
" />
    <glyph glyph-name="uni2156" unicode="&#x2156;" horiz-adv-x="1361" 
d="M141 1112q-49 0 -49 49v101q0 184 203 184h2q205 0 205 -184v-95q0 -23 -4 -43.5t-15 -40.5t-18.5 -33t-27.5 -33t-29.5 -29t-36 -31.5t-35.5 -30.5q-60 -54 -86.5 -91.5t-26.5 -72.5v-74h230q49 0 49 -49v-21q0 -49 -49 -49h-316q-49 0 -49 49v146q0 40 12 74.5
t40.5 69.5t50.5 56.5t65 59.5q49 43 66.5 60t31 39t13.5 46v76q0 43 -17.5 62.5t-56.5 19.5q-37 0 -53.5 -19.5t-16.5 -62.5v-84q0 -49 -49 -49h-33zM868 1397q14 37 54 37h12q26 0 36.5 -14.5t2.5 -39.5l-486 -1343q-14 -37 -53 -37h-12q-26 0 -36.5 14t-2.5 39zM1266 793
q0 -50 -49 -50h-218v-204q38 41 105 41q80 0 125 -47.5t45 -131.5v-229q0 -184 -205 -184h-4q-205 0 -205 184v98q0 49 49 49h33q49 0 49 -49v-82q0 -43 17.5 -62.5t56.5 -19.5t56.5 19.5t17.5 62.5v197q0 74 -60 74q-41 0 -71 -37q-19 -22 -41 -16l-60 16q-43 9 -43 53v340
q0 49 49 49h304q49 0 49 -49v-22z" />
    <glyph glyph-name="uni2157" unicode="&#x2157;" horiz-adv-x="1347" 
d="M504 1151q0 -105 -64 -131q64 -26 64 -123v-149q0 -90 -49 -140.5t-144 -50.5h-30q-95 0 -144 50.5t-49 140.5v77q0 49 49 49h37q49 0 49 -49v-61q0 -86 68 -86h10q68 0 68 86v127q0 65 -64 65h-59q-49 0 -49 50v20q0 49 49 49h47q40 0 58 18.5t18 59.5v86q0 86 -68 86
h-12q-35 0 -51.5 -20t-16.5 -66v-41q0 -49 -49 -49h-35q-49 0 -49 49v57q0 191 203 191h10q203 0 203 -191v-104zM854 1397q14 37 53 37h13q26 0 36 -14.5t2 -39.5l-485 -1343q-14 -37 -53 -37h-12q-26 0 -36.5 14t-2.5 39zM1251 793q0 -50 -49 -50h-217v-204q38 41 105 41
q81 0 125.5 -47t44.5 -132v-229q0 -184 -205 -184h-4q-205 0 -205 184v98q0 49 49 49h33q49 0 49 -49v-82q0 -43 17.5 -62.5t56.5 -19.5t56 19.5t17 62.5v197q0 74 -59 74q-42 0 -72 -37q-19 -22 -41 -16l-59 16q-43 9 -43 53v340q0 49 49 49h303q49 0 49 -49v-22z" />
    <glyph glyph-name="uni2158" unicode="&#x2158;" horiz-adv-x="1363" 
d="M420 1434q49 0 49 -50v-497h16q50 0 50 -49v-23q0 -49 -50 -49h-16v-152q0 -49 -49 -49h-37q-49 0 -49 49v152h-197q-49 0 -49 49v35q0 23 10 61l191 484q12 39 57 39h74zM870 1397q14 37 54 37h12q26 0 36.5 -14.5t2.5 -39.5l-486 -1343q-14 -37 -53 -37h-12
q-26 0 -36.5 14t-2.5 39zM334 1237l-131 -350h131v350zM1268 793q0 -50 -49 -50h-218v-204q38 41 103 41q82 0 127 -47t45 -132v-229q0 -184 -205 -184h-4q-205 0 -205 184v98q0 49 49 49h33q49 0 49 -49v-82q0 -43 17.5 -62.5t56.5 -19.5t56.5 19.5t17.5 62.5v197
q0 74 -60 74q-45 0 -71 -37q-19 -22 -41 -16l-62 16q-41 9 -41 53v340q0 49 49 49h304q49 0 49 -49v-22z" />
    <glyph glyph-name="uni2159" unicode="&#x2159;" horiz-adv-x="1124" 
d="M223 614q0 -49 -49 -49h-37q-49 0 -49 49v701q0 18 12 33q19 21 31 49q15 37 45 37h6q19 0 30 -11.5t11 -31.5v-777zM629 1397q14 37 53 37h12q26 0 36.5 -14.5t2.5 -39.5l-485 -1343q-14 -37 -53 -37h-13q-26 0 -36.5 14t-2.5 39zM1038 655q0 -37 -49 -37h-37
q-23 0 -36 13.5t-13 36.5v8q0 43 -17.5 62.5t-56.5 19.5q-40 0 -57.5 -19.5t-17.5 -62.5v-191q28 54 108 54q82 0 127 -47t45 -132v-188q0 -184 -205 -184h-4q-204 0 -204 184v520q0 185 206 185h4q207 0 207 -185v-37zM834 418q-80 0 -80 -74v-156q0 -43 17 -62.5t56 -19.5
t56.5 19.5t17.5 62.5v156q0 41 -16.5 57.5t-50.5 16.5z" />
    <glyph glyph-name="uni215A" unicode="&#x215a;" horiz-adv-x="1359" 
d="M494 1362q0 -49 -50 -49h-217v-205q38 41 103 41q82 0 127 -46.5t45 -131.5v-230q0 -184 -205 -184h-4q-205 0 -205 184v99q0 49 49 49h33q49 0 49 -49v-82q0 -43 17.5 -62.5t56.5 -19.5t56.5 19.5t17.5 62.5v196q0 74 -60 74q-45 0 -71 -37q-19 -22 -41 -16l-62 16
q-41 9 -41 53v340q0 50 49 50h303q50 0 50 -50v-22zM862 1397q14 37 53 37h13q26 0 36.5 -14.5t2.5 -39.5l-486 -1343q-14 -37 -53 -37h-12q-26 0 -36.5 14t-2.5 39zM1272 655q0 -37 -49 -37h-37q-47 0 -47 50v8q0 43 -18 62.5t-58 19.5t-58 -19.5t-18 -62.5v-191
q28 54 111 54q81 0 125.5 -47t44.5 -132v-188q0 -184 -205 -184h-4q-205 0 -205 184v520q0 185 209 185h4q205 0 205 -185v-37zM1067 418q-80 0 -80 -74v-156q0 -43 17.5 -62.5t56.5 -19.5t56.5 19.5t17.5 62.5v156q0 41 -17 57.5t-51 16.5z" />
    <glyph glyph-name="oneeighth" unicode="&#x215b;" horiz-adv-x="1101" 
d="M223 614q0 -49 -49 -49h-37q-49 0 -49 49v701q0 18 12 33q19 21 31 49q15 37 45 37h6q19 0 30 -11.5t11 -31.5v-777zM629 1397q14 37 53 37h12q26 0 36.5 -14.5t2.5 -39.5l-485 -1343q-14 -37 -53 -37h-13q-26 0 -36.5 14t-2.5 39zM823 877q95 0 143 -50t48 -141v-104
q0 -107 -74 -133q74 -35 74 -146v-125q0 -91 -48 -140.5t-143 -49.5h-39q-95 0 -142.5 49.5t-47.5 140.5v125q0 111 78 146q-78 28 -78 133v104q0 91 47.5 141t142.5 50h39zM881 580v90q0 86 -66 86h-22q-64 0 -64 -86v-90q0 -74 64 -74h22q66 0 66 74zM881 195v118
q0 74 -66 74h-22q-64 0 -64 -74v-118q0 -86 64 -86h22q66 0 66 86z" />
    <glyph glyph-name="threeeighths" unicode="&#x215c;" horiz-adv-x="1327" 
d="M504 1151q0 -105 -64 -131q64 -26 64 -123v-149q0 -90 -49 -140.5t-144 -50.5h-30q-95 0 -144 50.5t-49 140.5v77q0 49 49 49h37q49 0 49 -49v-61q0 -86 68 -86h10q68 0 68 86v127q0 65 -64 65h-59q-49 0 -49 50v20q0 49 49 49h47q40 0 58 18.5t18 59.5v86q0 86 -68 86
h-12q-35 0 -51.5 -20t-16.5 -66v-41q0 -49 -49 -49h-35q-49 0 -49 49v57q0 191 203 191h10q203 0 203 -191v-104zM854 1397q14 37 53 37h13q26 0 36 -14.5t2 -39.5l-485 -1343q-14 -37 -53 -37h-12q-26 0 -36.5 14t-2.5 39zM1049 877q95 0 142.5 -50t47.5 -141v-104
q0 -107 -74 -133q74 -35 74 -146v-125q0 -91 -47.5 -140.5t-142.5 -49.5h-39q-95 0 -143 49.5t-48 140.5v125q0 111 78 146q-78 28 -78 133v104q0 91 48 141t143 50h39zM1106 580v90q0 86 -66 86h-22q-64 0 -64 -86v-90q0 -74 64 -74h22q66 0 66 74zM1106 195v118
q0 74 -66 74h-22q-64 0 -64 -74v-118q0 -86 64 -86h22q66 0 66 86z" />
    <glyph glyph-name="fiveeighths" unicode="&#x215d;" horiz-adv-x="1335" 
d="M494 1362q0 -49 -50 -49h-217v-205q38 41 103 41q82 0 127 -46.5t45 -131.5v-230q0 -184 -205 -184h-4q-205 0 -205 184v99q0 49 49 49h33q49 0 49 -49v-82q0 -43 17.5 -62.5t56.5 -19.5t56.5 19.5t17.5 62.5v196q0 74 -60 74q-45 0 -71 -37q-19 -22 -41 -16l-62 16
q-41 9 -41 53v340q0 50 49 50h303q50 0 50 -50v-22zM862 1397q14 37 53 37h13q26 0 36.5 -14.5t2.5 -39.5l-486 -1343q-14 -37 -53 -37h-12q-26 0 -36.5 14t-2.5 39zM1057 877q95 0 142.5 -50t47.5 -141v-104q0 -107 -73 -133q73 -34 73 -146v-125q0 -91 -47.5 -140.5
t-142.5 -49.5h-39q-95 0 -143 49.5t-48 140.5v125q0 111 78 146q-78 28 -78 133v104q0 91 48 141t143 50h39zM1114 580v90q0 86 -65 86h-23q-63 0 -63 -86v-90q0 -74 63 -74h23q65 0 65 74zM1114 195v118q0 74 -65 74h-23q-63 0 -63 -74v-118q0 -86 63 -86h23q65 0 65 86z
" />
    <glyph glyph-name="seveneighths" unicode="&#x215e;" horiz-adv-x="1187" 
d="M467 1354q0 -26 -6 -60l-189 -686q-8 -43 -53 -43h-35q-26 0 -37.5 15t-5.5 41l193 692h-197q-49 0 -49 49v22q0 50 49 50h281q49 0 49 -50v-30zM715 1397q14 37 53 37h12q26 0 36.5 -14.5t2.5 -39.5l-485 -1343q-14 -37 -53 -37h-13q-26 0 -36.5 14t-2.5 39zM909 877
q95 0 143 -50t48 -141v-104q0 -107 -74 -133q74 -35 74 -146v-125q0 -91 -48 -140.5t-143 -49.5h-39q-95 0 -142.5 49.5t-47.5 140.5v125q0 111 78 146q-78 28 -78 133v104q0 91 47.5 141t142.5 50h39zM967 580v90q0 86 -66 86h-22q-64 0 -64 -86v-90q0 -74 64 -74h22
q66 0 66 74zM967 195v118q0 74 -66 74h-22q-64 0 -64 -74v-118q0 -86 64 -86h22q66 0 66 86z" />
    <glyph glyph-name="minus" unicode="&#x2212;" horiz-adv-x="860" 
d="M696 807q68 0 68 -68v-10q0 -67 -68 -67h-532q-68 0 -68 67v10q0 68 68 68h532z" />
    <glyph glyph-name="notequal" unicode="&#x2260;" horiz-adv-x="860" 
d="M696 829h-180l-63 -192h243q32 0 50 -18t18 -50v-12q0 -32 -18 -50t-50 -18h-293l-90 -270q-11 -41 -57 -41h-4q-26 0 -37.5 16t-3.5 42l84 253h-131q-32 0 -50 18t-18 50v12q0 32 18 50t50 18h180l64 192h-244q-32 0 -50 18t-18 50v12q0 32 18 50t50 18h293l90 270
q11 41 57 41h4q26 0 37 -15.5t4 -41.5l-84 -254h131q32 0 50 -18t18 -50v-12q0 -32 -18 -50t-50 -18z" />
    <glyph glyph-name="A.ss01" 
d="M463 1450q168 0 256 -72.5t88 -230.5v-1079q0 -68 -68 -68h-57q-32 0 -50 18t-18 50v426h-311v-426q0 -32 -17.5 -50t-49.5 -18h-58q-67 0 -67 68v1079q0 158 88 230.5t256 72.5h8zM303 666h311v444q0 93 -37 131.5t-118 38.5q-82 0 -119 -38.5t-37 -131.5v-444z" />
    <glyph glyph-name="Aacute.ss01" 
d="M455 1546q-38 0 -52 22t3 56l77 150q22 49 80 49h64q43 0 55.5 -24t-14.5 -58l-125 -156q-33 -39 -82 -39h-6zM463 1450q168 0 256 -72.5t88 -230.5v-1079q0 -68 -68 -68h-57q-32 0 -50 18t-18 50v426h-311v-426q0 -32 -17.5 -50t-49.5 -18h-58q-67 0 -67 68v1079
q0 158 88 230.5t256 72.5h8zM303 666h311v444q0 93 -37 131.5t-118 38.5q-82 0 -119 -38.5t-37 -131.5v-444z" />
    <glyph glyph-name="Abreve.ss01" 
d="M446 1544q-98 0 -152 40.5t-54 121.5v37q0 61 61 61h23q61 0 61 -61v-8q0 -70 70 -70h8q69 0 69 70v8q0 29 16.5 45t45.5 16h22q29 0 45.5 -16t16.5 -45v-39q0 -80 -54.5 -120t-152.5 -40h-25zM463 1450q168 0 256 -72.5t88 -230.5v-1079q0 -68 -68 -68h-57q-32 0 -50 18
t-18 50v426h-311v-426q0 -32 -17.5 -50t-49.5 -18h-58q-67 0 -67 68v1079q0 158 88 230.5t256 72.5h8zM303 666h311v444q0 93 -37 131.5t-118 38.5q-82 0 -119 -38.5t-37 -131.5v-444z" />
    <glyph glyph-name="Acircumflex.ss01" 
d="M289 1546q-35 0 -45 24t12 58l94 148q26 47 80 47h57q56 0 80 -47l95 -148q22 -34 12 -58t-45 -24h-27q-55 0 -80 49l-63 105l-64 -105q-25 -49 -80 -49h-26zM463 1450q168 0 256 -72.5t88 -230.5v-1079q0 -68 -68 -68h-57q-32 0 -50 18t-18 50v426h-311v-426
q0 -32 -17.5 -50t-49.5 -18h-58q-67 0 -67 68v1079q0 158 88 230.5t256 72.5h8zM303 666h311v444q0 93 -37 131.5t-118 38.5q-82 0 -119 -38.5t-37 -131.5v-444z" />
    <glyph glyph-name="Adieresis.ss01" 
d="M279 1546q-34 0 -52 18t-18 50v69q0 32 18 50t52 18h45q32 0 49.5 -18t17.5 -50v-69q0 -32 -17.5 -50t-49.5 -18h-45zM594 1546q-32 0 -50 18t-18 50v69q0 32 18 50t50 18h45q34 0 52 -18t18 -50v-69q0 -32 -18 -50t-52 -18h-45zM463 1450q168 0 256 -72.5t88 -230.5
v-1079q0 -68 -68 -68h-57q-32 0 -50 18t-18 50v426h-311v-426q0 -32 -17.5 -50t-49.5 -18h-58q-67 0 -67 68v1079q0 158 88 230.5t256 72.5h8zM303 666h311v444q0 93 -37 131.5t-118 38.5q-82 0 -119 -38.5t-37 -131.5v-444z" />
    <glyph glyph-name="Agrave.ss01" 
d="M379 1585l-125 156q-28 34 -16 58t55 24h63q58 0 80 -49l78 -150q18 -34 9 -56t-40 -22h-22q-53 0 -82 39zM463 1450q168 0 256 -72.5t88 -230.5v-1079q0 -68 -68 -68h-57q-32 0 -50 18t-18 50v426h-311v-426q0 -32 -17.5 -50t-49.5 -18h-58q-67 0 -67 68v1079
q0 158 88 230.5t256 72.5h8zM303 666h311v444q0 93 -37 131.5t-118 38.5q-82 0 -119 -38.5t-37 -131.5v-444z" />
    <glyph glyph-name="Amacron.ss01" 
d="M295 1546q-32 0 -50 18t-18 50v20q0 32 18 50t50 18h328q32 0 49.5 -18t17.5 -50v-20q0 -32 -17.5 -50t-49.5 -18h-328zM463 1450q168 0 256 -72.5t88 -230.5v-1079q0 -68 -68 -68h-57q-32 0 -50 18t-18 50v426h-311v-426q0 -32 -17.5 -50t-49.5 -18h-58q-67 0 -67 68
v1079q0 158 88 230.5t256 72.5h8zM303 666h311v444q0 93 -37 131.5t-118 38.5q-82 0 -119 -38.5t-37 -131.5v-444z" />
    <glyph glyph-name="Aogonek.ss01" 
d="M463 1450q168 0 256 -72.5t88 -230.5v-1079q0 -68 -68 -68q-80 -37 -100 -102q-17 -55 18 -85q20 -16 50 -16h14q21 3 31 -2.5t10 -23.5v-29q0 -30 -23 -45q-45 -23 -94 -23q-61 0 -102 37t-50 89.5t24.5 115.5t109.5 109q-13 19 -13 43v426h-311v-426q0 -32 -17.5 -50
t-49.5 -18h-58q-67 0 -67 68v1079q0 158 88 230.5t256 72.5h8zM303 666h311v444q0 93 -37 131.5t-118 38.5q-82 0 -119 -38.5t-37 -131.5v-444z" />
    <glyph glyph-name="Aring.ss01" 
d="M459 1534q-79 0 -126.5 42.5t-47.5 115.5t47.5 115t126.5 42q77 0 124.5 -42t47.5 -115t-47.5 -115.5t-124.5 -42.5zM459 1761q-32 0 -52 -18t-20 -51t20 -50.5t52 -17.5t50.5 17.5t18.5 50.5t-19 51t-50 18zM463 1450q168 0 256 -72.5t88 -230.5v-1079q0 -68 -68 -68
h-57q-32 0 -50 18t-18 50v426h-311v-426q0 -32 -17.5 -50t-49.5 -18h-58q-67 0 -67 68v1079q0 158 88 230.5t256 72.5h8zM303 666h311v444q0 93 -37 131.5t-118 38.5q-82 0 -119 -38.5t-37 -131.5v-444z" />
    <glyph glyph-name="Aringacute.ss01" 
d="M428 1896q-38 0 -52 22t3 56l78 150q22 49 80 49h63q43 0 55.5 -24t-14.5 -58l-125 -156q-33 -39 -82 -39h-6zM459 1534q-79 0 -126.5 42.5t-47.5 115.5t47.5 115t126.5 42q77 0 124.5 -42t47.5 -115t-47.5 -115.5t-124.5 -42.5zM459 1761q-32 0 -52 -18t-20 -51
t20 -50.5t52 -17.5t50.5 17.5t18.5 50.5t-19 51t-50 18zM463 1450q168 0 256 -72.5t88 -230.5v-1079q0 -68 -68 -68h-57q-32 0 -50 18t-18 50v426h-311v-426q0 -32 -17.5 -50t-49.5 -18h-58q-67 0 -67 68v1079q0 158 88 230.5t256 72.5h8zM303 666h311v444q0 93 -37 131.5
t-118 38.5q-82 0 -119 -38.5t-37 -131.5v-444z" />
    <glyph glyph-name="Atilde.ss01" 
d="M205 1554q-53 0 -53 56q0 95 52.5 144.5t123.5 49.5q41 0 78.5 -17.5t61 -38.5t51.5 -38.5t52 -17.5q30 0 45 18t15 49q0 37 53 37h29q53 0 53 -55q0 -96 -48.5 -145.5t-119.5 -49.5q-40 0 -79 17.5t-64.5 39t-55.5 39t-55 17.5q-59 0 -59 -68q0 -37 -54 -37h-26z
M463 1450q168 0 256 -72.5t88 -230.5v-1079q0 -68 -68 -68h-57q-32 0 -50 18t-18 50v426h-311v-426q0 -32 -17.5 -50t-49.5 -18h-58q-67 0 -67 68v1079q0 158 88 230.5t256 72.5h8zM303 666h311v444q0 93 -37 131.5t-118 38.5q-82 0 -119 -38.5t-37 -131.5v-444z" />
    <glyph glyph-name="AE.ss01" horiz-adv-x="1267" 
d="M1145 170q67 0 67 -68v-34q0 -68 -67 -68h-475q-68 0 -68 68v419h-299v-419q0 -32 -17.5 -50t-49.5 -18h-58q-67 0 -67 68v1062q0 158 88 231t256 73h684q67 0 67 -68v-35q0 -67 -67 -67h-344v-451h280q68 0 68 -68v-36q0 -68 -68 -68h-280v-471h350zM303 659h299v605
h-143q-82 0 -119 -38.5t-37 -131.5v-435z" />
    <glyph glyph-name="AEacute.ss01" horiz-adv-x="1267" 
d="M700 1546q-38 0 -52 22t3 56l78 150q22 49 80 49h63q43 0 55.5 -24t-14.5 -58l-125 -156q-33 -39 -81 -39h-7zM1145 170q67 0 67 -68v-34q0 -68 -67 -68h-475q-68 0 -68 68v419h-299v-419q0 -32 -17.5 -50t-49.5 -18h-58q-67 0 -67 68v1062q0 158 88 231t256 73h684
q67 0 67 -68v-35q0 -67 -67 -67h-344v-451h280q68 0 68 -68v-36q0 -68 -68 -68h-280v-471h350zM303 659h299v605h-143q-82 0 -119 -38.5t-37 -131.5v-435z" />
    <glyph glyph-name="G.ss01" horiz-adv-x="925" 
d="M819 1016q0 -68 -67 -68h-58q-32 0 -49.5 18t-17.5 50v94q0 92 -40.5 131t-123.5 39t-123.5 -39t-40.5 -131v-786q0 -92 40.5 -131t123.5 -39t123.5 39t40.5 131v239h-105q-67 0 -67 68v28q0 68 67 68h230q67 0 67 -68v-606q0 -28 -13 -43.5t-36 -15.5q-54 0 -68 47
l-20 65q-23 -55 -81.5 -88.5t-143.5 -33.5h-17q-334 0 -334 303v860q0 152 91 227.5t258 75.5h16q167 0 257.5 -75.5t90.5 -227.5v-131z" />
    <glyph glyph-name="Gbreve.ss01" horiz-adv-x="925" 
d="M621 1804q61 0 61 -61v-39q0 -80 -54.5 -120t-152.5 -40h-24q-98 0 -152.5 40.5t-54.5 121.5v37q0 61 61 61h23q61 0 61 -61v-8q0 -70 70 -70h8q70 0 70 70v8q0 61 61 61h23zM819 1016q0 -68 -67 -68h-58q-32 0 -49.5 18t-17.5 50v94q0 92 -40.5 131t-123.5 39
t-123.5 -39t-40.5 -131v-786q0 -92 40.5 -131t123.5 -39t123.5 39t40.5 131v239h-105q-67 0 -67 68v28q0 68 67 68h230q67 0 67 -68v-606q0 -28 -13 -43.5t-36 -15.5q-54 0 -68 47l-20 65q-23 -55 -81.5 -88.5t-143.5 -33.5h-17q-334 0 -334 303v860q0 152 91 227.5
t258 75.5h16q167 0 257.5 -75.5t90.5 -227.5v-131z" />
    <glyph glyph-name="Gcommaaccent.ss01" horiz-adv-x="925" 
d="M819 1016q0 -68 -67 -68h-58q-32 0 -49.5 18t-17.5 50v94q0 92 -40.5 131t-123.5 39t-123.5 -39t-40.5 -131v-786q0 -92 40.5 -131t123.5 -39t123.5 39t40.5 131v239h-105q-67 0 -67 68v28q0 68 67 68h230q67 0 67 -68v-606q0 -28 -13 -43.5t-36 -15.5q-54 0 -68 47
l-20 65q-23 -55 -81.5 -88.5t-143.5 -33.5h-17q-334 0 -334 303v860q0 152 91 227.5t258 75.5h16q167 0 257.5 -75.5t90.5 -227.5v-131zM487 -143q68 0 68 -68v-102q0 -140 -74 -267q-35 -50 -73 -30q-35 14 -2 78q41 83 47 163h-23q-32 0 -50 18t-18 50v90q0 32 18 50
t50 18h57z" />
    <glyph glyph-name="Gdotaccent.ss01" horiz-adv-x="925" 
d="M485 1751q68 0 68 -68v-69q0 -68 -68 -68h-45q-67 0 -67 68v69q0 68 67 68h45zM819 1016q0 -68 -67 -68h-58q-32 0 -49.5 18t-17.5 50v94q0 92 -40.5 131t-123.5 39t-123.5 -39t-40.5 -131v-786q0 -92 40.5 -131t123.5 -39t123.5 39t40.5 131v239h-105q-67 0 -67 68v28
q0 68 67 68h230q67 0 67 -68v-606q0 -28 -13 -43.5t-36 -15.5q-54 0 -68 47l-20 65q-23 -55 -81.5 -88.5t-143.5 -33.5h-17q-334 0 -334 303v860q0 152 91 227.5t258 75.5h16q167 0 257.5 -75.5t90.5 -227.5v-131z" />
    <glyph glyph-name="M.ss01" horiz-adv-x="1390" 
d="M1014 1450q122 0 194 -74t72 -227v-1081q0 -68 -68 -68h-55q-34 0 -52 18t-18 50v1034q0 178 -133 178q-74 0 -116.5 -47t-42.5 -131v-1034q0 -32 -18 -50t-50 -18h-57q-68 0 -68 68v1034q0 178 -135 178q-74 0 -117 -47t-43 -131v-1034q0 -32 -17.5 -50t-49.5 -18h-58
q-67 0 -67 68v1298q0 68 67 68h58q32 0 49.5 -18t17.5 -50v-41q71 125 219 125q183 0 242 -152q70 152 246 152z" />
    <glyph glyph-name="N.ss01" horiz-adv-x="921" 
d="M811 68q0 -68 -68 -68h-57q-32 0 -50 18t-18 50v1034q0 178 -143 178q-77 0 -122.5 -46t-45.5 -132v-1034q0 -32 -17.5 -50t-49.5 -18h-58q-67 0 -67 68v1298q0 68 67 68h58q32 0 49.5 -18t17.5 -50v-41q71 125 230 125q125 0 199.5 -74t74.5 -227v-1081z" />
    <glyph glyph-name="Nacute.ss01" horiz-adv-x="921" 
d="M487 1774q22 49 80 49h64q43 0 55.5 -24t-14.5 -58l-125 -156q-33 -39 -82 -39h-6q-38 0 -52 22t3 56zM811 68q0 -68 -68 -68h-57q-32 0 -50 18t-18 50v1034q0 178 -143 178q-77 0 -122.5 -46t-45.5 -132v-1034q0 -32 -17.5 -50t-49.5 -18h-58q-67 0 -67 68v1298
q0 68 67 68h58q32 0 49.5 -18t17.5 -50v-41q71 125 230 125q125 0 199.5 -74t74.5 -227v-1081z" />
    <glyph glyph-name="Ncaron.ss01" horiz-adv-x="921" 
d="M666 1741q22 34 12 58t-45 24h-27q-56 0 -80 -47l-63 -107l-66 107q-21 47 -78 47h-16q-39 0 -51.5 -24t8.5 -58l94 -148q26 -47 80 -47h55q56 0 82 47zM811 68q0 -68 -68 -68h-57q-32 0 -50 18t-18 50v1034q0 178 -143 178q-77 0 -122.5 -46t-45.5 -132v-1034
q0 -32 -17.5 -50t-49.5 -18h-58q-67 0 -67 68v1298q0 68 67 68h58q32 0 49.5 -18t17.5 -50v-41q71 125 230 125q125 0 199.5 -74t74.5 -227v-1081z" />
    <glyph glyph-name="Ncommaaccent.ss01" horiz-adv-x="921" 
d="M811 68q0 -68 -68 -68h-57q-32 0 -50 18t-18 50v1034q0 178 -143 178q-77 0 -122.5 -46t-45.5 -132v-1034q0 -32 -17.5 -50t-49.5 -18h-58q-67 0 -67 68v1298q0 68 67 68h58q32 0 49.5 -18t17.5 -50v-41q71 125 230 125q125 0 199.5 -74t74.5 -227v-1081zM487 -143
q68 0 68 -68v-102q0 -140 -74 -267q-35 -50 -73 -30q-35 14 -2 78q41 83 47 163h-23q-32 0 -50 18t-18 50v90q0 32 18 50t50 18h57z" />
    <glyph glyph-name="Eng.ss01" horiz-adv-x="921" 
d="M537 1450q125 0 199.5 -74t74.5 -227v-1163q0 -156 -90.5 -229.5t-255.5 -73.5h-6q-68 0 -68 67v33q0 67 68 67h2q78 0 117.5 39t39.5 131v1082q0 178 -143 178q-77 0 -122.5 -46t-45.5 -132v-1034q0 -32 -17.5 -50t-49.5 -18h-58q-67 0 -67 68v1298q0 68 67 68h58
q32 0 49.5 -18t17.5 -50v-41q71 125 230 125z" />
    <glyph glyph-name="Ntilde.ss01" horiz-adv-x="921" 
d="M289 1591q0 68 59 68q25 0 55 -17.5t55.5 -39t64.5 -39t79 -17.5q71 0 119.5 49.5t48.5 145.5q0 55 -53 55h-29q-53 0 -53 -37q0 -31 -15 -49t-45 -18q-24 0 -52 17.5t-51.5 38.5t-61 38.5t-78.5 17.5q-71 0 -123.5 -49.5t-52.5 -144.5q0 -56 53 -56h27q53 0 53 37z
M811 68q0 -68 -68 -68h-57q-32 0 -50 18t-18 50v1034q0 178 -143 178q-77 0 -122.5 -46t-45.5 -132v-1034q0 -32 -17.5 -50t-49.5 -18h-58q-67 0 -67 68v1298q0 68 67 68h58q32 0 49.5 -18t17.5 -50v-41q71 125 230 125q125 0 199.5 -74t74.5 -227v-1081z" />
    <glyph glyph-name="Q.ss01" horiz-adv-x="925" 
d="M819 287q0 -137 -71.5 -211t-206.5 -88q15 -116 129 -101q34 2 52.5 -9t25.5 -40q6 -31 -7 -52.5t-45 -27.5q-57 -12 -108 -5t-86.5 28t-60 53t-28.5 70.5t7 79.5q-314 16 -314 303v860q0 303 349 303h16q168 0 258 -74.5t90 -228.5v-860zM627 324v786q0 92 -40.5 131
t-123.5 39t-123.5 -39t-40.5 -131v-786q0 -92 40.5 -131t123.5 -39t123.5 39t40.5 131z" />
    <glyph glyph-name="R.ss01" horiz-adv-x="915" 
d="M813 1130v-229q0 -80 -49.5 -142.5t-130.5 -74.5q87 -14 133.5 -74t46.5 -129v-291q0 -99 29 -131q4 -4 10 -9t9.5 -8t6 -8t2.5 -11q0 -25 -39 -25h-65q-41 0 -70.5 16.5t-45 45.5t-22.5 61t-7 69v263q0 82 -41 113.5t-123 31.5h-150v-530q0 -32 -17.5 -50t-49.5 -18h-58
q-67 0 -67 68v1298q0 68 67 68h283q167 0 257.5 -75t90.5 -229zM307 768h150q80 0 122 36.5t42 119.5v170q0 92 -40.5 131t-123.5 39h-150v-496z" />
    <glyph glyph-name="Racute.ss01" horiz-adv-x="915" 
d="M459 1774q22 49 80 49h63q43 0 55.5 -24t-14.5 -58l-125 -156q-33 -39 -82 -39h-6q-38 0 -52 22t3 56zM813 1130v-229q0 -80 -49.5 -142.5t-130.5 -74.5q87 -14 133.5 -74t46.5 -129v-291q0 -99 29 -131q4 -4 10 -9t9.5 -8t6 -8t2.5 -11q0 -25 -39 -25h-65
q-41 0 -70.5 16.5t-45 45.5t-22.5 61t-7 69v263q0 82 -41 113.5t-123 31.5h-150v-530q0 -32 -17.5 -50t-49.5 -18h-58q-67 0 -67 68v1298q0 68 67 68h283q167 0 257.5 -75t90.5 -229zM307 768h150q80 0 122 36.5t42 119.5v170q0 92 -40.5 131t-123.5 39h-150v-496z" />
    <glyph glyph-name="Rcaron.ss01" horiz-adv-x="915" 
d="M637 1741q22 34 12 58t-45 24h-26q-56 0 -80 -47l-64 -107l-65 107q-21 47 -78 47h-17q-39 0 -51.5 -24t8.5 -58l95 -148q26 -47 80 -47h55q56 0 82 47zM813 1130v-229q0 -80 -49.5 -142.5t-130.5 -74.5q87 -14 133.5 -74t46.5 -129v-291q0 -99 29 -131q4 -4 10 -9
t9.5 -8t6 -8t2.5 -11q0 -25 -39 -25h-65q-41 0 -70.5 16.5t-45 45.5t-22.5 61t-7 69v263q0 82 -41 113.5t-123 31.5h-150v-530q0 -32 -17.5 -50t-49.5 -18h-58q-67 0 -67 68v1298q0 68 67 68h283q167 0 257.5 -75t90.5 -229zM307 768h150q80 0 122 36.5t42 119.5v170
q0 92 -40.5 131t-123.5 39h-150v-496z" />
    <glyph glyph-name="Rcommaaccent.ss01" horiz-adv-x="915" 
d="M813 1130v-229q0 -80 -49.5 -142.5t-130.5 -74.5q87 -14 133.5 -74t46.5 -129v-291q0 -99 29 -131q4 -4 10 -9t9.5 -8t6 -8t2.5 -11q0 -25 -39 -25h-65q-41 0 -70.5 16.5t-45 45.5t-22.5 61t-7 69v263q0 82 -41 113.5t-123 31.5h-150v-530q0 -32 -17.5 -50t-49.5 -18h-58
q-67 0 -67 68v1298q0 68 67 68h283q167 0 257.5 -75t90.5 -229zM307 768h150q80 0 122 36.5t42 119.5v170q0 92 -40.5 131t-123.5 39h-150v-496zM510 -143q68 0 68 -68v-102q0 -140 -74 -267q-36 -50 -74 -30q-35 14 -2 78q41 83 47 163h-22q-32 0 -50 18t-18 50v90
q0 32 18 50t50 18h57z" />
    <glyph glyph-name="W.ss01" horiz-adv-x="1386" 
d="M1083 1366q0 32 18 50t52 18h55q68 0 68 -68v-1073q0 -80 -27.5 -141t-75 -97t-105.5 -53.5t-126 -17.5q-79 0 -146 30t-104 97q-35 -67 -102.5 -97t-145.5 -30q-67 0 -125.5 17.5t-106 53t-74.5 95t-27 137.5v1079q0 68 67 68h58q32 0 49.5 -18t17.5 -50v-1032
q0 -180 148 -180q70 0 108.5 45.5t38.5 134.5v1032q0 68 68 68h57q32 0 50 -18t18 -50v-1032q0 -180 147 -180q70 0 107.5 45t37.5 135v1032z" />
    <glyph glyph-name="Wacute.ss01" horiz-adv-x="1386" 
d="M719 1774q22 49 80 49h63q43 0 55.5 -24t-14.5 -58l-125 -156q-33 -39 -82 -39h-6q-38 0 -52 22t3 56zM1083 1366q0 32 18 50t52 18h55q68 0 68 -68v-1073q0 -80 -27.5 -141t-75 -97t-105.5 -53.5t-126 -17.5q-79 0 -146 30t-104 97q-35 -67 -102.5 -97t-145.5 -30
q-67 0 -125.5 17.5t-106 53t-74.5 95t-27 137.5v1079q0 68 67 68h58q32 0 49.5 -18t17.5 -50v-1032q0 -180 148 -180q70 0 108.5 45.5t38.5 134.5v1032q0 68 68 68h57q32 0 50 -18t18 -50v-1032q0 -180 147 -180q70 0 107.5 45t37.5 135v1032z" />
    <glyph glyph-name="Wcircumflex.ss01" horiz-adv-x="1386" 
d="M864 1546q35 0 45 24t-12 58l-94 148q-24 47 -80 47h-57q-54 0 -80 -47l-94 -148q-22 -34 -12.5 -58t44.5 -24h27q55 0 80 49l63 105l64 -105q25 -49 80 -49h26zM1083 1366q0 32 18 50t52 18h55q68 0 68 -68v-1073q0 -80 -27.5 -141t-75 -97t-105.5 -53.5t-126 -17.5
q-79 0 -146 30t-104 97q-35 -67 -102.5 -97t-145.5 -30q-67 0 -125.5 17.5t-106 53t-74.5 95t-27 137.5v1079q0 68 67 68h58q32 0 49.5 -18t17.5 -50v-1032q0 -180 148 -180q70 0 108.5 45.5t38.5 134.5v1032q0 68 68 68h57q32 0 50 -18t18 -50v-1032q0 -180 147 -180
q70 0 107.5 45t37.5 135v1032z" />
    <glyph glyph-name="Wdieresis.ss01" horiz-adv-x="1386" 
d="M559 1751q32 0 50 -18t18 -50v-69q0 -32 -18 -50t-50 -18h-45q-34 0 -52 18t-18 50v69q0 32 18 50t52 18h45zM874 1751q34 0 52 -18t18 -50v-69q0 -32 -18 -50t-52 -18h-45q-32 0 -49.5 18t-17.5 50v69q0 32 17.5 50t49.5 18h45zM1083 1366q0 32 18 50t52 18h55
q68 0 68 -68v-1073q0 -80 -27.5 -141t-75 -97t-105.5 -53.5t-126 -17.5q-79 0 -146 30t-104 97q-35 -67 -102.5 -97t-145.5 -30q-67 0 -125.5 17.5t-106 53t-74.5 95t-27 137.5v1079q0 68 67 68h58q32 0 49.5 -18t17.5 -50v-1032q0 -180 148 -180q70 0 108.5 45.5
t38.5 134.5v1032q0 68 68 68h57q32 0 50 -18t18 -50v-1032q0 -180 147 -180q70 0 107.5 45t37.5 135v1032z" />
    <glyph glyph-name="Wgrave.ss01" horiz-adv-x="1386" 
d="M592 1823q58 0 80 -49l78 -150q18 -34 9 -56t-40 -22h-23q-53 0 -82 39l-125 156q-28 34 -16 58t55 24h64zM1083 1366q0 32 18 50t52 18h55q68 0 68 -68v-1073q0 -80 -27.5 -141t-75 -97t-105.5 -53.5t-126 -17.5q-79 0 -146 30t-104 97q-35 -67 -102.5 -97t-145.5 -30
q-67 0 -125.5 17.5t-106 53t-74.5 95t-27 137.5v1079q0 68 67 68h58q32 0 49.5 -18t17.5 -50v-1032q0 -180 148 -180q70 0 108.5 45.5t38.5 134.5v1032q0 68 68 68h57q32 0 50 -18t18 -50v-1032q0 -180 147 -180q70 0 107.5 45t37.5 135v1032z" />
    <glyph glyph-name="Y.ss01" horiz-adv-x="913" 
d="M610 1366q0 32 18 50t50 18h57q68 0 68 -68v-1079q0 -303 -344 -303h-8q-169 0 -257 72.5t-88 230.5v65q0 68 68 68h57q32 0 50 -18t18 -50v-28q0 -93 37 -131.5t119 -38.5q81 0 118 38.5t37 131.5v358q-73 -125 -229 -125q-126 0 -200.5 74.5t-74.5 228.5v506
q0 68 68 68h57q32 0 50 -18t18 -50v-459q0 -180 143 -180q77 0 122.5 46.5t45.5 133.5v459z" />
    <glyph glyph-name="Yacute.ss01" horiz-adv-x="913" 
d="M479 1774q22 49 80 49h64q43 0 55.5 -24t-14.5 -58l-125 -156q-33 -39 -82 -39h-6q-38 0 -52.5 22t2.5 56zM610 1366q0 32 18 50t50 18h57q68 0 68 -68v-1079q0 -303 -344 -303h-8q-169 0 -257 72.5t-88 230.5v65q0 68 68 68h57q32 0 50 -18t18 -50v-28q0 -93 37 -131.5
t119 -38.5q81 0 118 38.5t37 131.5v358q-73 -125 -229 -125q-126 0 -200.5 74.5t-74.5 228.5v506q0 68 68 68h57q32 0 50 -18t18 -50v-459q0 -180 143 -180q77 0 122.5 46.5t45.5 133.5v459z" />
    <glyph glyph-name="Ycircumflex.ss01" horiz-adv-x="913" 
d="M625 1546q35 0 44.5 24t-12.5 58l-94 148q-24 47 -80 47h-57q-54 0 -80 -47l-94 -148q-22 -34 -12 -58t45 -24h26q55 0 80 49l64 105l63 -105q25 -49 80 -49h27zM610 1366q0 32 18 50t50 18h57q68 0 68 -68v-1079q0 -303 -344 -303h-8q-169 0 -257 72.5t-88 230.5v65
q0 68 68 68h57q32 0 50 -18t18 -50v-28q0 -93 37 -131.5t119 -38.5q81 0 118 38.5t37 131.5v358q-73 -125 -229 -125q-126 0 -200.5 74.5t-74.5 228.5v506q0 68 68 68h57q32 0 50 -18t18 -50v-459q0 -180 143 -180q77 0 122.5 46.5t45.5 133.5v459z" />
    <glyph glyph-name="Ydieresis.ss01" horiz-adv-x="913" 
d="M319 1751q32 0 50 -18t18 -50v-69q0 -32 -18 -50t-50 -18h-45q-69 0 -69 68v69q0 68 69 68h45zM635 1751q34 0 52 -18t18 -50v-69q0 -32 -18 -50t-52 -18h-45q-32 0 -50 18t-18 50v69q0 32 18 50t50 18h45zM610 1366q0 32 18 50t50 18h57q68 0 68 -68v-1079
q0 -303 -344 -303h-8q-169 0 -257 72.5t-88 230.5v65q0 68 68 68h57q32 0 50 -18t18 -50v-28q0 -93 37 -131.5t119 -38.5q81 0 118 38.5t37 131.5v358q-73 -125 -229 -125q-126 0 -200.5 74.5t-74.5 228.5v506q0 68 68 68h57q32 0 50 -18t18 -50v-459q0 -180 143 -180
q77 0 122.5 46.5t45.5 133.5v459z" />
    <glyph glyph-name="Ygrave.ss01" horiz-adv-x="913" 
d="M352 1823q58 0 80 -49l78 -150q18 -34 9 -56t-40 -22h-22q-53 0 -82 39l-125 156q-28 34 -16 58t55 24h63zM610 1366q0 32 18 50t50 18h57q68 0 68 -68v-1079q0 -303 -344 -303h-8q-169 0 -257 72.5t-88 230.5v65q0 68 68 68h57q32 0 50 -18t18 -50v-28q0 -93 37 -131.5
t119 -38.5q81 0 118 38.5t37 131.5v358q-73 -125 -229 -125q-126 0 -200.5 74.5t-74.5 228.5v506q0 68 68 68h57q32 0 50 -18t18 -50v-459q0 -180 143 -180q77 0 122.5 46.5t45.5 133.5v459z" />
    <glyph glyph-name="i.loclTRK" horiz-adv-x="438" 
d="M242 1751q67 0 67 -68v-69q0 -68 -67 -68h-45q-68 0 -68 68v69q0 68 68 68h45zM315 68q0 -32 -17.5 -50t-49.5 -18h-58q-67 0 -67 68v1298q0 68 67 68h58q32 0 49.5 -18t17.5 -50v-1298z" />
    <glyph glyph-name="a.ss01" 
d="M463 1450q168 0 256 -72.5t88 -230.5v-1079q0 -68 -68 -68h-57q-32 0 -50 18t-18 50v426h-311v-426q0 -32 -17.5 -50t-49.5 -18h-58q-67 0 -67 68v1079q0 158 88 230.5t256 72.5h8zM303 666h311v444q0 93 -37 131.5t-118 38.5q-82 0 -119 -38.5t-37 -131.5v-444z" />
    <glyph glyph-name="aacute.ss01" 
d="M455 1546q-38 0 -52 22t3 56l77 150q22 49 80 49h64q43 0 55.5 -24t-14.5 -58l-125 -156q-33 -39 -82 -39h-6zM463 1450q168 0 256 -72.5t88 -230.5v-1079q0 -68 -68 -68h-57q-32 0 -50 18t-18 50v426h-311v-426q0 -32 -17.5 -50t-49.5 -18h-58q-67 0 -67 68v1079
q0 158 88 230.5t256 72.5h8zM303 666h311v444q0 93 -37 131.5t-118 38.5q-82 0 -119 -38.5t-37 -131.5v-444z" />
    <glyph glyph-name="abreve.ss01" 
d="M446 1544q-98 0 -152 40.5t-54 121.5v37q0 61 61 61h23q61 0 61 -61v-8q0 -70 70 -70h8q69 0 69 70v8q0 29 16.5 45t45.5 16h22q29 0 45.5 -16t16.5 -45v-39q0 -80 -54.5 -120t-152.5 -40h-25zM463 1450q168 0 256 -72.5t88 -230.5v-1079q0 -68 -68 -68h-57q-32 0 -50 18
t-18 50v426h-311v-426q0 -32 -17.5 -50t-49.5 -18h-58q-67 0 -67 68v1079q0 158 88 230.5t256 72.5h8zM303 666h311v444q0 93 -37 131.5t-118 38.5q-82 0 -119 -38.5t-37 -131.5v-444z" />
    <glyph glyph-name="acircumflex.ss01" 
d="M289 1546q-35 0 -45 24t12 58l94 148q26 47 80 47h57q56 0 80 -47l95 -148q22 -34 12 -58t-45 -24h-27q-55 0 -80 49l-63 105l-64 -105q-25 -49 -80 -49h-26zM463 1450q168 0 256 -72.5t88 -230.5v-1079q0 -68 -68 -68h-57q-32 0 -50 18t-18 50v426h-311v-426
q0 -32 -17.5 -50t-49.5 -18h-58q-67 0 -67 68v1079q0 158 88 230.5t256 72.5h8zM303 666h311v444q0 93 -37 131.5t-118 38.5q-82 0 -119 -38.5t-37 -131.5v-444z" />
    <glyph glyph-name="adieresis.ss01" 
d="M279 1546q-34 0 -52 18t-18 50v69q0 32 18 50t52 18h45q32 0 49.5 -18t17.5 -50v-69q0 -32 -17.5 -50t-49.5 -18h-45zM594 1546q-32 0 -50 18t-18 50v69q0 32 18 50t50 18h45q34 0 52 -18t18 -50v-69q0 -32 -18 -50t-52 -18h-45zM463 1450q168 0 256 -72.5t88 -230.5
v-1079q0 -68 -68 -68h-57q-32 0 -50 18t-18 50v426h-311v-426q0 -32 -17.5 -50t-49.5 -18h-58q-67 0 -67 68v1079q0 158 88 230.5t256 72.5h8zM303 666h311v444q0 93 -37 131.5t-118 38.5q-82 0 -119 -38.5t-37 -131.5v-444z" />
    <glyph glyph-name="agrave.ss01" 
d="M379 1585l-125 156q-28 34 -16 58t55 24h63q58 0 80 -49l78 -150q18 -34 9 -56t-40 -22h-22q-53 0 -82 39zM463 1450q168 0 256 -72.5t88 -230.5v-1079q0 -68 -68 -68h-57q-32 0 -50 18t-18 50v426h-311v-426q0 -32 -17.5 -50t-49.5 -18h-58q-67 0 -67 68v1079
q0 158 88 230.5t256 72.5h8zM303 666h311v444q0 93 -37 131.5t-118 38.5q-82 0 -119 -38.5t-37 -131.5v-444z" />
    <glyph glyph-name="amacron.ss01" 
d="M295 1546q-32 0 -50 18t-18 50v20q0 32 18 50t50 18h328q32 0 49.5 -18t17.5 -50v-20q0 -32 -17.5 -50t-49.5 -18h-328zM463 1450q168 0 256 -72.5t88 -230.5v-1079q0 -68 -68 -68h-57q-32 0 -50 18t-18 50v426h-311v-426q0 -32 -17.5 -50t-49.5 -18h-58q-67 0 -67 68
v1079q0 158 88 230.5t256 72.5h8zM303 666h311v444q0 93 -37 131.5t-118 38.5q-82 0 -119 -38.5t-37 -131.5v-444z" />
    <glyph glyph-name="aogonek.ss01" 
d="M463 1450q168 0 256 -72.5t88 -230.5v-1079q0 -68 -68 -68q-80 -37 -100 -102q-17 -55 18 -85q20 -16 50 -16h14q21 3 31 -2.5t10 -23.5v-29q0 -30 -23 -45q-45 -23 -94 -23q-61 0 -102 37t-50 89.5t24.5 115.5t109.5 109q-13 19 -13 43v426h-311v-426q0 -32 -17.5 -50
t-49.5 -18h-58q-67 0 -67 68v1079q0 158 88 230.5t256 72.5h8zM303 666h311v444q0 93 -37 131.5t-118 38.5q-82 0 -119 -38.5t-37 -131.5v-444z" />
    <glyph glyph-name="aring.ss01" 
d="M459 1534q-79 0 -126.5 42.5t-47.5 115.5t47.5 115t126.5 42q77 0 124.5 -42t47.5 -115t-47.5 -115.5t-124.5 -42.5zM459 1761q-32 0 -52 -18t-20 -51t20 -50.5t52 -17.5t50.5 17.5t18.5 50.5t-19 51t-50 18zM463 1450q168 0 256 -72.5t88 -230.5v-1079q0 -68 -68 -68
h-57q-32 0 -50 18t-18 50v426h-311v-426q0 -32 -17.5 -50t-49.5 -18h-58q-67 0 -67 68v1079q0 158 88 230.5t256 72.5h8zM303 666h311v444q0 93 -37 131.5t-118 38.5q-82 0 -119 -38.5t-37 -131.5v-444z" />
    <glyph glyph-name="aringacute.ss01" 
d="M428 1896q-38 0 -52 22t3 56l78 150q22 49 80 49h63q43 0 55.5 -24t-14.5 -58l-125 -156q-33 -39 -82 -39h-6zM459 1534q-79 0 -126.5 42.5t-47.5 115.5t47.5 115t126.5 42q77 0 124.5 -42t47.5 -115t-47.5 -115.5t-124.5 -42.5zM459 1761q-32 0 -52 -18t-20 -51
t20 -50.5t52 -17.5t50.5 17.5t18.5 50.5t-19 51t-50 18zM463 1450q168 0 256 -72.5t88 -230.5v-1079q0 -68 -68 -68h-57q-32 0 -50 18t-18 50v426h-311v-426q0 -32 -17.5 -50t-49.5 -18h-58q-67 0 -67 68v1079q0 158 88 230.5t256 72.5h8zM303 666h311v444q0 93 -37 131.5
t-118 38.5q-82 0 -119 -38.5t-37 -131.5v-444z" />
    <glyph glyph-name="atilde.ss01" 
d="M205 1554q-53 0 -53 56q0 95 52.5 144.5t123.5 49.5q41 0 78.5 -17.5t61 -38.5t51.5 -38.5t52 -17.5q30 0 45 18t15 49q0 37 53 37h29q53 0 53 -55q0 -96 -48.5 -145.5t-119.5 -49.5q-40 0 -79 17.5t-64.5 39t-55.5 39t-55 17.5q-59 0 -59 -68q0 -37 -54 -37h-26z
M463 1450q168 0 256 -72.5t88 -230.5v-1079q0 -68 -68 -68h-57q-32 0 -50 18t-18 50v426h-311v-426q0 -32 -17.5 -50t-49.5 -18h-58q-67 0 -67 68v1079q0 158 88 230.5t256 72.5h8zM303 666h311v444q0 93 -37 131.5t-118 38.5q-82 0 -119 -38.5t-37 -131.5v-444z" />
    <glyph glyph-name="ae.ss01" horiz-adv-x="1267" 
d="M1145 170q67 0 67 -68v-34q0 -68 -67 -68h-475q-68 0 -68 68v419h-299v-419q0 -32 -17.5 -50t-49.5 -18h-58q-67 0 -67 68v1062q0 158 88 231t256 73h684q67 0 67 -68v-35q0 -67 -67 -67h-344v-451h280q68 0 68 -68v-36q0 -68 -68 -68h-280v-471h350zM303 659h299v605
h-143q-82 0 -119 -38.5t-37 -131.5v-435z" />
    <glyph glyph-name="aeacute.ss01" horiz-adv-x="1267" 
d="M700 1546q-38 0 -52 22t3 56l78 150q22 49 80 49h63q43 0 55.5 -24t-14.5 -58l-125 -156q-33 -39 -81 -39h-7zM1145 170q67 0 67 -68v-34q0 -68 -67 -68h-475q-68 0 -68 68v419h-299v-419q0 -32 -17.5 -50t-49.5 -18h-58q-67 0 -67 68v1062q0 158 88 231t256 73h684
q67 0 67 -68v-35q0 -67 -67 -67h-344v-451h280q68 0 68 -68v-36q0 -68 -68 -68h-280v-471h350zM303 659h299v605h-143q-82 0 -119 -38.5t-37 -131.5v-435z" />
    <glyph glyph-name="g.ss01" horiz-adv-x="925" 
d="M819 1016q0 -68 -67 -68h-58q-32 0 -49.5 18t-17.5 50v94q0 92 -40.5 131t-123.5 39t-123.5 -39t-40.5 -131v-786q0 -92 40.5 -131t123.5 -39t123.5 39t40.5 131v239h-105q-67 0 -67 68v28q0 68 67 68h230q67 0 67 -68v-606q0 -28 -13 -43.5t-36 -15.5q-54 0 -68 47
l-20 65q-23 -55 -81.5 -88.5t-143.5 -33.5h-17q-334 0 -334 303v860q0 152 91 227.5t258 75.5h16q167 0 257.5 -75.5t90.5 -227.5v-131z" />
    <glyph glyph-name="gbreve.ss01" horiz-adv-x="925" 
d="M621 1804q61 0 61 -61v-39q0 -80 -54.5 -120t-152.5 -40h-24q-98 0 -152.5 40.5t-54.5 121.5v37q0 61 61 61h23q61 0 61 -61v-8q0 -70 70 -70h8q70 0 70 70v8q0 61 61 61h23zM819 1016q0 -68 -67 -68h-58q-32 0 -49.5 18t-17.5 50v94q0 92 -40.5 131t-123.5 39
t-123.5 -39t-40.5 -131v-786q0 -92 40.5 -131t123.5 -39t123.5 39t40.5 131v239h-105q-67 0 -67 68v28q0 68 67 68h230q67 0 67 -68v-606q0 -28 -13 -43.5t-36 -15.5q-54 0 -68 47l-20 65q-23 -55 -81.5 -88.5t-143.5 -33.5h-17q-334 0 -334 303v860q0 152 91 227.5
t258 75.5h16q167 0 257.5 -75.5t90.5 -227.5v-131z" />
    <glyph glyph-name="gcommaaccent.ss01" horiz-adv-x="925" 
d="M819 1016q0 -68 -67 -68h-58q-32 0 -49.5 18t-17.5 50v94q0 92 -40.5 131t-123.5 39t-123.5 -39t-40.5 -131v-786q0 -92 40.5 -131t123.5 -39t123.5 39t40.5 131v239h-105q-67 0 -67 68v28q0 68 67 68h230q67 0 67 -68v-606q0 -28 -13 -43.5t-36 -15.5q-54 0 -68 47
l-20 65q-23 -55 -81.5 -88.5t-143.5 -33.5h-17q-334 0 -334 303v860q0 152 91 227.5t258 75.5h16q167 0 257.5 -75.5t90.5 -227.5v-131zM487 -143q68 0 68 -68v-102q0 -140 -74 -267q-35 -50 -73 -30q-35 14 -2 78q41 83 47 163h-23q-32 0 -50 18t-18 50v90q0 32 18 50
t50 18h57z" />
    <glyph glyph-name="gdotaccent.ss01" horiz-adv-x="925" 
d="M485 1751q68 0 68 -68v-69q0 -68 -68 -68h-45q-67 0 -67 68v69q0 68 67 68h45zM819 1016q0 -68 -67 -68h-58q-32 0 -49.5 18t-17.5 50v94q0 92 -40.5 131t-123.5 39t-123.5 -39t-40.5 -131v-786q0 -92 40.5 -131t123.5 -39t123.5 39t40.5 131v239h-105q-67 0 -67 68v28
q0 68 67 68h230q67 0 67 -68v-606q0 -28 -13 -43.5t-36 -15.5q-54 0 -68 47l-20 65q-23 -55 -81.5 -88.5t-143.5 -33.5h-17q-334 0 -334 303v860q0 152 91 227.5t258 75.5h16q167 0 257.5 -75.5t90.5 -227.5v-131z" />
    <glyph glyph-name="m.ss01" horiz-adv-x="1390" 
d="M1014 1450q122 0 194 -74t72 -227v-1081q0 -68 -68 -68h-55q-34 0 -52 18t-18 50v1034q0 178 -133 178q-74 0 -116.5 -47t-42.5 -131v-1034q0 -32 -18 -50t-50 -18h-57q-68 0 -68 68v1034q0 178 -135 178q-74 0 -117 -47t-43 -131v-1034q0 -32 -17.5 -50t-49.5 -18h-58
q-67 0 -67 68v1298q0 68 67 68h58q32 0 49.5 -18t17.5 -50v-41q71 125 219 125q183 0 242 -152q70 152 246 152z" />
    <glyph glyph-name="n.ss01" horiz-adv-x="921" 
d="M811 68q0 -68 -68 -68h-57q-32 0 -50 18t-18 50v1034q0 178 -143 178q-77 0 -122.5 -46t-45.5 -132v-1034q0 -32 -17.5 -50t-49.5 -18h-58q-67 0 -67 68v1298q0 68 67 68h58q32 0 49.5 -18t17.5 -50v-41q71 125 230 125q125 0 199.5 -74t74.5 -227v-1081z" />
    <glyph glyph-name="nacute.ss01" horiz-adv-x="921" 
d="M487 1774q22 49 80 49h64q43 0 55.5 -24t-14.5 -58l-125 -156q-33 -39 -82 -39h-6q-38 0 -52 22t3 56zM811 68q0 -68 -68 -68h-57q-32 0 -50 18t-18 50v1034q0 178 -143 178q-77 0 -122.5 -46t-45.5 -132v-1034q0 -32 -17.5 -50t-49.5 -18h-58q-67 0 -67 68v1298
q0 68 67 68h58q32 0 49.5 -18t17.5 -50v-41q71 125 230 125q125 0 199.5 -74t74.5 -227v-1081z" />
    <glyph glyph-name="ncaron.ss01" horiz-adv-x="921" 
d="M666 1741q22 34 12 58t-45 24h-27q-56 0 -80 -47l-63 -107l-66 107q-21 47 -78 47h-16q-39 0 -51.5 -24t8.5 -58l94 -148q26 -47 80 -47h55q56 0 82 47zM811 68q0 -68 -68 -68h-57q-32 0 -50 18t-18 50v1034q0 178 -143 178q-77 0 -122.5 -46t-45.5 -132v-1034
q0 -32 -17.5 -50t-49.5 -18h-58q-67 0 -67 68v1298q0 68 67 68h58q32 0 49.5 -18t17.5 -50v-41q71 125 230 125q125 0 199.5 -74t74.5 -227v-1081z" />
    <glyph glyph-name="ncommaaccent.ss01" horiz-adv-x="921" 
d="M811 68q0 -68 -68 -68h-57q-32 0 -50 18t-18 50v1034q0 178 -143 178q-77 0 -122.5 -46t-45.5 -132v-1034q0 -32 -17.5 -50t-49.5 -18h-58q-67 0 -67 68v1298q0 68 67 68h58q32 0 49.5 -18t17.5 -50v-41q71 125 230 125q125 0 199.5 -74t74.5 -227v-1081zM487 -143
q68 0 68 -68v-102q0 -140 -74 -267q-35 -50 -73 -30q-35 14 -2 78q41 83 47 163h-23q-32 0 -50 18t-18 50v90q0 32 18 50t50 18h57z" />
    <glyph glyph-name="eng.ss01" horiz-adv-x="921" 
d="M537 1450q125 0 199.5 -74t74.5 -227v-1163q0 -156 -90.5 -229.5t-255.5 -73.5h-6q-68 0 -68 67v33q0 67 68 67h2q78 0 117.5 39t39.5 131v1082q0 178 -143 178q-77 0 -122.5 -46t-45.5 -132v-1034q0 -32 -17.5 -50t-49.5 -18h-58q-67 0 -67 68v1298q0 68 67 68h58
q32 0 49.5 -18t17.5 -50v-41q71 125 230 125z" />
    <glyph glyph-name="ntilde.ss01" horiz-adv-x="921" 
d="M289 1591q0 68 59 68q25 0 55 -17.5t55.5 -39t64.5 -39t79 -17.5q71 0 119.5 49.5t48.5 145.5q0 55 -53 55h-29q-53 0 -53 -37q0 -31 -15 -49t-45 -18q-24 0 -52 17.5t-51.5 38.5t-61 38.5t-78.5 17.5q-71 0 -123.5 -49.5t-52.5 -144.5q0 -56 53 -56h27q53 0 53 37z
M811 68q0 -68 -68 -68h-57q-32 0 -50 18t-18 50v1034q0 178 -143 178q-77 0 -122.5 -46t-45.5 -132v-1034q0 -32 -17.5 -50t-49.5 -18h-58q-67 0 -67 68v1298q0 68 67 68h58q32 0 49.5 -18t17.5 -50v-41q71 125 230 125q125 0 199.5 -74t74.5 -227v-1081z" />
    <glyph glyph-name="q.ss01" horiz-adv-x="925" 
d="M819 287q0 -137 -71.5 -211t-206.5 -88q15 -116 129 -101q34 2 52.5 -9t25.5 -40q6 -31 -7 -52.5t-45 -27.5q-57 -12 -108 -5t-86.5 28t-60 53t-28.5 70.5t7 79.5q-314 16 -314 303v860q0 303 349 303h16q168 0 258 -74.5t90 -228.5v-860zM627 324v786q0 92 -40.5 131
t-123.5 39t-123.5 -39t-40.5 -131v-786q0 -92 40.5 -131t123.5 -39t123.5 39t40.5 131z" />
    <glyph glyph-name="r.ss01" horiz-adv-x="915" 
d="M813 1130v-229q0 -80 -49.5 -142.5t-130.5 -74.5q87 -14 133.5 -74t46.5 -129v-291q0 -99 29 -131q4 -4 10 -9t9.5 -8t6 -8t2.5 -11q0 -25 -39 -25h-65q-41 0 -70.5 16.5t-45 45.5t-22.5 61t-7 69v263q0 82 -41 113.5t-123 31.5h-150v-530q0 -32 -17.5 -50t-49.5 -18h-58
q-67 0 -67 68v1298q0 68 67 68h283q167 0 257.5 -75t90.5 -229zM307 768h150q80 0 122 36.5t42 119.5v170q0 92 -40.5 131t-123.5 39h-150v-496z" />
    <glyph glyph-name="racute.ss01" horiz-adv-x="915" 
d="M459 1774q22 49 80 49h63q43 0 55.5 -24t-14.5 -58l-125 -156q-33 -39 -82 -39h-6q-38 0 -52 22t3 56zM813 1130v-229q0 -80 -49.5 -142.5t-130.5 -74.5q87 -14 133.5 -74t46.5 -129v-291q0 -99 29 -131q4 -4 10 -9t9.5 -8t6 -8t2.5 -11q0 -25 -39 -25h-65
q-41 0 -70.5 16.5t-45 45.5t-22.5 61t-7 69v263q0 82 -41 113.5t-123 31.5h-150v-530q0 -32 -17.5 -50t-49.5 -18h-58q-67 0 -67 68v1298q0 68 67 68h283q167 0 257.5 -75t90.5 -229zM307 768h150q80 0 122 36.5t42 119.5v170q0 92 -40.5 131t-123.5 39h-150v-496z" />
    <glyph glyph-name="rcaron.ss01" horiz-adv-x="915" 
d="M637 1741q22 34 12 58t-45 24h-26q-56 0 -80 -47l-64 -107l-65 107q-21 47 -78 47h-17q-39 0 -51.5 -24t8.5 -58l95 -148q26 -47 80 -47h55q56 0 82 47zM813 1130v-229q0 -80 -49.5 -142.5t-130.5 -74.5q87 -14 133.5 -74t46.5 -129v-291q0 -99 29 -131q4 -4 10 -9
t9.5 -8t6 -8t2.5 -11q0 -25 -39 -25h-65q-41 0 -70.5 16.5t-45 45.5t-22.5 61t-7 69v263q0 82 -41 113.5t-123 31.5h-150v-530q0 -32 -17.5 -50t-49.5 -18h-58q-67 0 -67 68v1298q0 68 67 68h283q167 0 257.5 -75t90.5 -229zM307 768h150q80 0 122 36.5t42 119.5v170
q0 92 -40.5 131t-123.5 39h-150v-496z" />
    <glyph glyph-name="rcommaaccent.ss01" horiz-adv-x="915" 
d="M813 1130v-229q0 -80 -49.5 -142.5t-130.5 -74.5q87 -14 133.5 -74t46.5 -129v-291q0 -99 29 -131q4 -4 10 -9t9.5 -8t6 -8t2.5 -11q0 -25 -39 -25h-65q-41 0 -70.5 16.5t-45 45.5t-22.5 61t-7 69v263q0 82 -41 113.5t-123 31.5h-150v-530q0 -32 -17.5 -50t-49.5 -18h-58
q-67 0 -67 68v1298q0 68 67 68h283q167 0 257.5 -75t90.5 -229zM307 768h150q80 0 122 36.5t42 119.5v170q0 92 -40.5 131t-123.5 39h-150v-496zM510 -143q68 0 68 -68v-102q0 -140 -74 -267q-36 -50 -74 -30q-35 14 -2 78q41 83 47 163h-22q-32 0 -50 18t-18 50v90
q0 32 18 50t50 18h57z" />
    <glyph glyph-name="w.ss01" horiz-adv-x="1386" 
d="M1083 1366q0 32 18 50t52 18h55q68 0 68 -68v-1073q0 -80 -27.5 -141t-75 -97t-105.5 -53.5t-126 -17.5q-79 0 -146 30t-104 97q-35 -67 -102.5 -97t-145.5 -30q-67 0 -125.5 17.5t-106 53t-74.5 95t-27 137.5v1079q0 68 67 68h58q32 0 49.5 -18t17.5 -50v-1032
q0 -180 148 -180q70 0 108.5 45.5t38.5 134.5v1032q0 68 68 68h57q32 0 50 -18t18 -50v-1032q0 -180 147 -180q70 0 107.5 45t37.5 135v1032z" />
    <glyph glyph-name="wacute.ss01" horiz-adv-x="1386" 
d="M719 1774q22 49 80 49h63q43 0 55.5 -24t-14.5 -58l-125 -156q-33 -39 -82 -39h-6q-38 0 -52 22t3 56zM1083 1366q0 32 18 50t52 18h55q68 0 68 -68v-1073q0 -80 -27.5 -141t-75 -97t-105.5 -53.5t-126 -17.5q-79 0 -146 30t-104 97q-35 -67 -102.5 -97t-145.5 -30
q-67 0 -125.5 17.5t-106 53t-74.5 95t-27 137.5v1079q0 68 67 68h58q32 0 49.5 -18t17.5 -50v-1032q0 -180 148 -180q70 0 108.5 45.5t38.5 134.5v1032q0 68 68 68h57q32 0 50 -18t18 -50v-1032q0 -180 147 -180q70 0 107.5 45t37.5 135v1032z" />
    <glyph glyph-name="wcircumflex.ss01" horiz-adv-x="1386" 
d="M864 1546q35 0 45 24t-12 58l-94 148q-24 47 -80 47h-57q-54 0 -80 -47l-94 -148q-22 -34 -12.5 -58t44.5 -24h27q55 0 80 49l63 105l64 -105q25 -49 80 -49h26zM1083 1366q0 32 18 50t52 18h55q68 0 68 -68v-1073q0 -80 -27.5 -141t-75 -97t-105.5 -53.5t-126 -17.5
q-79 0 -146 30t-104 97q-35 -67 -102.5 -97t-145.5 -30q-67 0 -125.5 17.5t-106 53t-74.5 95t-27 137.5v1079q0 68 67 68h58q32 0 49.5 -18t17.5 -50v-1032q0 -180 148 -180q70 0 108.5 45.5t38.5 134.5v1032q0 68 68 68h57q32 0 50 -18t18 -50v-1032q0 -180 147 -180
q70 0 107.5 45t37.5 135v1032z" />
    <glyph glyph-name="wdieresis.ss01" horiz-adv-x="1386" 
d="M559 1751q32 0 50 -18t18 -50v-69q0 -32 -18 -50t-50 -18h-45q-34 0 -52 18t-18 50v69q0 32 18 50t52 18h45zM874 1751q34 0 52 -18t18 -50v-69q0 -32 -18 -50t-52 -18h-45q-32 0 -49.5 18t-17.5 50v69q0 32 17.5 50t49.5 18h45zM1083 1366q0 32 18 50t52 18h55
q68 0 68 -68v-1073q0 -80 -27.5 -141t-75 -97t-105.5 -53.5t-126 -17.5q-79 0 -146 30t-104 97q-35 -67 -102.5 -97t-145.5 -30q-67 0 -125.5 17.5t-106 53t-74.5 95t-27 137.5v1079q0 68 67 68h58q32 0 49.5 -18t17.5 -50v-1032q0 -180 148 -180q70 0 108.5 45.5
t38.5 134.5v1032q0 68 68 68h57q32 0 50 -18t18 -50v-1032q0 -180 147 -180q70 0 107.5 45t37.5 135v1032z" />
    <glyph glyph-name="wgrave.ss01" horiz-adv-x="1386" 
d="M592 1823q58 0 80 -49l78 -150q18 -34 9 -56t-40 -22h-23q-53 0 -82 39l-125 156q-28 34 -16 58t55 24h64zM1083 1366q0 32 18 50t52 18h55q68 0 68 -68v-1073q0 -80 -27.5 -141t-75 -97t-105.5 -53.5t-126 -17.5q-79 0 -146 30t-104 97q-35 -67 -102.5 -97t-145.5 -30
q-67 0 -125.5 17.5t-106 53t-74.5 95t-27 137.5v1079q0 68 67 68h58q32 0 49.5 -18t17.5 -50v-1032q0 -180 148 -180q70 0 108.5 45.5t38.5 134.5v1032q0 68 68 68h57q32 0 50 -18t18 -50v-1032q0 -180 147 -180q70 0 107.5 45t37.5 135v1032z" />
    <glyph glyph-name="y.ss01" horiz-adv-x="913" 
d="M610 1366q0 32 18 50t50 18h57q68 0 68 -68v-1079q0 -303 -344 -303h-8q-169 0 -257 72.5t-88 230.5v65q0 68 68 68h57q32 0 50 -18t18 -50v-28q0 -93 37 -131.5t119 -38.5q81 0 118 38.5t37 131.5v358q-73 -125 -229 -125q-126 0 -200.5 74.5t-74.5 228.5v506
q0 68 68 68h57q32 0 50 -18t18 -50v-459q0 -180 143 -180q77 0 122.5 46.5t45.5 133.5v459z" />
    <glyph glyph-name="yacute.ss01" horiz-adv-x="913" 
d="M479 1774q22 49 80 49h64q43 0 55.5 -24t-14.5 -58l-125 -156q-33 -39 -82 -39h-6q-38 0 -52.5 22t2.5 56zM610 1366q0 32 18 50t50 18h57q68 0 68 -68v-1079q0 -303 -344 -303h-8q-169 0 -257 72.5t-88 230.5v65q0 68 68 68h57q32 0 50 -18t18 -50v-28q0 -93 37 -131.5
t119 -38.5q81 0 118 38.5t37 131.5v358q-73 -125 -229 -125q-126 0 -200.5 74.5t-74.5 228.5v506q0 68 68 68h57q32 0 50 -18t18 -50v-459q0 -180 143 -180q77 0 122.5 46.5t45.5 133.5v459z" />
    <glyph glyph-name="ycircumflex.ss01" horiz-adv-x="913" 
d="M625 1546q35 0 44.5 24t-12.5 58l-94 148q-24 47 -80 47h-57q-54 0 -80 -47l-94 -148q-22 -34 -12 -58t45 -24h26q55 0 80 49l64 105l63 -105q25 -49 80 -49h27zM610 1366q0 32 18 50t50 18h57q68 0 68 -68v-1079q0 -303 -344 -303h-8q-169 0 -257 72.5t-88 230.5v65
q0 68 68 68h57q32 0 50 -18t18 -50v-28q0 -93 37 -131.5t119 -38.5q81 0 118 38.5t37 131.5v358q-73 -125 -229 -125q-126 0 -200.5 74.5t-74.5 228.5v506q0 68 68 68h57q32 0 50 -18t18 -50v-459q0 -180 143 -180q77 0 122.5 46.5t45.5 133.5v459z" />
    <glyph glyph-name="ydieresis.ss01" horiz-adv-x="913" 
d="M319 1751q32 0 50 -18t18 -50v-69q0 -32 -18 -50t-50 -18h-45q-69 0 -69 68v69q0 68 69 68h45zM635 1751q34 0 52 -18t18 -50v-69q0 -32 -18 -50t-52 -18h-45q-32 0 -50 18t-18 50v69q0 32 18 50t50 18h45zM610 1366q0 32 18 50t50 18h57q68 0 68 -68v-1079
q0 -303 -344 -303h-8q-169 0 -257 72.5t-88 230.5v65q0 68 68 68h57q32 0 50 -18t18 -50v-28q0 -93 37 -131.5t119 -38.5q81 0 118 38.5t37 131.5v358q-73 -125 -229 -125q-126 0 -200.5 74.5t-74.5 228.5v506q0 68 68 68h57q32 0 50 -18t18 -50v-459q0 -180 143 -180
q77 0 122.5 46.5t45.5 133.5v459z" />
    <glyph glyph-name="ygrave.ss01" horiz-adv-x="913" 
d="M352 1823q58 0 80 -49l78 -150q18 -34 9 -56t-40 -22h-22q-53 0 -82 39l-125 156q-28 34 -16 58t55 24h63zM610 1366q0 32 18 50t50 18h57q68 0 68 -68v-1079q0 -303 -344 -303h-8q-169 0 -257 72.5t-88 230.5v65q0 68 68 68h57q32 0 50 -18t18 -50v-28q0 -93 37 -131.5
t119 -38.5q81 0 118 38.5t37 131.5v358q-73 -125 -229 -125q-126 0 -200.5 74.5t-74.5 228.5v506q0 68 68 68h57q32 0 50 -18t18 -50v-459q0 -180 143 -180q77 0 122.5 46.5t45.5 133.5v459z" />
    <glyph glyph-name="one.ss01" horiz-adv-x="577" 
d="M436 68q0 -32 -17.5 -50t-49.5 -18h-52q-67 0 -67 68v1177l-146 -59q-34 -12 -55.5 3t-21.5 52v27q0 57 53 78l176 71q41 17 82 17h31q32 0 49.5 -18t17.5 -50v-1298z" />
    <glyph glyph-name="zero.tf" horiz-adv-x="860" 
d="M438 1450q332 0 332 -303v-860q0 -303 -332 -303h-16q-332 0 -332 303v860q0 303 332 303h16zM584 1110q0 92 -38 131t-116 39t-116 -39t-38 -131v-786q0 -92 38 -131t116 -39t116 39t38 131v786z" />
    <glyph glyph-name="one.tf" horiz-adv-x="860" 
d="M698 166q68 0 68 -68v-30q0 -68 -68 -68h-516q-67 0 -67 68v30q0 68 67 68h174v1069l-166 -59q-34 -11 -54.5 4t-20.5 51v37q0 55 53 75l197 76q41 15 81 15h31q32 0 50 -18t18 -50v-1200h153z" />
    <glyph glyph-name="two.tf" horiz-adv-x="860" 
d="M178 934q-67 0 -67 67v154q0 153 81 224t242 71h4q161 0 242.5 -71.5t81.5 -223.5v-186q0 -30 -6 -58.5t-14.5 -51t-26 -48t-31 -42.5t-40 -43t-43.5 -41t-50 -44t-51 -45q-112 -98 -159.5 -159t-47.5 -128v-147h401q68 0 68 -68v-26q0 -68 -68 -68h-520q-68 0 -68 68
v245q0 62 18.5 116t66.5 111t79 86.5t106 95.5q13 11 19 17q47 40 66.5 57.5t47.5 46t38.5 46t19 41.5t8.5 49v151q0 85 -36 121.5t-107 36.5q-70 0 -103.5 -36.5t-33.5 -121.5v-129q0 -67 -70 -67h-47z" />
    <glyph glyph-name="three.tf" horiz-adv-x="860" 
d="M756 971q0 -205 -146 -226q47 -9 78 -31t44.5 -53.5t18.5 -59t5 -62.5v-252q0 -148 -76 -225.5t-227 -77.5h-56q-151 0 -227 77.5t-76 225.5v119q0 67 68 67h51q32 0 50 -17.5t18 -49.5v-95q0 -166 137 -166h14q137 0 137 166v224q0 127 -129 127h-96q-68 0 -68 67v25
q0 67 68 67h76q76 0 112.5 34t36.5 114v153q0 166 -137 166h-18q-138 0 -138 -166v-61q0 -32 -17.5 -50t-49.5 -18h-47q-68 0 -68 68v86q0 303 324 303h14q324 0 324 -303v-176z" />
    <glyph glyph-name="four.tf" horiz-adv-x="860" 
d="M604 1434q32 0 50 -18t18 -50v-854h67q68 0 68 -68v-28q0 -68 -68 -68h-67v-280q0 -32 -18 -50t-50 -18h-51q-32 0 -50 18t-18 50v280h-366q-68 0 -68 68v61q0 33 17 82l342 821q22 54 77 54h117zM485 1221l-282 -709h282v709z" />
    <glyph glyph-name="five.tf" horiz-adv-x="860" 
d="M752 1335q0 -67 -68 -67h-381v-400q65 80 191 80q59 0 106.5 -15t86 -46.5t60 -87t21.5 -129.5v-391q0 -152 -83 -223.5t-245 -71.5h-4q-162 0 -244.5 71.5t-82.5 223.5v153q0 68 67 68h47q70 0 70 -68v-129q0 -85 35.5 -121.5t107.5 -36.5q73 0 109.5 36.5t36.5 121.5
v340q0 80 -33.5 110.5t-89.5 30.5q-79 0 -131 -59q-30 -38 -70 -27l-84 23q-57 15 -57 74v571q0 68 67 68h500q68 0 68 -68v-31z" />
    <glyph glyph-name="six.tf" horiz-adv-x="860" 
d="M750 1077q0 -57 -68 -57h-51q-32 0 -50 17.5t-18 49.5v43q0 90 -31 124t-104 34t-104 -34t-31 -124v-319q57 74 186 74q130 0 206.5 -69.5t76.5 -213.5v-323q0 -153 -80.5 -224t-245.5 -71h-4q-165 0 -245.5 71t-80.5 224v876q0 154 78 224.5t242 70.5h4q164 0 242 -70.5
t78 -224.5v-78zM434 721q-141 0 -141 -146v-272q0 -89 33.5 -123.5t107.5 -34.5t107.5 34.5t33.5 123.5v272q0 80 -35.5 113t-105.5 33z" />
    <glyph glyph-name="seven.tf" horiz-adv-x="860" 
d="M774 1339q0 -41 -12 -84l-381 -1200q-18 -55 -78 -55h-47q-37 0 -52 21t-3 55l381 1192h-449q-70 0 -70 67v31q0 32 18 50t52 18h574q32 0 49.5 -18t17.5 -50v-27z" />
    <glyph glyph-name="eight.tf" horiz-adv-x="860" 
d="M463 1450q151 0 227 -77.5t76 -225.5v-176q0 -207 -145 -226q145 -25 145 -247v-211q0 -148 -76 -225.5t-227 -77.5h-64q-151 0 -227 77.5t-76 225.5v211q0 221 146 247q-146 19 -146 226v176q0 148 76 225.5t227 77.5h64zM580 969v153q0 86 -35.5 126t-93.5 40h-39
q-58 0 -93.5 -40t-35.5 -126v-153q0 -77 35 -112.5t94 -35.5h39q59 0 94 35.5t35 112.5zM580 311v203q0 77 -35 112.5t-94 35.5h-39q-59 0 -94 -35.5t-35 -112.5v-203q0 -86 35.5 -126t93.5 -40h39q58 0 93.5 40t35.5 126z" />
    <glyph glyph-name="nine.tf" horiz-adv-x="860" 
d="M111 356q0 58 67 58h51q32 0 50 -18t18 -50v-43q0 -90 31 -124t104 -34t104 34t31 124v320q-57 -74 -186 -74q-130 0 -206.5 69t-76.5 213v324q0 153 80.5 224t245.5 71h4q165 0 245.5 -71t80.5 -224v-876q0 -154 -78 -224.5t-242 -70.5h-4q-164 0 -241.5 70.5
t-77.5 224.5v77zM426 713q141 0 141 145v272q0 89 -33.5 123.5t-107.5 34.5t-107.5 -34.5t-33.5 -123.5v-272q0 -80 35.5 -112.5t105.5 -32.5z" />
    <glyph glyph-name="colon.tf" horiz-adv-x="430" 
d="M244 977q67 0 67 -68v-90q0 -67 -67 -67h-58q-67 0 -67 67v90q0 32 17.5 50t49.5 18h58zM244 225q67 0 67 -67v-90q0 -68 -67 -68h-58q-32 0 -49.5 18t-17.5 50v90q0 67 67 67h58z" />
    <glyph glyph-name="comma.tf" horiz-adv-x="430" 
d="M244 225q67 0 67 -67v-103q0 -140 -73 -266q-36 -51 -74 -31q-35 14 -2 78q41 83 47 164h-23q-32 0 -49.5 18t-17.5 50v90q0 67 67 67h58z" />
    <glyph glyph-name="numbersign.tf" horiz-adv-x="860" 
d="M788 1020q32 0 50 -18t18 -50v-16q0 -32 -18 -50t-50 -18h-94l-69 -303h102q32 0 50 -17.5t18 -49.5v-17q0 -32 -18 -49.5t-50 -17.5h-137l-80 -355q-12 -59 -76 -59h-10q-35 0 -51 20t-8 54l77 340h-161l-80 -355q-12 -59 -74 -59h-12q-35 0 -51.5 20t-8.5 54l78 340
h-59q-70 0 -70 67v17q0 67 70 67h92l70 303h-101q-69 0 -69 68v16q0 68 69 68h135l80 354q12 60 76 60h10q35 0 51.5 -20t8.5 -54l-78 -340h162l79 354q12 60 74 60h12q35 0 51.5 -20t8.5 -54l-78 -340h61zM475 565l70 303h-160l-70 -303h160z" />
    <glyph glyph-name="period.tf" horiz-adv-x="430" 
d="M244 225q67 0 67 -67v-90q0 -32 -17.5 -50t-49.5 -18h-58q-32 0 -49.5 18t-17.5 50v90q0 67 67 67h58z" />
    <glyph glyph-name="semicolon.tf" horiz-adv-x="430" 
d="M244 977q67 0 67 -68v-90q0 -67 -67 -67h-58q-67 0 -67 67v90q0 32 17.5 50t49.5 18h58zM244 225q67 0 67 -67v-103q0 -140 -73 -266q-36 -51 -74 -31q-35 14 -2 78q41 83 47 164h-23q-32 0 -49.5 18t-17.5 50v90q0 67 67 67h58z" />
    <glyph glyph-name="space.tf" horiz-adv-x="430" 
 />
    <glyph glyph-name="cent.tf" horiz-adv-x="860" 
d="M662 850q-68 0 -68 68v22q0 91 -40.5 131.5t-121.5 40.5t-121.5 -40.5t-40.5 -131.5v-446q0 -91 40.5 -131.5t121.5 -40.5q162 0 162 172v57q0 67 68 67h53q67 0 67 -67v-94q0 -265 -262 -297v-92q0 -32 -17.5 -50t-49.5 -18h-39q-32 0 -50 18t-18 50v90
q-129 18 -196.5 90t-67.5 209v520q0 131 68.5 205t195.5 92v92q0 32 18 50t50 18h39q32 0 49.5 -18t17.5 -50v-92q127 -18 194.5 -92t67.5 -205v-59q0 -68 -67 -68h-53z" />
    <glyph glyph-name="dollar.tf" horiz-adv-x="860" 
d="M575 758q102 -58 151.5 -119.5t49.5 -157.5v-198q0 -135 -65 -206t-191 -89v-80q0 -32 -17.5 -50t-49.5 -18h-39q-32 0 -50 18t-18 50v80q-258 31 -258 295v176q0 67 68 67h53q67 0 67 -67v-144q0 -163 156 -163t156 163v113q0 63 -25 98.5t-90 71.5l-184 102
q-108 62 -154.5 120.5t-46.5 154.5v180q0 127 68.5 199t189.5 90v82q0 32 18 49.5t50 17.5h39q67 0 67 -67v-82q118 -20 185 -91.5t67 -197.5v-160q0 -67 -67 -67h-54q-67 0 -67 67v127q0 84 -39 122t-115 38t-115 -38t-39 -122v-98q0 -62 24 -94.5t89 -69.5z" />
    <glyph glyph-name="Euro.tf" horiz-adv-x="860" 
d="M680 891q-32 0 -50 17.5t-18 49.5v152q0 91 -38.5 130.5t-118.5 39.5t-119 -39.5t-39 -130.5v-217h186q41 0 41 -41v-16q0 -43 -41 -43h-186v-119h186q41 0 41 -43v-17q0 -41 -41 -41h-186v-249q0 -91 39 -130.5t119 -39.5t118.5 39.5t38.5 130.5v186q0 32 18 50t50 18
h57q68 0 68 -68v-223q0 -303 -348 -303h-4q-349 0 -349 303v286h-51q-43 0 -43 41v17q0 43 43 43h51v119h-51q-43 0 -43 43v16q0 41 43 41h51v254q0 152 91 227.5t258 75.5h4q167 0 257.5 -75.5t90.5 -227.5v-189q0 -67 -68 -67h-57z" />
    <glyph glyph-name="florin.tf" horiz-adv-x="860" 
d="M709 1434q32 0 49.5 -18t17.5 -50v-35q0 -67 -67 -67h-29q-79 0 -117.5 -39t-38.5 -131v-260h156q35 0 51 -20.5t8 -55.5l-6 -31q-12 -61 -74 -61h-135v-363q0 -303 -336 -303h-36q-32 0 -50 18t-18 50v34q0 68 68 68h28q79 0 117.5 39t38.5 131v326h-156q-35 0 -51 20
t-8 55l6 31q13 62 74 62h135v296q0 304 336 304h37z" />
    <glyph glyph-name="sterling.tf" horiz-adv-x="860" 
d="M788 985q0 -67 -67 -67h-57q-68 0 -68 67v145q0 71 -25 110.5t-90 39.5q-64 0 -88 -39.5t-24 -110.5v-337h161q32 0 50 -18t18 -50v-20q0 -32 -18 -50t-50 -18h-161q0 -226 -25.5 -326.5t-103.5 -140.5h460q68 0 68 -68v-34q0 -68 -68 -68h-565q-62 0 -74 61l-10 54
q-6 28 3 47t32 39q55 47 72.5 141.5t17.5 294.5h-59q-32 0 -50 18t-18 50v20q0 32 18 50t50 18h59v354q0 303 303 303h4q305 0 305 -303v-162z" />
    <glyph glyph-name="yen.tf" horiz-adv-x="860" 
d="M745 1434q37 0 52.5 -21t3.5 -55l-223 -676h112q41 0 41 -41v-16q0 -43 -41 -43h-145l-19 -54v-65h164q41 0 41 -43v-17q0 -41 -41 -41h-164v-294q0 -32 -17.5 -50t-49.5 -18h-58q-32 0 -49.5 18t-17.5 50v294h-189q-41 0 -41 41v17q0 43 41 43h189v65l-19 54h-170
q-41 0 -41 43v16q0 41 41 41h138l-224 676q-12 34 3.5 55t52.5 21h61q61 0 76 -60l180 -633l180 633q15 60 74 60h59z" />
    <glyph glyph-name="percent.tf" horiz-adv-x="860" 
d="M219 1442q73 0 121.5 -42.5t48.5 -129.5v-266q0 -87 -49 -130t-121 -43h-33q-75 0 -123.5 43t-48.5 130v266q0 87 48.5 129.5t123.5 42.5h33zM725 1434q26 0 36 -17t-1 -43l-553 -1335q-16 -39 -57 -39h-11q-29 0 -40.5 16.5t-0.5 42.5l553 1336q16 39 58 39h16z
M276 1247q0 86 -65 86h-18q-64 0 -64 -86v-221q0 -86 64 -86h18q65 0 65 86v221zM674 602q73 0 121.5 -42.5t48.5 -129.5v-266q0 -87 -48.5 -129.5t-121.5 -42.5h-33q-75 0 -123.5 42.5t-48.5 129.5v266q0 87 48.5 129.5t123.5 42.5h33zM731 408q0 86 -65 86h-19
q-63 0 -63 -86v-222q0 -86 63 -86h19q65 0 65 86v222z" />
    <glyph glyph-name="bar.tf" horiz-adv-x="430" 
d="M303 -137q0 -32 -17.5 -50t-49.5 -18h-41q-32 0 -50 18t-18 50v1708q0 32 18 49.5t50 17.5h41q67 0 67 -67v-1708z" />
    <glyph glyph-name="brokenbar.tf" horiz-adv-x="430" 
d="M195 901q-32 0 -50 18t-18 50v602q0 32 18 49.5t50 17.5h41q67 0 67 -67v-602q0 -32 -17.5 -50t-49.5 -18h-41zM236 573q67 0 67 -67v-643q0 -32 -17.5 -50t-49.5 -18h-41q-32 0 -50 18t-18 50v643q0 32 18 49.5t50 17.5h41z" />
    </font>
</defs>
</svg>
